<?xml version="1.0" encoding="utf-8"?>
<!-- Generator: Adobe Illustrator 23.0.3, SVG Export Plug-In . SVG Version: 6.00 Build 0)  -->
<!DOCTYPE svg PUBLIC "-//W3C//DTD SVG 1.1//EN" "http://www.w3.org/Graphics/SVG/1.1/DTD/svg11.dtd" [
	<!ENTITY ns_extend "http://ns.adobe.com/Extensibility/1.0/">
	<!ENTITY ns_ai "http://ns.adobe.com/AdobeIllustrator/10.0/">
	<!ENTITY ns_graphs "http://ns.adobe.com/Graphs/1.0/">
	<!ENTITY ns_vars "http://ns.adobe.com/Variables/1.0/">
	<!ENTITY ns_imrep "http://ns.adobe.com/ImageReplacement/1.0/">
	<!ENTITY ns_sfw "http://ns.adobe.com/SaveForWeb/1.0/">
	<!ENTITY ns_custom "http://ns.adobe.com/GenericCustomNamespace/1.0/">
	<!ENTITY ns_adobe_xpath "http://ns.adobe.com/XPath/1.0/">
]>
<svg version="1.1" id="Layer_1" xmlns:x="&ns_extend;" xmlns:i="&ns_ai;" xmlns:graph="&ns_graphs;"
	 xmlns="http://www.w3.org/2000/svg" xmlns:xlink="http://www.w3.org/1999/xlink" x="0px" y="0px" width="18px" height="18px"
	 viewBox="0 0 18 18" style="enable-background:new 0 0 18 18;" xml:space="preserve">
<style type="text/css">
	.st0{fill:#E96A48;}
	.st1{fill:#FFFFFF;}
</style>
<metadata>
	<sfw  xmlns="&ns_sfw;">
		<slices></slices>
		<sliceSourceBounds  bottomLeftOrigin="true" height="24.8" width="37.8" x="-16.7" y="-24"></sliceSourceBounds>
	</sfw>
</metadata>
<g>
	<path class="st0" d="M-10.7,11.2L-10.7,11.2c-5,0-9-4-9-9v0c0-5,4-9,9-9l0,0c5,0,9,4,9,9v0C-1.7,7.2-5.7,11.2-10.7,11.2z"/>
</g>
<g>
	<path class="st1" d="M-12.1,5.9c-0.3,0-0.5-0.1-0.7-0.3l-3.3-3.3c-0.4-0.4-0.4-1,0-1.4c0.4-0.4,1-0.4,1.4,0l2.6,2.6l5.3-5.3
		c0.4-0.4,1-0.4,1.4,0c0.4,0.4,0.4,1,0,1.4l-6,6C-11.6,5.8-11.8,5.9-12.1,5.9z"/>
</g>
<g>
	<path class="st0" d="M9,1.6c4.1,0,7.4,3.3,7.4,7.4s-3.3,7.4-7.4,7.4S1.6,13.1,1.6,9C1.6,5,5,1.6,9,1.6 M9,0L9,0c-5,0-9,4-9,9l0,0
		c0,5,4,9,9,9l0,0c5,0,9-4,9-9l0,0C18,4.1,14,0,9,0L9,0z"/>
</g>
<g>
	<path class="st0" d="M7.8,13c-0.2,0-0.5-0.1-0.6-0.3l-3-3c-0.4-0.4-0.4-0.9,0-1.3c0.4-0.4,0.9-0.4,1.3,0l2.3,2.3l4.8-4.8
		c0.4-0.4,0.9-0.4,1.3,0c0.4,0.4,0.4,0.9,0,1.3l-5.4,5.4C8.3,12.9,8,13,7.8,13z"/>
</g>
</svg>
