<?xml version="1.0" encoding="utf-8"?>
<!-- Generator: Adobe Illustrator 23.0.3, SVG Export Plug-In . SVG Version: 6.00 Build 0)  -->
<!DOCTYPE svg PUBLIC "-//W3C//DTD SVG 1.1//EN" "http://www.w3.org/Graphics/SVG/1.1/DTD/svg11.dtd" [
	<!ENTITY ns_extend "http://ns.adobe.com/Extensibility/1.0/">
	<!ENTITY ns_ai "http://ns.adobe.com/AdobeIllustrator/10.0/">
	<!ENTITY ns_graphs "http://ns.adobe.com/Graphs/1.0/">
	<!ENTITY ns_vars "http://ns.adobe.com/Variables/1.0/">
	<!ENTITY ns_imrep "http://ns.adobe.com/ImageReplacement/1.0/">
	<!ENTITY ns_sfw "http://ns.adobe.com/SaveForWeb/1.0/">
	<!ENTITY ns_custom "http://ns.adobe.com/GenericCustomNamespace/1.0/">
	<!ENTITY ns_adobe_xpath "http://ns.adobe.com/XPath/1.0/">
]>
<svg version="1.1" id="Layer_1" xmlns:x="&ns_extend;" xmlns:i="&ns_ai;" xmlns:graph="&ns_graphs;"
	 xmlns="http://www.w3.org/2000/svg" xmlns:xlink="http://www.w3.org/1999/xlink" x="0px" y="0px" width="192px" height="52px"
	 viewBox="0 0 192 52" style="enable-background:new 0 0 192 52;" xml:space="preserve">
<style type="text/css">
	.st0{fill:none;stroke:#FFFFFF;stroke-width:1.9785;stroke-miterlimit:10;}
	.st1{fill:#FFFFFF;}
</style>
<metadata>
	<sfw  xmlns="&ns_sfw;">
		<slices></slices>
		<sliceSourceBounds  bottomLeftOrigin="true" height="51.4" width="190" x="0.9" y="-51.7"></sliceSourceBounds>
	</sfw>
</metadata>
<path class="st0" d="M165.2,50.7H26.7C13.1,50.7,1.9,39.6,1.9,26v0c0-13.6,11.1-24.7,24.7-24.7h138.5c13.6,0,24.7,11.1,24.7,24.7v0
	C189.9,39.6,178.8,50.7,165.2,50.7z"/>
<g>
	<path class="st1" d="M50.3,25.8c0-5.7,3.5-9.1,8.1-9.1c2.5,0,4.1,1.1,5.2,2.2l-1.5,1.8c-0.9-0.9-1.9-1.6-3.6-1.6
		c-3.3,0-5.4,2.5-5.4,6.6c0,4.2,1.9,6.7,5.5,6.7c1.1,0,2.1-0.3,2.8-0.9v-4.1H58v-2.3h6v7.6c-1.2,1.2-3.1,2-5.5,2
		C53.7,34.8,50.3,31.5,50.3,25.8z"/>
	<path class="st1" d="M65.6,28c0-4.4,2.9-6.9,6.2-6.9c3.2,0,6.2,2.5,6.2,6.9c0,4.3-2.9,6.8-6.2,6.8C68.5,34.8,65.6,32.3,65.6,28z
		 M75.1,28c0-2.8-1.3-4.6-3.3-4.6c-2,0-3.3,1.9-3.3,4.6c0,2.8,1.3,4.6,3.3,4.6C73.8,32.5,75.1,30.7,75.1,28z"/>
	<path class="st1" d="M79,28c0-4.4,2.9-6.9,6.2-6.9s6.2,2.5,6.2,6.9c0,4.3-2.9,6.8-6.2,6.8S79,32.3,79,28z M88.5,28
		c0-2.8-1.3-4.6-3.3-4.6c-2,0-3.3,1.9-3.3,4.6c0,2.8,1.3,4.6,3.3,4.6C87.2,32.5,88.5,30.7,88.5,28z"/>
	<path class="st1" d="M92.4,36.9c0-1.1,0.7-2.1,1.9-2.8v-0.1c-0.7-0.4-1.2-1.1-1.2-2.2c0-1,0.7-1.9,1.4-2.4v-0.1
		c-0.9-0.7-1.7-1.9-1.7-3.5c0-3,2.4-4.7,5.1-4.7c0.7,0,1.4,0.1,1.9,0.3h4.6v2h-2.5c0.5,0.5,0.9,1.4,0.9,2.4c0,2.8-2.2,4.5-4.9,4.5
		c-0.6,0-1.3-0.1-1.8-0.4c-0.4,0.4-0.7,0.8-0.7,1.4c0,0.8,0.5,1.3,2.2,1.3h2.4c3.1,0,4.7,0.9,4.7,3.2c0,2.5-2.7,4.6-6.8,4.6
		C94.6,40.3,92.4,39.2,92.4,36.9z M102,36.2c0-1.1-0.9-1.4-2.4-1.4h-2c-0.6,0-1.2-0.1-1.8-0.2c-0.8,0.6-1.1,1.2-1.1,1.9
		c0,1.3,1.3,2,3.5,2C100.5,38.5,102,37.4,102,36.2z M100.3,25.8c0-1.8-1.1-2.8-2.5-2.8s-2.5,1-2.5,2.8c0,1.7,1.1,2.8,2.5,2.8
		C99.2,28.6,100.3,27.5,100.3,25.8z"/>
	<path class="st1" d="M105.8,31.4V15.5h2.7v16c0,0.7,0.3,1,0.7,1c0.1,0,0.2,0,0.5,0l0.4,2.1c-0.3,0.1-0.8,0.2-1.5,0.2
		C106.6,34.8,105.8,33.5,105.8,31.4z"/>
	<path class="st1" d="M110.8,28c0-4.2,2.9-6.9,6-6.9c3.5,0,5.3,2.5,5.3,6.2c0,0.5,0,1.1-0.1,1.4h-8.5c0.2,2.5,1.8,4,4,4
		c1.2,0,2.2-0.4,3.1-1l0.9,1.7c-1.2,0.8-2.7,1.4-4.4,1.4C113.6,34.8,110.8,32.3,110.8,28z M119.7,26.8c0-2.3-1-3.6-2.9-3.6
		c-1.6,0-3.1,1.3-3.3,3.6H119.7z"/>
	<path class="st1" d="M128.4,17h5.3c3.9,0,6.7,1.3,6.7,5.3c0,3.8-2.8,5.6-6.6,5.6h-2.6v6.6h-2.8V17z M133.5,25.6
		c2.8,0,4.1-1.1,4.1-3.4s-1.4-3.1-4.2-3.1h-2.3v6.4H133.5z"/>
	<path class="st1" d="M142.3,31.4V15.5h2.7v16c0,0.7,0.3,1,0.7,1c0.1,0,0.2,0,0.5,0l0.4,2.1c-0.3,0.1-0.8,0.2-1.5,0.2
		C143,34.8,142.3,33.5,142.3,31.4z"/>
	<path class="st1" d="M147.4,31c0-2.8,2.4-4.2,7.8-4.8c0-1.5-0.6-2.8-2.5-2.8c-1.4,0-2.7,0.6-3.8,1.3l-1-1.9
		c1.4-0.9,3.2-1.7,5.3-1.7c3.3,0,4.7,2.1,4.7,5.5v7.9h-2.2l-0.2-1.5h-0.1c-1.2,1-2.6,1.8-4.2,1.8C149,34.8,147.4,33.3,147.4,31z
		 M155.2,31.1v-3.2c-3.9,0.5-5.2,1.4-5.2,2.9c0,1.3,0.9,1.8,2,1.8C153.2,32.6,154.2,32.1,155.2,31.1z"/>
	<path class="st1" d="M166.4,35.2c-1,2.8-2.4,4.7-5.2,4.7c-0.7,0-1.2-0.1-1.6-0.3l0.5-2.1c0.2,0.1,0.6,0.2,0.9,0.2
		c1.4,0,2.3-1,2.7-2.4l0.3-0.9l-5.2-13h2.8l2.4,6.7c0.4,1.2,0.8,2.5,1.2,3.7h0.1l1-3.7l2.1-6.7h2.7L166.4,35.2z"/>
</g>
<g id="XMLID_2_">
	<path id="XMLID_8_" class="st1" d="M21.3,13.2c-0.5,0.2-0.8,0.7-0.8,1.4v10.6v10.6c0,0.7,0.3,1.2,0.8,1.4l11-12L21.3,13.2z
		 M23.2,13.8l9.7,10.7l3.2-3.6L23.2,13.8z M37.1,21.4l-3.5,3.8l3.5,3.8l4.8-2.6c0.9-0.5,1.2-0.7,1.2-1.2c0-0.5-0.3-0.7-1.2-1.2
		L37.1,21.4z M32.9,26l-9.8,10.7l13-7.1L32.9,26z"/>
</g>
</svg>
