<?xml version="1.0" encoding="utf-8"?>
<!-- Generator: Adobe Illustrator 23.0.3, SVG Export Plug-In . SVG Version: 6.00 Build 0)  -->
<!DOCTYPE svg PUBLIC "-//W3C//DTD SVG 1.1//EN" "http://www.w3.org/Graphics/SVG/1.1/DTD/svg11.dtd" [
	<!ENTITY ns_extend "http://ns.adobe.com/Extensibility/1.0/">
	<!ENTITY ns_ai "http://ns.adobe.com/AdobeIllustrator/10.0/">
	<!ENTITY ns_graphs "http://ns.adobe.com/Graphs/1.0/">
	<!ENTITY ns_vars "http://ns.adobe.com/Variables/1.0/">
	<!ENTITY ns_imrep "http://ns.adobe.com/ImageReplacement/1.0/">
	<!ENTITY ns_sfw "http://ns.adobe.com/SaveForWeb/1.0/">
	<!ENTITY ns_custom "http://ns.adobe.com/GenericCustomNamespace/1.0/">
	<!ENTITY ns_adobe_xpath "http://ns.adobe.com/XPath/1.0/">
]>
<svg version="1.1" id="Layer_1" xmlns:x="&ns_extend;" xmlns:i="&ns_ai;" xmlns:graph="&ns_graphs;"
	 xmlns="http://www.w3.org/2000/svg" xmlns:xlink="http://www.w3.org/1999/xlink" x="0px" y="0px" width="192px" height="52px"
	 viewBox="0 0 192 52" style="enable-background:new 0 0 192 52;" xml:space="preserve">
<style type="text/css">
	.st0{fill:none;stroke:#333333;stroke-width:1.9785;stroke-miterlimit:10;}
	.st1{fill:#333333;}
</style>
<metadata>
	<sfw  xmlns="&ns_sfw;">
		<slices></slices>
		<sliceSourceBounds  bottomLeftOrigin="true" height="51.4" width="190" x="1" y="-51.7"></sliceSourceBounds>
	</sfw>
</metadata>
<path class="st0" d="M165.3,50.7H26.7C13.1,50.7,2,39.6,2,26v0C2,12.4,13.1,1.3,26.7,1.3h138.5C178.9,1.3,190,12.4,190,26v0
	C190,39.6,178.9,50.7,165.3,50.7z"/>
<g>
	<path class="st1" d="M72.3,29.5h-6.1l-1.5,5h-2.8L67.7,17h3.2l5.8,17.5h-2.9L72.3,29.5z M71.6,27.3L71,25c-0.6-1.9-1.1-3.8-1.7-5.8
		h-0.1c-0.5,2-1,3.9-1.6,5.8l-0.7,2.3H71.6z"/>
	<path class="st1" d="M77.6,21.4h2.2l0.2,1.4h0.1c1.1-0.9,2.6-1.8,4-1.8c3.3,0,5.2,2.6,5.2,6.6c0,4.5-2.7,7.1-5.6,7.1
		c-1.2,0-2.3-0.5-3.4-1.5l0.1,2.2v4.2h-2.7V21.4z M86.5,27.8c0-2.7-0.9-4.4-3.1-4.4c-1,0-2,0.5-3.1,1.6v6.4c1,0.9,2,1.2,2.9,1.2
		C85,32.5,86.5,30.8,86.5,27.8z"/>
	<path class="st1" d="M91.4,21.4h2.2l0.2,1.4h0.1c1.1-0.9,2.6-1.8,4-1.8c3.3,0,5.2,2.6,5.2,6.6c0,4.5-2.7,7.1-5.6,7.1
		c-1.2,0-2.3-0.5-3.4-1.5l0.1,2.2v4.2h-2.7V21.4z M100.2,27.8c0-2.7-0.9-4.4-3.1-4.4c-1,0-2,0.5-3.1,1.6v6.4c1,0.9,2,1.2,2.8,1.2
		C98.8,32.5,100.2,30.8,100.2,27.8z"/>
	<path class="st1" d="M108.3,32.2l1.6-1.9c1.3,1.3,3,2.1,4.7,2.1c2.1,0,3.3-1,3.3-2.5c0-1.6-1.2-2.1-2.8-2.8l-2.4-1
		c-1.7-0.7-3.6-2-3.6-4.6c0-2.8,2.4-4.8,5.7-4.8c2,0,4,0.9,5.3,2.2l-1.4,1.8c-1.1-1-2.3-1.6-3.8-1.6c-1.8,0-2.9,0.9-2.9,2.3
		c0,1.5,1.4,2.1,2.8,2.6l2.4,1c2.1,0.9,3.6,2.2,3.6,4.7c0,2.8-2.3,5.1-6.2,5.1C112.1,34.8,109.9,33.8,108.3,32.2z"/>
	<path class="st1" d="M122.3,30.2v-6.6h-1.9v-2l2-0.1l0.3-3.6h2.3v3.6h3.4v2.2H125v6.6c0,1.6,0.5,2.4,1.9,2.4c0.5,0,1-0.1,1.4-0.3
		l0.5,2c-0.7,0.2-1.6,0.5-2.6,0.5C123.3,34.8,122.3,32.9,122.3,30.2z"/>
	<path class="st1" d="M128.8,28c0-4.4,2.9-6.9,6.2-6.9c3.2,0,6.2,2.5,6.2,6.9c0,4.3-2.9,6.8-6.2,6.8C131.7,34.8,128.8,32.3,128.8,28
		z M138.3,28c0-2.8-1.3-4.6-3.3-4.6c-2,0-3.3,1.9-3.3,4.6c0,2.8,1.3,4.6,3.3,4.6C137,32.5,138.3,30.7,138.3,28z"/>
	<path class="st1" d="M143.1,21.4h2.2l0.2,2.3h0.1c0.9-1.7,2.3-2.7,3.7-2.7c0.6,0,1.1,0.1,1.5,0.3l-0.5,2.4
		c-0.5-0.1-0.8-0.2-1.3-0.2c-1.1,0-2.4,0.7-3.2,2.8v8.1h-2.7V21.4z"/>
	<path class="st1" d="M150.4,28c0-4.2,2.9-6.9,6-6.9c3.5,0,5.3,2.5,5.3,6.2c0,0.5,0,1.1-0.1,1.4h-8.5c0.2,2.5,1.8,4,4,4
		c1.2,0,2.2-0.4,3.1-1l0.9,1.7c-1.2,0.8-2.7,1.4-4.4,1.4C153.2,34.8,150.4,32.3,150.4,28z M159.3,26.8c0-2.3-1-3.6-2.9-3.6
		c-1.6,0-3.1,1.3-3.3,3.6H159.3z"/>
</g>
<path class="st1" d="M43.2,14.9c1.2-1.3,1.7-3.1,1.6-4.8c-1.8,0.1-3.4,1-4.6,2.3c-1.1,1.3-1.7,3-1.5,4.7
	C40.5,17.1,42.1,16.3,43.2,14.9z M47,26.2c0-2.4,1.3-4.6,3.3-5.8c-1.3-1.8-3.3-3-5.6-3c-2.4-0.2-4.6,1.4-5.8,1.4c-1.3,0-3-1.4-5-1.3
	c-2.6,0.1-5,1.5-6.3,3.8c-2.7,4.6-0.7,11.6,2,15.3c1.2,1.8,2.7,3.9,4.7,3.8c2-0.1,2.7-1.2,5-1.2c2.3,0,3,1.2,5,1.2
	c2,0,3.4-1.9,4.6-3.7c0.9-1.3,1.6-2.8,2.1-4.3C48.7,31.3,47.1,28.9,47,26.2z"/>
</svg>
