<?xml version="1.0" encoding="utf-8"?>
<!-- Generator: Adobe Illustrator 23.0.3, SVG Export Plug-In . SVG Version: 6.00 Build 0)  -->
<!DOCTYPE svg PUBLIC "-//W3C//DTD SVG 1.1//EN" "http://www.w3.org/Graphics/SVG/1.1/DTD/svg11.dtd" [
	<!ENTITY ns_extend "http://ns.adobe.com/Extensibility/1.0/">
	<!ENTITY ns_ai "http://ns.adobe.com/AdobeIllustrator/10.0/">
	<!ENTITY ns_graphs "http://ns.adobe.com/Graphs/1.0/">
	<!ENTITY ns_vars "http://ns.adobe.com/Variables/1.0/">
	<!ENTITY ns_imrep "http://ns.adobe.com/ImageReplacement/1.0/">
	<!ENTITY ns_sfw "http://ns.adobe.com/SaveForWeb/1.0/">
	<!ENTITY ns_custom "http://ns.adobe.com/GenericCustomNamespace/1.0/">
	<!ENTITY ns_adobe_xpath "http://ns.adobe.com/XPath/1.0/">
]>
<svg version="1.1" id="Layer_1" xmlns:x="&ns_extend;" xmlns:i="&ns_ai;" xmlns:graph="&ns_graphs;"
	 xmlns="http://www.w3.org/2000/svg" xmlns:xlink="http://www.w3.org/1999/xlink" x="0px" y="0px" width="48px" height="48px"
	 viewBox="0 0 48 48" style="enable-background:new 0 0 48 48;" xml:space="preserve">
<style type="text/css">
	.st0{fill:#F8A48E;stroke:#F8A48E;stroke-miterlimit:10;}
</style>
<metadata>
	<sfw  xmlns="&ns_sfw;">
		<slices></slices>
		<sliceSourceBounds  bottomLeftOrigin="true" height="38.9" width="45" x="1.5" y="-41.5"></sliceSourceBounds>
	</sfw>
</metadata>
<path class="st0" d="M42.3,26.3v-1.2v-0.8V18c0-3.2-2.6-5.8-5.8-5.8c-3.2,0-5.8,2.6-5.8,5.8v5.8c-1.1-1.3-2.4-2.4-4-3.2
	c-0.6-0.3-1.2-0.5-1.8-0.7c2.2-1.3,3.7-3.7,3.7-6.4V7.9c0-2.6-2.1-4.8-4.8-4.8h-9.4c-0.5,0-0.8,0.4-0.8,0.8v9.5
	c0,2.7,1.5,5.1,3.7,6.4c-0.6,0.2-1.2,0.4-1.8,0.7c-0.6,0.3-1.1,0.6-1.6,1c-0.2-1.5-1.5-2.6-3-2.6H5.6c-0.5,0-0.8,0.4-0.8,0.8v5.3
	c0,1.4,0.7,2.7,1.7,3.5c-0.1,0.1-0.3,0.1-0.4,0.2C3.6,30.1,2,32.6,2,35.5v4.7C2,40.6,2.4,41,2.8,41s0.8-0.4,0.8-0.8v-4.7
	c0-2.2,1.2-4.1,3.2-5.1c1.6-0.8,3.5-0.8,5.1,0c2,1,3.2,2.9,3.2,5.1v4.7c0,0.5,0.4,0.8,0.8,0.8c0.5,0,0.8-0.4,0.8-0.8v-4.7
	c0-2.8-1.6-5.4-4.1-6.6c-0.1-0.1-0.3-0.1-0.4-0.2c1-0.8,1.7-2.1,1.7-3.5v-1.5c0.7-0.6,1.4-1.2,2.3-1.6c3-1.5,6.6-1.5,9.6,0
	c2,1,3.5,2.5,4.6,4.4c-2.2,1.8-3.5,4.5-3.5,7.4v6.3c0,0.5,0.4,0.8,0.8,0.8c0.5,0,0.8-0.4,0.8-0.8v-6.3c0-3,1.7-5.7,4.4-7.1
	c2.2-1.1,4.8-1.1,7,0c2.7,1.3,4.4,4.1,4.4,7.1v6.3c0,0.5,0.4,0.8,0.8,0.8s0.8-0.4,0.8-0.8v-6.3C46,30.9,44.6,28.1,42.3,26.3z
	 M12.3,25.2c0,1.6-1.3,2.9-2.9,2.9c-1.6,0-2.9-1.3-2.9-2.9v-4.5h4.4c0.8,0,1.4,0.6,1.4,1.4V25.2z M21,19.3c-3.2,0-5.8-2.6-5.8-5.8
	V4.8h8.5c1.7,0,3.1,1.4,3.1,3.1v5.6C26.9,16.7,24.2,19.3,21,19.3z M32.3,24.3V18c0-2.3,1.9-4.2,4.2-4.2s4.2,1.9,4.2,4.2v6.3H32.3z"
	/>
</svg>
