<?xml version="1.0" encoding="utf-8"?>
<!-- Generator: Adobe Illustrator 23.0.3, SVG Export Plug-In . SVG Version: 6.00 Build 0)  -->
<!DOCTYPE svg PUBLIC "-//W3C//DTD SVG 1.1//EN" "http://www.w3.org/Graphics/SVG/1.1/DTD/svg11.dtd" [
	<!ENTITY ns_extend "http://ns.adobe.com/Extensibility/1.0/">
	<!ENTITY ns_ai "http://ns.adobe.com/AdobeIllustrator/10.0/">
	<!ENTITY ns_graphs "http://ns.adobe.com/Graphs/1.0/">
	<!ENTITY ns_vars "http://ns.adobe.com/Variables/1.0/">
	<!ENTITY ns_imrep "http://ns.adobe.com/ImageReplacement/1.0/">
	<!ENTITY ns_sfw "http://ns.adobe.com/SaveForWeb/1.0/">
	<!ENTITY ns_custom "http://ns.adobe.com/GenericCustomNamespace/1.0/">
	<!ENTITY ns_adobe_xpath "http://ns.adobe.com/XPath/1.0/">
]>
<svg version="1.1" id="Layer_1" xmlns:x="&ns_extend;" xmlns:i="&ns_ai;" xmlns:graph="&ns_graphs;"
	 xmlns="http://www.w3.org/2000/svg" xmlns:xlink="http://www.w3.org/1999/xlink" x="0px" y="0px" width="64px" height="64px"
	 viewBox="0 0 64 64" style="enable-background:new 0 0 64 64;" xml:space="preserve">
<style type="text/css">
	.st0{fill:#FFFFFF;}
</style>
<metadata>
	<sfw  xmlns="&ns_sfw;">
		<slices></slices>
		<sliceSourceBounds  bottomLeftOrigin="true" height="43.4" width="54" x="5.2" y="10.1"></sliceSourceBounds>
	</sfw>
</metadata>
<g>
	<path class="st0" d="M59.2,26.8V15.9c0-3-2.4-5.4-5.4-5.4H10.6c-3,0-5.4,2.4-5.4,5.4v10.9c3,0,5.4,2.4,5.4,5.4s-2.4,5.4-5.4,5.4
		v10.9c0,3,2.4,5.4,5.4,5.4h43.1c3,0,5.4-2.4,5.4-5.4v-11c-3,0-5.4-2.4-5.4-5.4C54,29.2,56.2,26.8,59.2,26.8z M56.4,24.3
		C53.2,26.2,51,28.1,51,32s2.3,6,5.4,7.9V50h-48v-9.9C11.6,38.2,14,36,14,32c0-3.9-2.2-5.8-5.6-7.5V14h48V24.3z M18.9,40.3h1.7v5.4
		h-1.7V40.3z M18.9,29.4h1.7v5.4h-1.7V29.4z M18.9,18.7h1.7v5.4h-1.7V18.7z"/>
	<g>
		<path class="st0" d="M24.3,28.8c0-3.2,1.9-5.1,4.5-5.1s4.5,1.9,4.5,5.1S31.4,34,28.8,34C26.2,34.1,24.3,32,24.3,28.8z M30.3,28.8
			c0-2.3-0.8-3-1.5-3c-0.9,0-1.5,0.7-1.5,3s0.8,3,1.5,3C29.6,31.8,30.3,31.1,30.3,28.8z M39.1,23.8h2.4l-9.8,16.7h-2.4L39.1,23.8z
			 M37.6,35.4c0-3.2,1.9-5.1,4.5-5.1s4.5,1.9,4.5,5.1s-1.9,5.2-4.5,5.2S37.6,38.6,37.6,35.4z M43.6,35.4c0-2.3-0.8-3-1.5-3
			s-1.5,0.8-1.5,3c0,2.3,0.7,3,1.5,3S43.6,37.6,43.6,35.4z"/>
	</g>
</g>
</svg>
