<svg xmlns="http://www.w3.org/2000/svg" viewBox="0 0 85 85" enable-background="new 0 0 85 85"><path fill="#fff" d="M46.7 1.4l-.5-.3c-.2-.1-.4-.2-.5-.3l-.3-.1c-.1 0-.1 0-.2-.1l-.6-.2-.5-.1-.6-.1-.5-.1h-1.1c-.2 0-.4 0-.6.1-.2 0-.3 0-.5.1-.2 0-.4.1-.6.2-.1 0-.3.1-.5.1-.1 0-.1 0-.2.1-.1 0-.2.1-.4.2.2 0 0 .1-.1.1-.2.1-.4.2-.5.3l-.4.3-.5.4-.2.2-34.9 34.9c-2.9 2.9-2.9 7.6 0 10.5 2.9 2.9 7.6 2.9 10.5 0l22.1-22.1v52.1c0 2.6 1.3 4.8 3.3 6.2 1.2.8 2.6 1.3 4.2 1.3 2.1 0 3.9-.8 5.3-2.2 1.3-1.3 2.2-3.2 2.2-5.3v-52.1l22.1 22.1c2.9 2.9 7.6 2.9 10.5 0 1.5-1.5 2.2-3.4 2.2-5.3s-.7-3.8-2.2-5.3l-34.8-34.7c-.1-.1-.2-.1-.2-.2-.1-.1-.3-.3-.5-.4-.2-.2-.3-.2-.5-.3z"/></svg>