<?xml version="1.0" encoding="utf-8"?>
<!-- Generator: Adobe Illustrator 23.0.3, SVG Export Plug-In . SVG Version: 6.00 Build 0)  -->
<!DOCTYPE svg PUBLIC "-//W3C//DTD SVG 1.1//EN" "http://www.w3.org/Graphics/SVG/1.1/DTD/svg11.dtd" [
	<!ENTITY ns_extend "http://ns.adobe.com/Extensibility/1.0/">
	<!ENTITY ns_ai "http://ns.adobe.com/AdobeIllustrator/10.0/">
	<!ENTITY ns_graphs "http://ns.adobe.com/Graphs/1.0/">
	<!ENTITY ns_vars "http://ns.adobe.com/Variables/1.0/">
	<!ENTITY ns_imrep "http://ns.adobe.com/ImageReplacement/1.0/">
	<!ENTITY ns_sfw "http://ns.adobe.com/SaveForWeb/1.0/">
	<!ENTITY ns_custom "http://ns.adobe.com/GenericCustomNamespace/1.0/">
	<!ENTITY ns_adobe_xpath "http://ns.adobe.com/XPath/1.0/">
]>
<svg version="1.1" id="Layer_1" xmlns:x="&ns_extend;" xmlns:i="&ns_ai;" xmlns:graph="&ns_graphs;"
	 xmlns="http://www.w3.org/2000/svg" xmlns:xlink="http://www.w3.org/1999/xlink" x="0px" y="0px" width="64px" height="64px"
	 viewBox="0 0 64 64" style="enable-background:new 0 0 64 64;" xml:space="preserve">
<style type="text/css">
	.st0{fill:#FFFFFF;}
</style>
<metadata>
	<sfw  xmlns="&ns_sfw;">
		<slices></slices>
		<sliceSourceBounds  bottomLeftOrigin="true" height="54" width="47.2" x="8.7" y="5"></sliceSourceBounds>
	</sfw>
</metadata>
<g>
	<g>
		<path class="st0" d="M32.3,5C19.3,5,8.7,15.6,8.7,28.6s10.6,23.6,23.6,23.6s23.6-10.6,23.6-23.6C56.1,15.6,45.5,5,32.3,5L32.3,5z
			 M32.3,48.8c-11.2,0-20.2-9-20.2-20.2s9-20.2,20.2-20.2s20.2,9,20.2,20.2C52.7,39.8,43.5,48.8,32.3,48.8L32.3,48.8z M32.3,27
			c-4.6,0-8.4,3.8-8.4,8.4s3.8,8.4,8.4,8.4s8.4-3.8,8.4-8.4C40.9,30.8,37.1,27,32.3,27L32.3,27z M32.3,40.6c-2.8,0-5.2-2.2-5.2-5.2
			c0-2.8,2.2-5.2,5.2-5.2c2.8,0,5.2,2.2,5.2,5.2C37.5,38.2,35.3,40.6,32.3,40.6L32.3,40.6z M22.7,47.6c-0.8-0.6-1.8-0.4-2.4,0.4
			l-6.4,8.4c-0.4,0.6-0.2,1.6,0.6,2.2c0.4,0.2,0.6,0.4,1,0.4c0.6,0,1-0.2,1.4-0.6l6.4-8.4C23.7,49.2,23.5,48.2,22.7,47.6L22.7,47.6z
			 M50.7,56.2l-6.4-8.4c-0.6-0.8-1.6-0.8-2.4-0.4c-0.8,0.6-0.8,1.6-0.4,2.4l6.4,8.4c0.4,0.4,0.8,0.6,1.4,0.6c0.4,0,0.8-0.2,1-0.4
			C51.1,58,51.3,57,50.7,56.2L50.7,56.2z M52.7,55.6H12.1c-1,0-1.6,0.8-1.6,1.6c0,1,0.8,1.6,1.6,1.6h40.4c1,0,1.6-0.8,1.6-1.6
			C54.3,56.4,53.5,55.6,52.7,55.6L52.7,55.6z"/>
		<circle class="st0" cx="32.3" cy="18" r="1.8"/>
	</g>
</g>
</svg>
