<?xml version="1.0" encoding="utf-8"?>
<!-- Generator: Adobe Illustrator 23.0.3, SVG Export Plug-In . SVG Version: 6.00 Build 0)  -->
<!DOCTYPE svg PUBLIC "-//W3C//DTD SVG 1.1//EN" "http://www.w3.org/Graphics/SVG/1.1/DTD/svg11.dtd" [
	<!ENTITY ns_extend "http://ns.adobe.com/Extensibility/1.0/">
	<!ENTITY ns_ai "http://ns.adobe.com/AdobeIllustrator/10.0/">
	<!ENTITY ns_graphs "http://ns.adobe.com/Graphs/1.0/">
	<!ENTITY ns_vars "http://ns.adobe.com/Variables/1.0/">
	<!ENTITY ns_imrep "http://ns.adobe.com/ImageReplacement/1.0/">
	<!ENTITY ns_sfw "http://ns.adobe.com/SaveForWeb/1.0/">
	<!ENTITY ns_custom "http://ns.adobe.com/GenericCustomNamespace/1.0/">
	<!ENTITY ns_adobe_xpath "http://ns.adobe.com/XPath/1.0/">
]>
<svg version="1.1" id="Layer_1" xmlns:x="&ns_extend;" xmlns:i="&ns_ai;" xmlns:graph="&ns_graphs;"
	 xmlns="http://www.w3.org/2000/svg" xmlns:xlink="http://www.w3.org/1999/xlink" x="0px" y="0px" width="24px" height="24px"
	 viewBox="0 0 24 24" style="enable-background:new 0 0 24 24;" xml:space="preserve">
<style type="text/css">
	.st0{fill:#999999;}
</style>
<metadata>
	<sfw  xmlns="&ns_sfw;">
		<slices></slices>
		<sliceSourceBounds  bottomLeftOrigin="true" height="16.9" width="20" x="6.5" y="7.3"></sliceSourceBounds>
	</sfw>
</metadata>
<g>
	<path class="st0" d="M20.5,3.8H4.5c-1.1,0-2,0.9-2,2v13.9c0,0.4,0.3,0.8,0.6,1c0.1,0.1,0.3,0.1,0.4,0.1c0.3,0,0.5-0.1,0.7-0.3
		l2.8-2.8h13.5c1.1,0,2-0.9,2-2V5.8C22.5,4.7,21.6,3.8,20.5,3.8z M21.1,15.7c0,0.3-0.3,0.6-0.6,0.6H7c-0.4,0-0.7,0.1-1,0.4l-2.2,2.2
		V5.8c0-0.3,0.3-0.6,0.6-0.6h16.1c0.3,0,0.6,0.3,0.6,0.6V15.7z"/>
	<path class="st0" d="M16.8,8.3h-3.5H8.2C7.8,8.3,7.5,8.7,7.5,9c0,0.4,0.3,0.7,0.7,0.7h5.1h3.5c0.4,0,0.7-0.3,0.7-0.7
		C17.5,8.7,17.2,8.3,16.8,8.3z"/>
	<path class="st0" d="M13.3,11.8H8.2c-0.4,0-0.7,0.3-0.7,0.7c0,0.4,0.3,0.7,0.7,0.7h5.1c0.4,0,0.7-0.3,0.7-0.7
		C14,12.2,13.7,11.8,13.3,11.8z"/>
</g>
</svg>
