<?xml version="1.0" encoding="utf-8"?>
<!-- Generator: Adobe Illustrator 23.0.3, SVG Export Plug-In . SVG Version: 6.00 Build 0)  -->
<!DOCTYPE svg PUBLIC "-//W3C//DTD SVG 1.1//EN" "http://www.w3.org/Graphics/SVG/1.1/DTD/svg11.dtd" [
	<!ENTITY ns_extend "http://ns.adobe.com/Extensibility/1.0/">
	<!ENTITY ns_ai "http://ns.adobe.com/AdobeIllustrator/10.0/">
	<!ENTITY ns_graphs "http://ns.adobe.com/Graphs/1.0/">
	<!ENTITY ns_vars "http://ns.adobe.com/Variables/1.0/">
	<!ENTITY ns_imrep "http://ns.adobe.com/ImageReplacement/1.0/">
	<!ENTITY ns_sfw "http://ns.adobe.com/SaveForWeb/1.0/">
	<!ENTITY ns_custom "http://ns.adobe.com/GenericCustomNamespace/1.0/">
	<!ENTITY ns_adobe_xpath "http://ns.adobe.com/XPath/1.0/">
]>
<svg version="1.1" id="Layer_1" xmlns:x="&ns_extend;" xmlns:i="&ns_ai;" xmlns:graph="&ns_graphs;"
	 xmlns="http://www.w3.org/2000/svg" xmlns:xlink="http://www.w3.org/1999/xlink" x="0px" y="0px" width="74px" height="74px"
	 viewBox="0 0 74 74" style="enable-background:new 0 0 74 74;" xml:space="preserve">
<style type="text/css">
	.st0{fill:#E96947;}
	.st1{fill:#FFFFFF;}
</style>
<metadata>
	<sfw  xmlns="&ns_sfw;">
		<slices></slices>
		<sliceSourceBounds  bottomLeftOrigin="true" height="68.9" width="70" x="-3" y="-2.5"></sliceSourceBounds>
	</sfw>
</metadata>
<path class="st0" d="M44.5,2.5H29.5C14.3,2.5,2,14.9,2,30c0,12.7,8.7,23.7,20.9,26.7v11.7c0,1.3,0.8,2.4,1.9,2.9
	c0.4,0.2,0.8,0.2,1.2,0.2c0.8,0,1.6-0.3,2.2-1l12.4-13h3.9C59.7,57.5,72,45.1,72,30C72,14.9,59.7,2.5,44.5,2.5z"/>
<path class="st1" d="M49.2,39.9H24.8c-1.1,0-2,0.9-2,2c0,1.1,0.9,2,2,2h24.4c1.1,0,2-0.9,2-2C51.1,40.7,50.3,39.9,49.2,39.9z"/>
<path class="st1" d="M49.2,16.3H24.8c-1.1,0-2,0.9-2,2c0,1.1,0.9,2,2,2h24.4c1.1,0,2-0.9,2-2C51.1,17.2,50.3,16.3,49.2,16.3z"/>
<path class="st1" d="M39.2,28.1H24.8c-1.1,0-2,0.9-2,2c0,1.1,0.9,2,2,2h14.4c1.1,0,2-0.9,2-2C41.2,29,40.3,28.1,39.2,28.1z"/>
</svg>
