<?xml version="1.0" encoding="utf-8"?>
<!-- Generator: Adobe Illustrator 23.0.3, SVG Export Plug-In . SVG Version: 6.00 Build 0)  -->
<!DOCTYPE svg PUBLIC "-//W3C//DTD SVG 1.1//EN" "http://www.w3.org/Graphics/SVG/1.1/DTD/svg11.dtd" [
	<!ENTITY ns_extend "http://ns.adobe.com/Extensibility/1.0/">
	<!ENTITY ns_ai "http://ns.adobe.com/AdobeIllustrator/10.0/">
	<!ENTITY ns_graphs "http://ns.adobe.com/Graphs/1.0/">
	<!ENTITY ns_vars "http://ns.adobe.com/Variables/1.0/">
	<!ENTITY ns_imrep "http://ns.adobe.com/ImageReplacement/1.0/">
	<!ENTITY ns_sfw "http://ns.adobe.com/SaveForWeb/1.0/">
	<!ENTITY ns_custom "http://ns.adobe.com/GenericCustomNamespace/1.0/">
	<!ENTITY ns_adobe_xpath "http://ns.adobe.com/XPath/1.0/">
]>
<svg version="1.1" id="Layer_1" xmlns:x="&ns_extend;" xmlns:i="&ns_ai;" xmlns:graph="&ns_graphs;"
	 xmlns="http://www.w3.org/2000/svg" xmlns:xlink="http://www.w3.org/1999/xlink" x="0px" y="0px" width="64px" height="64px"
	 viewBox="0 0 64 64" style="enable-background:new 0 0 64 64;" xml:space="preserve">
<style type="text/css">
	.st0{fill:#FFFFFF;}
</style>
<metadata>
	<sfw  xmlns="&ns_sfw;">
		<slices></slices>
		<sliceSourceBounds  bottomLeftOrigin="true" height="54.3" width="45.3" x="8.8" y="-59"></sliceSourceBounds>
	</sfw>
</metadata>
<g id="Layer_1_1_">
	<path class="st0" d="M31.4,24.9c5.6,0,10.1-4.5,10.1-10.1S37.1,4.8,31.4,4.8S21.4,9.2,21.4,14.8S25.8,24.9,31.4,24.9z M31.2,8.2
		c3.7,0,6.6,2.9,6.6,6.6s-2.9,6.6-6.6,6.6s-6.6-2.9-6.6-6.6S27.8,8.2,31.2,8.2z M31.4,31.3c-6-5.4-14-8.9-22.7-8.9v27.7
		c8.7,0,16.7,3.5,22.7,8.9c6-5.4,14-8.9,22.7-8.9V22.4C45.4,22.4,37.4,25.9,31.4,31.3z M51,47c-6.4,0.8-14.3,3.3-19.6,7.2
		C26.2,50.3,18.3,48,11.9,47V26.3c5.2,1,12,3.5,16.1,7.2l3.5,3.3l3.5-3.3c4.1-3.7,10.9-6.2,16.1-7.2L51,47z"/>
</g>
</svg>
