<?xml version="1.0" encoding="utf-8"?>
<!-- Generator: Adobe Illustrator 23.0.3, SVG Export Plug-In . SVG Version: 6.00 Build 0)  -->
<!DOCTYPE svg PUBLIC "-//W3C//DTD SVG 1.1//EN" "http://www.w3.org/Graphics/SVG/1.1/DTD/svg11.dtd" [
	<!ENTITY ns_extend "http://ns.adobe.com/Extensibility/1.0/">
	<!ENTITY ns_ai "http://ns.adobe.com/AdobeIllustrator/10.0/">
	<!ENTITY ns_graphs "http://ns.adobe.com/Graphs/1.0/">
	<!ENTITY ns_vars "http://ns.adobe.com/Variables/1.0/">
	<!ENTITY ns_imrep "http://ns.adobe.com/ImageReplacement/1.0/">
	<!ENTITY ns_sfw "http://ns.adobe.com/SaveForWeb/1.0/">
	<!ENTITY ns_custom "http://ns.adobe.com/GenericCustomNamespace/1.0/">
	<!ENTITY ns_adobe_xpath "http://ns.adobe.com/XPath/1.0/">
]>
<svg version="1.1" id="Layer_1" xmlns:x="&ns_extend;" xmlns:i="&ns_ai;" xmlns:graph="&ns_graphs;"
	 xmlns="http://www.w3.org/2000/svg" xmlns:xlink="http://www.w3.org/1999/xlink" x="0px" y="0px" width="64px" height="64px"
	 viewBox="0 0 64 64" style="enable-background:new 0 0 64 64;" xml:space="preserve">
<style type="text/css">
	.st0{fill:#F8A48E;}
</style>
<metadata>
	<sfw  xmlns="&ns_sfw;">
		<slices></slices>
		<sliceSourceBounds  bottomLeftOrigin="true" height="52" width="55" x="4.6" y="-58"></sliceSourceBounds>
	</sfw>
</metadata>
<g>
	<path class="st0" d="M59.6,31.9l-6.1-6.9l0.8-9.1l-9.1-2l-4.7-7.9l-8.5,3.6l-8.5-3.6L19,13.8l-9.1,2l0.8,9.1l-6.1,6.9l6.1,6.9
		l-0.8,9.5l9.1,2l4.7,7.9l8.5-3.6l8.5,3.6l4.7-7.9l9.1-2L53.5,39L59.6,31.9z M50.1,37.4l0.4,7.7l-7.3,1.6l-4,6.5l-7.1-3L24.8,53
		L21,47.1l-7.3-1.6l0.8-8.7l-4.7-5.3l4.7-5.3l-0.8-8.1l7.5-1l4-6.5l7.1,2.8l6.5-2.8l5.1,5.7l6.9,1.6l-0.6,6.9l4.9,7.1L50.1,37.4z"/>
	<rect x="30.7" y="39.4" class="st0" width="3" height="5.1"/>
	<rect x="30.7" y="19.4" class="st0" width="3" height="15"/>
</g>
</svg>
