<?xml version="1.0" encoding="utf-8"?>
<!-- Generator: Adobe Illustrator 23.0.3, SVG Export Plug-In . SVG Version: 6.00 Build 0)  -->
<!DOCTYPE svg PUBLIC "-//W3C//DTD SVG 1.1//EN" "http://www.w3.org/Graphics/SVG/1.1/DTD/svg11.dtd" [
	<!ENTITY ns_extend "http://ns.adobe.com/Extensibility/1.0/">
	<!ENTITY ns_ai "http://ns.adobe.com/AdobeIllustrator/10.0/">
	<!ENTITY ns_graphs "http://ns.adobe.com/Graphs/1.0/">
	<!ENTITY ns_vars "http://ns.adobe.com/Variables/1.0/">
	<!ENTITY ns_imrep "http://ns.adobe.com/ImageReplacement/1.0/">
	<!ENTITY ns_sfw "http://ns.adobe.com/SaveForWeb/1.0/">
	<!ENTITY ns_custom "http://ns.adobe.com/GenericCustomNamespace/1.0/">
	<!ENTITY ns_adobe_xpath "http://ns.adobe.com/XPath/1.0/">
]>
<svg version="1.1" id="Layer_1" xmlns:x="&ns_extend;" xmlns:i="&ns_ai;" xmlns:graph="&ns_graphs;"
	 xmlns="http://www.w3.org/2000/svg" xmlns:xlink="http://www.w3.org/1999/xlink" x="0px" y="0px" width="74px" height="74px"
	 viewBox="0 0 74 74" style="enable-background:new 0 0 74 74;" xml:space="preserve">
<style type="text/css">
	.st0{fill:#E96947;}
	.st1{fill:#FFFFFF;}
</style>
<metadata>
	<sfw  xmlns="&ns_sfw;">
		<slices></slices>
		<sliceSourceBounds  bottomLeftOrigin="true" height="61.8" width="61.8" x="1.3" y="1.2"></sliceSourceBounds>
	</sfw>
</metadata>
<circle class="st0" cx="37.1" cy="36.9" r="30.9"/>
<g>
	<path class="st1" d="M25.5,26.4c1.2,0,2.4,0.2,3.5,0.5c1.1,0.4,2.1,0.9,2.9,1.6c0.8,0.8,1.5,1.7,2,2.9s0.7,2.6,0.7,4.3v3.6
		c0,1.7-0.2,3.1-0.7,4.3c-0.5,1.2-1.2,2.2-2,2.9c-0.8,0.7-1.8,1.3-2.9,1.6c-1.1,0.3-2.3,0.5-3.5,0.5s-2.4-0.2-3.5-0.5
		c-1.1-0.3-2.1-0.9-2.9-1.6s-1.5-1.7-2-2.9c-0.5-1.2-0.7-2.6-0.7-4.3v-3.6c0-1.7,0.2-3.1,0.7-4.3s1.2-2.1,2-2.9
		c0.8-0.8,1.8-1.3,2.9-1.6C23.1,26.6,24.2,26.4,25.5,26.4z M25.5,45.2c0.7,0,1.4-0.1,2.1-0.3c0.6-0.2,1.2-0.5,1.7-1
		c0.5-0.5,0.9-1.1,1.1-2c0.3-0.8,0.4-1.8,0.4-3.1v-2.6c0-1.2-0.1-2.3-0.4-3.1c-0.3-0.8-0.6-1.5-1.1-1.9c-0.5-0.5-1-0.8-1.7-1
		c-0.6-0.2-1.3-0.3-2.1-0.3c-0.7,0-1.4,0.1-2,0.3c-0.6,0.2-1.2,0.5-1.7,1c-0.5,0.5-0.9,1.1-1.1,1.9c-0.3,0.8-0.4,1.9-0.4,3.1v2.6
		c0,1.2,0.1,2.3,0.4,3.1c0.3,0.8,0.7,1.5,1.1,2c0.5,0.5,1,0.8,1.7,1C24.1,45.1,24.7,45.2,25.5,45.2z"/>
	<path class="st1" d="M38.7,26.7h4.4l7.4,13.1c0.2,0.4,0.5,0.9,0.7,1.5c0.3,0.6,0.5,1.2,0.6,1.9V26.7h3.6v21.6H51l-7.4-13.1
		c-0.3-0.5-0.5-1-0.8-1.6c-0.2-0.6-0.4-1.1-0.6-1.8v16.5h-3.6V26.7z"/>
</g>
</svg>
