<?xml version="1.0" encoding="utf-8"?>
<!-- Generator: Adobe Illustrator 23.0.3, SVG Export Plug-In . SVG Version: 6.00 Build 0)  -->
<!DOCTYPE svg PUBLIC "-//W3C//DTD SVG 1.1//EN" "http://www.w3.org/Graphics/SVG/1.1/DTD/svg11.dtd" [
	<!ENTITY ns_extend "http://ns.adobe.com/Extensibility/1.0/">
	<!ENTITY ns_ai "http://ns.adobe.com/AdobeIllustrator/10.0/">
	<!ENTITY ns_graphs "http://ns.adobe.com/Graphs/1.0/">
	<!ENTITY ns_vars "http://ns.adobe.com/Variables/1.0/">
	<!ENTITY ns_imrep "http://ns.adobe.com/ImageReplacement/1.0/">
	<!ENTITY ns_sfw "http://ns.adobe.com/SaveForWeb/1.0/">
	<!ENTITY ns_custom "http://ns.adobe.com/GenericCustomNamespace/1.0/">
	<!ENTITY ns_adobe_xpath "http://ns.adobe.com/XPath/1.0/">
]>
<svg version="1.1" id="Layer_1" xmlns:x="&ns_extend;" xmlns:i="&ns_ai;" xmlns:graph="&ns_graphs;"
	 xmlns="http://www.w3.org/2000/svg" xmlns:xlink="http://www.w3.org/1999/xlink" x="0px" y="0px" width="64px" height="64px"
	 viewBox="0 0 64 64" style="enable-background:new 0 0 64 64;" xml:space="preserve">
<style type="text/css">
	.st0{fill:#F8A48E;}
</style>
<metadata>
	<sfw  xmlns="&ns_sfw;">
		<slices></slices>
		<sliceSourceBounds  bottomLeftOrigin="true" height="53" width="44.3" x="9.5" y="-58.9"></sliceSourceBounds>
	</sfw>
</metadata>
<g>
	<path class="st0" d="M31.7,25.5c5.5,0,9.8-4.4,9.8-9.8s-4.4-9.8-9.8-9.8s-9.8,4.4-9.8,9.8S26.2,25.5,31.7,25.5z M31.5,9.3
		c3.6,0,6.4,2.8,6.4,6.4s-2.8,6.4-6.4,6.4S25,19.3,25,15.7S28.1,9.3,31.5,9.3z M31.7,31.8c-5.9-5.3-13.6-8.7-22.1-8.7v27.1
		c8.5,0,16.3,3.4,22.1,8.7c5.9-5.3,13.6-8.7,22.1-8.7V23.1C45.3,23.1,37.5,26.5,31.7,31.8z M50.8,47.1c-6.2,0.8-14,3.2-19.1,7
		c-5.1-3.8-12.9-6.1-19.1-7V26.9c5.1,0.9,11.7,3.4,15.7,7l3.4,3.2l3.4-3.2c4-3.6,10.6-6.1,15.7-7C50.8,26.9,50.8,47.1,50.8,47.1z"/>
</g>
</svg>
