<?xml version="1.0" encoding="utf-8"?>
<!-- Generator: Adobe Illustrator 23.0.3, SVG Export Plug-In . SVG Version: 6.00 Build 0)  -->
<!DOCTYPE svg PUBLIC "-//W3C//DTD SVG 1.1//EN" "http://www.w3.org/Graphics/SVG/1.1/DTD/svg11.dtd" [
	<!ENTITY ns_extend "http://ns.adobe.com/Extensibility/1.0/">
	<!ENTITY ns_ai "http://ns.adobe.com/AdobeIllustrator/10.0/">
	<!ENTITY ns_graphs "http://ns.adobe.com/Graphs/1.0/">
	<!ENTITY ns_vars "http://ns.adobe.com/Variables/1.0/">
	<!ENTITY ns_imrep "http://ns.adobe.com/ImageReplacement/1.0/">
	<!ENTITY ns_sfw "http://ns.adobe.com/SaveForWeb/1.0/">
	<!ENTITY ns_custom "http://ns.adobe.com/GenericCustomNamespace/1.0/">
	<!ENTITY ns_adobe_xpath "http://ns.adobe.com/XPath/1.0/">
]>
<svg version="1.1" id="Layer_1" xmlns:x="&ns_extend;" xmlns:i="&ns_ai;" xmlns:graph="&ns_graphs;"
	 xmlns="http://www.w3.org/2000/svg" xmlns:xlink="http://www.w3.org/1999/xlink" x="0px" y="0px" width="32px" height="32px"
	 viewBox="0 0 32 32" style="enable-background:new 0 0 32 32;" xml:space="preserve">
<style type="text/css">
	.st0{fill:#FFFFFF;}
	.st1{font-family:'SourceHanSansKR-Medium-KSCpc-EUC-H';}
	.st2{font-size:11px;}
</style>
<metadata>
	<sfw  xmlns="&ns_sfw;">
		<slices></slices>
		<sliceSourceBounds  bottomLeftOrigin="true" height="41.4" width="24" x="3" y="-38.4"></sliceSourceBounds>
	</sfw>
</metadata>
<text transform="matrix(1 0 0 1 4.8163 26.9209)" class="st0 st1 st2">TOP</text>
<g>
	<defs>
		<path id="SVGID_1_" d="M21,9.8l-5.6-5.6L9.9,9.8C9.7,10,9.3,10,9.1,9.8c-0.2-0.2-0.2-0.5,0-0.7l5.9-6C15.2,3,15.3,3,15.5,3
			c0.1,0,0.3,0,0.4,0.1l5.9,6c0.2,0.2,0.2,0.5,0,0.7C21.6,10,21.2,10,21,9.8L21,9.8z"/>
	</defs>
	<use xlink:href="#SVGID_1_"  style="overflow:visible;fill-rule:evenodd;clip-rule:evenodd;fill:#FFFFFF;"/>
	<clipPath id="SVGID_2_">
		<use xlink:href="#SVGID_1_"  style="overflow:visible;"/>
	</clipPath>
	<g style="clip-path:url(#SVGID_2_);">
		<image style="overflow:visible;" width="24" height="24" xlink:href="C1225BB5.jpg"  transform="matrix(1 0 0 1 2.9708 -3)">
		</image>
	</g>
</g>
</svg>
