<?xml version="1.0" encoding="utf-8"?>
<!-- Generator: Adobe Illustrator 23.0.3, SVG Export Plug-In . SVG Version: 6.00 Build 0)  -->
<!DOCTYPE svg PUBLIC "-//W3C//DTD SVG 1.1//EN" "http://www.w3.org/Graphics/SVG/1.1/DTD/svg11.dtd" [
	<!ENTITY ns_extend "http://ns.adobe.com/Extensibility/1.0/">
	<!ENTITY ns_ai "http://ns.adobe.com/AdobeIllustrator/10.0/">
	<!ENTITY ns_graphs "http://ns.adobe.com/Graphs/1.0/">
	<!ENTITY ns_vars "http://ns.adobe.com/Variables/1.0/">
	<!ENTITY ns_imrep "http://ns.adobe.com/ImageReplacement/1.0/">
	<!ENTITY ns_sfw "http://ns.adobe.com/SaveForWeb/1.0/">
	<!ENTITY ns_custom "http://ns.adobe.com/GenericCustomNamespace/1.0/">
	<!ENTITY ns_adobe_xpath "http://ns.adobe.com/XPath/1.0/">
]>
<svg version="1.1" id="Layer_1" xmlns:x="&ns_extend;" xmlns:i="&ns_ai;" xmlns:graph="&ns_graphs;"
	 xmlns="http://www.w3.org/2000/svg" xmlns:xlink="http://www.w3.org/1999/xlink" x="0px" y="0px" width="48px" height="48px"
	 viewBox="0 0 48 48" style="enable-background:new 0 0 48 48;" xml:space="preserve">
<style type="text/css">
	.st0{fill:none;stroke:#F8A48E;stroke-width:1.8291;stroke-linejoin:round;stroke-miterlimit:10;}
	.st1{fill:none;stroke:#F8A48E;stroke-width:1.8291;stroke-miterlimit:10;}
	.st2{fill:#F8A48E;}
</style>
<metadata>
	<sfw  xmlns="&ns_sfw;">
		<slices></slices>
		<sliceSourceBounds  bottomLeftOrigin="true" height="44" width="30.3" x="9.4" y="-46.5"></sliceSourceBounds>
	</sfw>
</metadata>
<g>
	<g>
		<polyline class="st0" points="23.9,31.9 19.2,45.6 16.1,40.6 10.5,42.3 14.9,29.3 		"/>
		<polyline class="st0" points="24.7,31.7 29.5,45.6 32.6,40.6 38.2,42.3 33.9,29.9 		"/>
		<path class="st0" d="M38,23.8L36.8,20l2.1-3.4l-2.8-2.8l0.3-4l-3.7-1.1l-1.5-3.7L27.5,6l-2.9-2.6L21.7,6l-3.7-0.8l-1.5,3.7
			l-3.7,1.1l0.4,4l-2.8,2.8l2.1,3.4l-1.3,3.8l3.3,2l0.6,4l3.8,0.1l2.3,3.3l3.4-1.8l3.4,1.8l2.3-3.3l3.8-0.1l0.6-4L38,23.8z"/>
		<path class="st1" d="M15.8,18.7c0-5.1,3.9-9.2,8.7-9.2c4.8,0,8.7,4.1,8.7,9.2c0,5.1-3.9,9.2-8.7,9.2
			C19.7,27.9,15.8,23.8,15.8,18.7z"/>
	</g>
	<g>
		<path class="st2" d="M24,16.2L24,16.2L22.4,17l-0.3-1.5l2.1-1.1h1.6V23H24V16.2z"/>
	</g>
</g>
</svg>
