<?xml version="1.0" encoding="utf-8"?>
<!-- Generator: Adobe Illustrator 23.0.3, SVG Export Plug-In . SVG Version: 6.00 Build 0)  -->
<!DOCTYPE svg PUBLIC "-//W3C//DTD SVG 1.1//EN" "http://www.w3.org/Graphics/SVG/1.1/DTD/svg11.dtd" [
	<!ENTITY ns_extend "http://ns.adobe.com/Extensibility/1.0/">
	<!ENTITY ns_ai "http://ns.adobe.com/AdobeIllustrator/10.0/">
	<!ENTITY ns_graphs "http://ns.adobe.com/Graphs/1.0/">
	<!ENTITY ns_vars "http://ns.adobe.com/Variables/1.0/">
	<!ENTITY ns_imrep "http://ns.adobe.com/ImageReplacement/1.0/">
	<!ENTITY ns_sfw "http://ns.adobe.com/SaveForWeb/1.0/">
	<!ENTITY ns_custom "http://ns.adobe.com/GenericCustomNamespace/1.0/">
	<!ENTITY ns_adobe_xpath "http://ns.adobe.com/XPath/1.0/">
]>
<svg version="1.1" id="Layer_1" xmlns:x="&ns_extend;" xmlns:i="&ns_ai;" xmlns:graph="&ns_graphs;"
	 xmlns="http://www.w3.org/2000/svg" xmlns:xlink="http://www.w3.org/1999/xlink" x="0px" y="0px" width="48px" height="48px"
	 viewBox="0 0 48 48" style="enable-background:new 0 0 48 48;" xml:space="preserve">
<style type="text/css">
	.st0{fill:#F1A38C;}
</style>
<metadata>
	<sfw  xmlns="&ns_sfw;">
		<slices></slices>
		<sliceSourceBounds  bottomLeftOrigin="true" height="37.5" width="44" x="2.2" y="-42.6"></sliceSourceBounds>
	</sfw>
</metadata>
<g>
	<path class="st0" d="M37.5,32.4c-0.6,0-1-0.5-1-1c0-0.6,0.5-1,1-1c3.7,0,6.6-3,6.6-6.6c0-3.5-2.6-6.3-6.1-6.6c-0.5,0-0.9-0.5-0.9-1
		c-0.3-4-3.7-7.2-7.7-7.2c-1.1,0-2.2,0.2-3.3,0.7c-0.4,0.2-0.8,0.1-1.1-0.2c-1.7-1.4-3.9-2.2-6.2-2.2c-5.2,0-9.4,4.1-9.5,9.3
		c0,0.4-0.3,0.8-0.7,1c-2.6,0.9-4.4,3.4-4.4,6.2c0,3.7,3,6.6,6.7,6.6c0.6,0,1,0.5,1,1c0,0.6-0.5,1-1,1c-4.8,0-8.8-3.9-8.8-8.7
		c0-3.5,2-6.6,5.1-7.9c0.5-6,5.4-10.6,11.5-10.6c2.5,0,5,0.8,7,2.3C27,7,28.2,6.8,29.4,6.8c4.9,0,9,3.6,9.7,8.3
		c4.1,0.8,7.1,4.3,7.1,8.6C46.2,28.5,42.3,32.4,37.5,32.4z"/>
	<path class="st0" d="M21.6,42.6c-0.1,0-0.3,0-0.4-0.1l-2.9-1.2c-0.3-0.1-0.5-0.3-0.6-0.6c-0.1-0.3-0.1-0.5,0-0.8l0.4-1
		c-0.6-0.5-1.2-1-1.7-1.7l-1,0.4c-0.3,0.1-0.5,0.1-0.8,0c-0.3-0.1-0.5-0.3-0.6-0.6L13,34.3c-0.2-0.5,0-1.1,0.6-1.4l1-0.4
		c-0.1-0.8-0.1-1.6,0-2.4l-1-0.4c-0.3-0.1-0.5-0.3-0.6-0.6c-0.1-0.3-0.1-0.5,0-0.8l1.2-2.8c0.2-0.5,0.8-0.8,1.4-0.6l1,0.4
		c0.5-0.6,1-1.2,1.7-1.7l-0.4-1.1c-0.1-0.3-0.1-0.5,0-0.8c0.1-0.3,0.3-0.5,0.6-0.6l2.9-1.1c0.5-0.2,1.1,0,1.3,0.6l0.4,1
		c0.8-0.1,1.6-0.1,2.4,0l0.4-1c0.2-0.5,0.8-0.8,1.3-0.6l2.8,1.1c0.3,0.1,0.5,0.3,0.6,0.6c0.1,0.3,0.1,0.5,0,0.8l-0.4,1.1
		c0.7,0.5,1.2,1,1.7,1.7l1-0.4c0.5-0.2,1.1,0,1.4,0.6l1.2,2.8c0.1,0.3,0.1,0.5,0,0.8c-0.1,0.3-0.3,0.5-0.6,0.6l-1,0.4
		c0.1,0.8,0.1,1.6,0,2.4l1,0.4c0.5,0.2,0.8,0.8,0.6,1.4l-1.2,2.9c-0.1,0.3-0.3,0.5-0.6,0.6c-0.3,0.1-0.5,0.1-0.8,0l-1-0.4
		c-0.5,0.6-1,1.2-1.7,1.7l0.4,1c0.2,0.5,0,1.1-0.6,1.4l-2.8,1.2c-0.3,0.1-0.5,0.1-0.8,0c-0.3-0.1-0.5-0.3-0.6-0.6l-0.4-1
		c-0.8,0.1-1.6,0.1-2.4,0l-0.4,1C22.4,42.4,22,42.6,21.6,42.6z M20.1,39.8l0.9,0.4l0.3-0.8c0.2-0.5,0.7-0.7,1.2-0.6
		c1.1,0.2,2.1,0.2,3.2,0c0.5-0.1,1,0.2,1.2,0.6l0.3,0.8l0.9-0.4L27.9,39c-0.2-0.5,0-1,0.4-1.3c0.9-0.6,1.7-1.4,2.3-2.3
		c0.3-0.4,0.8-0.6,1.3-0.4l0.8,0.3l0.4-1l-0.8-0.3c-0.5-0.2-0.7-0.7-0.6-1.2c0.2-1.1,0.2-2.1,0-3.2c-0.1-0.5,0.2-1,0.6-1.2l0.8-0.3
		l-0.4-0.9l-0.8,0.3c-0.5,0.2-1,0-1.3-0.4c-0.5-0.9-1.3-1.6-2.2-2.2c-0.4-0.3-0.6-0.8-0.4-1.3l0.4-0.9l-0.9-0.4L27,23.3
		c-0.2,0.5-0.7,0.7-1.2,0.6c-1.2-0.2-2.2-0.2-3.2,0c-0.5,0.1-1-0.1-1.2-0.6l-0.3-0.8l-0.9,0.4l0.3,0.9c0.2,0.5,0,1-0.4,1.3
		c-0.9,0.6-1.7,1.3-2.2,2.2c-0.3,0.4-0.8,0.6-1.3,0.4l-0.8-0.3l-0.4,0.9l0.8,0.3c0.5,0.2,0.7,0.7,0.6,1.2c-0.2,1.1-0.2,2.1,0,3.2
		c0.1,0.5-0.2,1-0.6,1.2l-0.8,0.3l0.4,1l0.8-0.3c0.5-0.2,1,0,1.3,0.4c0.6,0.9,1.4,1.7,2.3,2.3c0.4,0.3,0.6,0.8,0.4,1.3L20.1,39.8z"
		/>
	<path class="st0" d="M24.2,36.1c-2.6,0-4.7-2.1-4.7-4.7c0-2.6,2.1-4.7,4.7-4.7c2.6,0,4.7,2.1,4.7,4.7
		C28.9,33.9,26.8,36.1,24.2,36.1z M24.2,28.7c-1.4,0-2.6,1.2-2.6,2.6c0,1.4,1.2,2.6,2.6,2.6c1.4,0,2.6-1.2,2.6-2.6
		C26.8,29.9,25.6,28.7,24.2,28.7z"/>
</g>
</svg>
