<?xml version="1.0" encoding="utf-8"?>
<!-- Generator: Adobe Illustrator 23.0.3, SVG Export Plug-In . SVG Version: 6.00 Build 0)  -->
<!DOCTYPE svg PUBLIC "-//W3C//DTD SVG 1.1//EN" "http://www.w3.org/Graphics/SVG/1.1/DTD/svg11.dtd" [
	<!ENTITY ns_extend "http://ns.adobe.com/Extensibility/1.0/">
	<!ENTITY ns_ai "http://ns.adobe.com/AdobeIllustrator/10.0/">
	<!ENTITY ns_graphs "http://ns.adobe.com/Graphs/1.0/">
	<!ENTITY ns_vars "http://ns.adobe.com/Variables/1.0/">
	<!ENTITY ns_imrep "http://ns.adobe.com/ImageReplacement/1.0/">
	<!ENTITY ns_sfw "http://ns.adobe.com/SaveForWeb/1.0/">
	<!ENTITY ns_custom "http://ns.adobe.com/GenericCustomNamespace/1.0/">
	<!ENTITY ns_adobe_xpath "http://ns.adobe.com/XPath/1.0/">
]>
<svg version="1.1" id="Layer_1" xmlns:x="&ns_extend;" xmlns:i="&ns_ai;" xmlns:graph="&ns_graphs;"
	 xmlns="http://www.w3.org/2000/svg" xmlns:xlink="http://www.w3.org/1999/xlink" x="0px" y="0px" width="64px" height="64px"
	 viewBox="0 0 64 64" style="enable-background:new 0 0 64 64;" xml:space="preserve">
<style type="text/css">
	.st0{fill:#FFFFFF;}
</style>
<metadata>
	<sfw  xmlns="&ns_sfw;">
		<slices></slices>
		<sliceSourceBounds  bottomLeftOrigin="true" height="53.9" width="53.6" x="3.7" y="4.8"></sliceSourceBounds>
	</sfw>
</metadata>
<path class="st0" d="M43.2,5.3H39c-1.2,0-2,1-2,2V22H19.3l-1.6-7.2c-0.2-1-1-1.6-2-1.6h-10c-1.2,0-2,0.2-2,1.2c0,1.2,1,2,2,2
	c0,0,6.6,0,8.8,0c0.4,2,1.4,7.4,1.4,7.4s0,0,0,0.2l0.2,4.4c0.4,4.6,1.2,7,4.8,10.4l2,9c-2.2,1-3.8,2.8-3.8,5.2
	c0,3.4,2.8,6.2,6.2,6.2s6.2-2.8,6.2-6.2c0-0.8-0.2-1.4-0.4-2h9.6c-0.2,0.6-0.4,1.4-0.4,2c0,3.4,2.8,6.2,6.2,6.2s6.2-2.8,6.2-6.2
	s-2.8-5.6-6.2-5.6c-0.2,0-0.4,0-0.6,0l0,0c0,0-16.9,0-19.7,0c-0.2-1-1.2-4.4-1.6-6.2c1.4,0.4,4,1.2,5.6,1.2h12.4
	c8,0,14.7-6.2,14.7-14.3v-8.4C57.8,11.7,51.2,5.3,43.2,5.3z M47,50.6c1.6,0,2.8,1.2,2.8,2.8s-1.2,2.8-2.8,2.8s-2.8-1.2-2.8-2.8
	C44.4,51.8,45.6,50.6,47,50.6z M28.5,53.4c0,1.6-1.4,3-3,3s-3-1.4-3-3s1.4-3,3-3C27.3,50.4,28.5,51.8,28.5,53.4z M54.2,28.2
	C54.2,34,49,39,43.2,39H30.7c-5.8,0-10.8-5.2-10.8-10.8c0,0,0-1.6,0-2.6h34.3C54.2,26.5,54.2,28.2,54.2,28.2z M54.2,21.9H40.8v-13
	c1,0,2.6,0,2.6,0c5.8,0,11,5.2,11,10.8C54.2,19.7,54.2,20.7,54.2,21.9z"/>
</svg>
