<?xml version="1.0" encoding="utf-8"?>
<!-- Generator: Adobe Illustrator 23.0.3, SVG Export Plug-In . SVG Version: 6.00 Build 0)  -->
<!DOCTYPE svg PUBLIC "-//W3C//DTD SVG 1.1//EN" "http://www.w3.org/Graphics/SVG/1.1/DTD/svg11.dtd" [
	<!ENTITY ns_extend "http://ns.adobe.com/Extensibility/1.0/">
	<!ENTITY ns_ai "http://ns.adobe.com/AdobeIllustrator/10.0/">
	<!ENTITY ns_graphs "http://ns.adobe.com/Graphs/1.0/">
	<!ENTITY ns_vars "http://ns.adobe.com/Variables/1.0/">
	<!ENTITY ns_imrep "http://ns.adobe.com/ImageReplacement/1.0/">
	<!ENTITY ns_sfw "http://ns.adobe.com/SaveForWeb/1.0/">
	<!ENTITY ns_custom "http://ns.adobe.com/GenericCustomNamespace/1.0/">
	<!ENTITY ns_adobe_xpath "http://ns.adobe.com/XPath/1.0/">
]>
<svg version="1.1" id="Layer_1" xmlns:x="&ns_extend;" xmlns:i="&ns_ai;" xmlns:graph="&ns_graphs;"
	 xmlns="http://www.w3.org/2000/svg" xmlns:xlink="http://www.w3.org/1999/xlink" x="0px" y="0px" width="64px" height="64px"
	 viewBox="0 0 64 64" style="enable-background:new 0 0 64 64;" xml:space="preserve">
<style type="text/css">
	.st0{fill:#F8A48E;}
</style>
<metadata>
	<sfw  xmlns="&ns_sfw;">
		<slices></slices>
		<sliceSourceBounds  bottomLeftOrigin="true" height="49.5" width="57" x="3.5" y="-56.6"></sliceSourceBounds>
	</sfw>
</metadata>
<g>
	<path class="st0" d="M54.4,18.6l2.4,9.7H7.5l2.4-9.7h48.5 M56.7,7.2H7.3v3.8h49.5V7.2z M56.7,14.7H7.3L3.5,28.3v3.8h3.8v24.5h30.5
		V32.1H53v24.5h3.8V32.1h3.8v-3.8L56.7,14.7z M11,52.9V32.1h23v20.8H11z"/>
	<path class="st0" d="M26.1,36.8c-2.2-0.2-4,1.4-4,3.6c0-2-1.8-3.8-4-3.6C16.4,37,15,38.6,15,40.6c0,2.4,1,4.6,3,6.1l4.2,3.4
		l4.2-3.4c1.8-1.6,3-3.8,3-6.1C29.4,38.6,28,37,26.1,36.8z"/>
</g>
</svg>
