<?xml version="1.0" encoding="utf-8"?>
<!-- Generator: Adobe Illustrator 16.0.3, SVG Export Plug-In . SVG Version: 6.00 Build 0)  -->
<!DOCTYPE svg PUBLIC "-//W3C//DTD SVG 1.1//EN" "http://www.w3.org/Graphics/SVG/1.1/DTD/svg11.dtd">
<svg version="1.1" id="Layer_1" xmlns="http://www.w3.org/2000/svg" xmlns:xlink="http://www.w3.org/1999/xlink" x="0px" y="0px"
	 width="21px" height="21px" viewBox="0 0 21 21" enable-background="new 0 0 21 21" xml:space="preserve">
<g id="Layer_1_1_" display="none">
	<path id="XMLID_430_" display="inline" fill="#B3C1C8" d="M0.713,11.213h9.073v9.072C9.786,20.68,10.106,21,10.5,21
		s0.713-0.32,0.713-0.715v-9.072h9.073c0.396,0,0.714-0.32,0.714-0.713s-0.318-0.713-0.714-0.713h-9.073V0.713
		C11.213,0.319,10.894,0,10.5,0S9.786,0.319,9.786,0.713v9.073H0.713C0.319,9.786,0,10.106,0,10.5S0.319,11.213,0.713,11.213z"/>
</g>
<g id="Layer_2" display="none">
	<path display="inline" fill="#B3C1C8" d="M20.286,9.786h-7.998h-1.075h-10.5C0.319,9.786,0,10.104,0,10.499
		s0.319,0.714,0.713,0.714h10.5h1.075h7.998c0.396,0,0.714-0.319,0.714-0.714S20.682,9.786,20.286,9.786z"/>
</g>
<g id="Layer_3" display="none">
	<path id="XMLID_1_" display="inline" fill="#B3C1C8" d="M8.79,17.578c2.189,0,4.192-0.807,5.733-2.135l5.365,5.365
		C20.016,20.938,20.182,21,20.35,21c0.166,0,0.332-0.063,0.459-0.191c0.256-0.252,0.256-0.666,0-0.92l-5.365-5.367
		c1.328-1.539,2.136-3.542,2.136-5.731C17.578,3.943,13.637,0,8.79,0C3.943,0,0,3.943,0,8.789C0,13.636,3.943,17.578,8.79,17.578z
		 M8.79,1.302c4.128,0,7.487,3.359,7.487,7.487c0,4.129-3.358,7.488-7.487,7.488s-7.487-3.359-7.487-7.488
		C1.302,4.661,4.661,1.302,8.79,1.302z"/>
</g>
<g id="Layer_4" display="none">
	<g id="V_1_" display="inline">
		<g>
			<path fill="#B3C1C8" d="M18.122,21c1.153,0,2.091-0.939,2.091-2.092V3.761c0-1.153-0.938-2.091-2.091-2.091H2.879
				c-1.154,0-2.091,0.938-2.091,2.091v15.147C0.788,20.061,1.726,21,2.879,21H18.122z M1.656,18.908V3.761
				c0-0.675,0.548-1.223,1.223-1.223h15.243c0.675,0,1.224,0.548,1.224,1.223v15.147c0,0.676-0.549,1.225-1.224,1.225H2.879
				C2.205,20.133,1.656,19.584,1.656,18.908z"/>
		</g>
		<g>
			<path fill="#B3C1C8" d="M6.863,3.868V0.434C6.863,0.194,6.669,0,6.429,0C6.19,0,5.996,0.194,5.996,0.434v3.434
				c0,0.24,0.194,0.434,0.434,0.434C6.669,4.302,6.863,4.107,6.863,3.868z"/>
		</g>
		<g>
			<path fill="#B3C1C8" d="M15.102,3.868V0.434c0-0.24-0.194-0.434-0.435-0.434c-0.239,0-0.435,0.194-0.435,0.434v3.434
				c0,0.24,0.195,0.434,0.435,0.434C14.907,4.302,15.102,4.107,15.102,3.868z"/>
		</g>
		<g>
			<rect x="1.222" y="5.883" fill="#B3C1C8" width="18.463" height="0.868"/>
		</g>
		<g id="XMLID_14_">
			<g>
				<g id="XMLID_15_">
					<path fill="#B3C1C8" d="M10.143,15.391c0.009,0,0.018,0,0.025,0c0.119-0.006,0.231-0.063,0.309-0.154l3.716-4.446
						c0.152-0.184,0.129-0.457-0.055-0.611c-0.185-0.154-0.457-0.129-0.611,0.055l-3.42,4.091L8.324,12.63
						c-0.174-0.166-0.449-0.157-0.613,0.017c-0.166,0.174-0.158,0.446,0.015,0.612l2.118,2.015
						C9.925,15.35,10.032,15.391,10.143,15.391z"/>
				</g>
			</g>
		</g>
	</g>
</g>
<g id="Layer_5">
	<path id="XMLID_427_" fill="#ED5A57" d="M6.755,17.527c0.128,0.127,0.296,0.19,0.464,0.19c0.168,0,0.336-0.063,0.464-0.19
		L20.809,4.401c0.256-0.256,0.256-0.672,0-0.928c-0.256-0.256-0.672-0.256-0.928,0L7.219,16.135L1.12,10.036
		c-0.256-0.256-0.671-0.256-0.928,0c-0.257,0.256-0.256,0.672,0,0.928L6.755,17.527z"/>
</g>
</svg>
