<?xml version="1.0" encoding="utf-8"?>
<!-- Generator: Adobe Illustrator 23.0.3, SVG Export Plug-In . SVG Version: 6.00 Build 0)  -->
<!DOCTYPE svg PUBLIC "-//W3C//DTD SVG 1.1//EN" "http://www.w3.org/Graphics/SVG/1.1/DTD/svg11.dtd" [
	<!ENTITY ns_extend "http://ns.adobe.com/Extensibility/1.0/">
	<!ENTITY ns_ai "http://ns.adobe.com/AdobeIllustrator/10.0/">
	<!ENTITY ns_graphs "http://ns.adobe.com/Graphs/1.0/">
	<!ENTITY ns_vars "http://ns.adobe.com/Variables/1.0/">
	<!ENTITY ns_imrep "http://ns.adobe.com/ImageReplacement/1.0/">
	<!ENTITY ns_sfw "http://ns.adobe.com/SaveForWeb/1.0/">
	<!ENTITY ns_custom "http://ns.adobe.com/GenericCustomNamespace/1.0/">
	<!ENTITY ns_adobe_xpath "http://ns.adobe.com/XPath/1.0/">
]>
<svg version="1.1" id="Layer_1" xmlns:x="&ns_extend;" xmlns:i="&ns_ai;" xmlns:graph="&ns_graphs;"
	 xmlns="http://www.w3.org/2000/svg" xmlns:xlink="http://www.w3.org/1999/xlink" x="0px" y="0px" width="21px" height="21px"
	 viewBox="0 0 21 21" style="enable-background:new 0 0 21 21;" xml:space="preserve">
<style type="text/css">
	.st0{display:none;}
	.st1{display:inline;fill:#B3C1C8;}
	.st2{display:inline;}
	.st3{fill:#B3C1C8;}
	.st4{fill:#999999;}
</style>
<metadata>
	<sfw  xmlns="&ns_sfw;">
		<slices></slices>
		<sliceSourceBounds  bottomLeftOrigin="true" height="21" width="21" x="0" y="0"></sliceSourceBounds>
	</sfw>
</metadata>
<g class="st0">
	<path id="XMLID_430_" class="st1" d="M0.7,11.2h9.1v9.1c0,0.4,0.3,0.7,0.7,0.7s0.7-0.3,0.7-0.7v-9.1h9.1c0.4,0,0.7-0.3,0.7-0.7
		s-0.3-0.7-0.7-0.7h-9.1V0.7c0-0.4-0.3-0.7-0.7-0.7S9.8,0.3,9.8,0.7v9.1H0.7C0.3,9.8,0,10.1,0,10.5S0.3,11.2,0.7,11.2z"/>
</g>
<g class="st0">
	<path class="st1" d="M20.3,9.8h-8h-1.1H0.7C0.3,9.8,0,10.1,0,10.5s0.3,0.7,0.7,0.7h10.5h1.1h8c0.4,0,0.7-0.3,0.7-0.7
		S20.7,9.8,20.3,9.8z"/>
</g>
<g id="Layer_3" class="st0">
	<path id="XMLID_1_" class="st1" d="M8.8,17.6c2.2,0,4.2-0.8,5.7-2.1l5.4,5.4c0.1,0.1,0.3,0.2,0.5,0.2c0.2,0,0.3-0.1,0.5-0.2
		c0.3-0.3,0.3-0.7,0-0.9l-5.4-5.4c1.3-1.5,2.1-3.5,2.1-5.7c0-4.8-3.9-8.8-8.8-8.8S0,3.9,0,8.8C0,13.6,3.9,17.6,8.8,17.6z M8.8,1.3
		c4.1,0,7.5,3.4,7.5,7.5c0,4.1-3.4,7.5-7.5,7.5s-7.5-3.4-7.5-7.5C1.3,4.7,4.7,1.3,8.8,1.3z"/>
</g>
<g id="Layer_4" class="st0">
	<g id="V_1_" class="st2">
		<g>
			<path class="st3" d="M18.1,21c1.2,0,2.1-0.9,2.1-2.1V3.8c0-1.2-0.9-2.1-2.1-2.1H2.9c-1.2,0-2.1,0.9-2.1,2.1v15.1
				c0,1.2,0.9,2.1,2.1,2.1H18.1z M1.7,18.9V3.8c0-0.7,0.5-1.2,1.2-1.2h15.2c0.7,0,1.2,0.5,1.2,1.2v15.1c0,0.7-0.5,1.2-1.2,1.2H2.9
				C2.2,20.1,1.7,19.6,1.7,18.9z"/>
		</g>
		<g>
			<path class="st3" d="M6.9,3.9V0.4C6.9,0.2,6.7,0,6.4,0C6.2,0,6,0.2,6,0.4v3.4c0,0.2,0.2,0.4,0.4,0.4C6.7,4.3,6.9,4.1,6.9,3.9z"/>
		</g>
		<g>
			<path class="st3" d="M15.1,3.9V0.4c0-0.2-0.2-0.4-0.4-0.4s-0.4,0.2-0.4,0.4v3.4c0,0.2,0.2,0.4,0.4,0.4S15.1,4.1,15.1,3.9z"/>
		</g>
		<g>
			<rect x="1.2" y="5.9" class="st3" width="18.5" height="0.9"/>
		</g>
		<g id="XMLID_14_">
			<g>
				<g id="XMLID_15_">
					<path class="st3" d="M10.1,15.4C10.2,15.4,10.2,15.4,10.1,15.4c0.1,0,0.3-0.1,0.3-0.2l3.7-4.4c0.2-0.2,0.1-0.5-0.1-0.6
						C14,10,13.7,10,13.5,10.2l-3.4,4.1l-1.8-1.7c-0.2-0.2-0.4-0.2-0.6,0c-0.2,0.2-0.2,0.4,0,0.6l2.1,2C9.9,15.4,10,15.4,10.1,15.4z
						"/>
				</g>
			</g>
		</g>
	</g>
</g>
<g id="Layer_5">
	<path id="XMLID_427_" class="st4" d="M6.8,17.5c0.1,0.1,0.3,0.2,0.5,0.2s0.3-0.1,0.5-0.2L20.8,4.4c0.3-0.3,0.3-0.7,0-0.9
		c-0.3-0.3-0.7-0.3-0.9,0L7.2,16.1L1.1,10c-0.3-0.3-0.7-0.3-0.9,0s-0.3,0.7,0,0.9L6.8,17.5z"/>
</g>
</svg>
