<?xml version="1.0" encoding="utf-8"?>
<!-- Generator: Adobe Illustrator 16.0.3, SVG Export Plug-In . SVG Version: 6.00 Build 0)  -->
<!DOCTYPE svg PUBLIC "-//W3C//DTD SVG 1.1//EN" "http://www.w3.org/Graphics/SVG/1.1/DTD/svg11.dtd">
<svg version="1.1" xmlns="http://www.w3.org/2000/svg" xmlns:xlink="http://www.w3.org/1999/xlink" x="0px" y="0px" width="21px"
	 height="21px" viewBox="0 0 21 21" enable-background="new 0 0 21 21" xml:space="preserve">
<g id="Layer_1" display="none">
	<g id="Layer_1_1_">
		<path id="XMLID_430_" display="inline" fill="#B3C1C8" d="M0.713,11.213h9.073v9.072C9.786,20.68,10.106,21,10.5,21
			s0.713-0.32,0.713-0.715v-9.072h9.073c0.396,0,0.714-0.32,0.714-0.713s-0.318-0.713-0.714-0.713h-9.073V0.713
			C11.213,0.319,10.894,0,10.5,0S9.786,0.319,9.786,0.713v9.073H0.713C0.319,9.786,0,10.106,0,10.5S0.319,11.213,0.713,11.213z"/>
	</g>
	<g id="Layer_2">
		<path display="inline" fill="#B3C1C8" d="M20.286,9.786h-7.998h-1.075h-10.5C0.319,9.786,0,10.104,0,10.499
			s0.319,0.714,0.713,0.714h10.5h1.075h7.998c0.396,0,0.714-0.319,0.714-0.714S20.682,9.786,20.286,9.786z"/>
	</g>
	<g id="Layer_3" display="inline">
		<path id="XMLID_1_" fill="#B3C1C8" d="M8.79,17.578c2.189,0,4.192-0.807,5.733-2.135l5.365,5.365
			C20.016,20.938,20.182,21,20.35,21c0.166,0,0.332-0.063,0.459-0.191c0.256-0.252,0.256-0.666,0-0.92l-5.365-5.367
			c1.328-1.539,2.136-3.542,2.136-5.731C17.578,3.943,13.637,0,8.79,0C3.943,0,0,3.943,0,8.789C0,13.636,3.943,17.578,8.79,17.578z
			 M8.79,1.302c4.128,0,7.487,3.359,7.487,7.487c0,4.129-3.358,7.488-7.487,7.488s-7.487-3.359-7.487-7.488
			C1.302,4.661,4.661,1.302,8.79,1.302z"/>
	</g>
</g>
<g id="Layer_3_1_" display="none">
	<g id="Layer_3_2_" display="inline">
		<path id="XMLID_3_" fill="#ED5A57" d="M8.79,17.578c2.189,0,4.192-0.807,5.733-2.135l5.365,5.365
			C20.016,20.938,20.182,21,20.35,21c0.166,0,0.332-0.063,0.459-0.191c0.256-0.252,0.256-0.666,0-0.92l-5.365-5.367
			c1.328-1.539,2.136-3.542,2.136-5.731C17.578,3.943,13.637,0,8.79,0C3.943,0,0,3.943,0,8.789C0,13.636,3.943,17.578,8.79,17.578z
			 M8.79,1.302c4.128,0,7.487,3.359,7.487,7.487c0,4.129-3.358,7.488-7.487,7.488s-7.487-3.359-7.487-7.488
			C1.302,4.661,4.661,1.302,8.79,1.302z"/>
	</g>
</g>
<g id="Layer_2_1_">
	<path id="XMLID_2_" fill="#B3C1C8" d="M1.747,2.937l7.563,7.563l-7.563,7.564c-0.329,0.329-0.329,0.861,0,1.19
		c0.329,0.328,0.861,0.328,1.189,0l7.563-7.564l7.564,7.564c0.328,0.328,0.86,0.328,1.189,0c0.328-0.329,0.328-0.861,0-1.19
		l-7.563-7.564l7.563-7.563c0.328-0.328,0.328-0.861,0-1.189c-0.329-0.329-0.861-0.329-1.19,0L10.5,9.31L2.937,1.747
		c-0.328-0.329-0.861-0.329-1.189,0C1.418,2.075,1.418,2.608,1.747,2.937z"/>
</g>
</svg>
