<?xml version="1.0" encoding="utf-8"?>
<!-- Generator: Adobe Illustrator 23.0.3, SVG Export Plug-In . SVG Version: 6.00 Build 0)  -->
<!DOCTYPE svg PUBLIC "-//W3C//DTD SVG 1.1//EN" "http://www.w3.org/Graphics/SVG/1.1/DTD/svg11.dtd" [
	<!ENTITY ns_extend "http://ns.adobe.com/Extensibility/1.0/">
	<!ENTITY ns_ai "http://ns.adobe.com/AdobeIllustrator/10.0/">
	<!ENTITY ns_graphs "http://ns.adobe.com/Graphs/1.0/">
	<!ENTITY ns_vars "http://ns.adobe.com/Variables/1.0/">
	<!ENTITY ns_imrep "http://ns.adobe.com/ImageReplacement/1.0/">
	<!ENTITY ns_sfw "http://ns.adobe.com/SaveForWeb/1.0/">
	<!ENTITY ns_custom "http://ns.adobe.com/GenericCustomNamespace/1.0/">
	<!ENTITY ns_adobe_xpath "http://ns.adobe.com/XPath/1.0/">
]>
<svg version="1.1" id="Layer_1" xmlns:x="&ns_extend;" xmlns:i="&ns_ai;" xmlns:graph="&ns_graphs;"
	 xmlns="http://www.w3.org/2000/svg" xmlns:xlink="http://www.w3.org/1999/xlink" x="0px" y="0px" width="125px" height="37px"
	 viewBox="0 0 125 37" style="enable-background:new 0 0 125 37;" xml:space="preserve">
<style type="text/css">
	.st0{fill:#EEE6CB;}
	.st1{fill:#FFFFFF;}
</style>
<metadata>
	<sfw  xmlns="&ns_sfw;">
		<slices></slices>
		<sliceSourceBounds  bottomLeftOrigin="true" height="27.8" width="122.9" x="-0.2" y="5.8"></sliceSourceBounds>
	</sfw>
</metadata>
<g>
	<path class="st0" d="M65.4,8.5c0,0.1,0,0.1,0,0.2c0,2.6-1,4.7-2.9,6.2c-1.9,1.4-4,1.6-5.1,1.6c-0.4,0-0.6,0-0.7,0
		c-1.2-0.1-2.1-1.2-1.9-2.4c0.1-0.8,0.5-1.4,1.2-1.7c-1.1-0.6-2-1.5-2.4-2.8c-0.1-0.2-0.1-0.4-0.2-0.6c-3.9,2-6.5,5.9-6.5,10.3
		c0,4.8,3.2,9,7.8,10.8c1.6,0.6,3.4,1,5.3,1s3.7-0.4,5.3-1c4.6-1.8,7.8-6,7.8-10.8C73,14.5,69.9,10.4,65.4,8.5z M55.5,22.6
		c0-0.9,0.6-1.7,1.3-1.7c0.7,0,1.3,0.7,1.3,1.7s-0.6,1.7-1.3,1.7C56.1,24.3,55.5,23.5,55.5,22.6z M62.8,26.3c-0.3,1-1.5,1.8-2.9,1.8
		c-1.4,0-2.6-0.7-2.9-1.7c-0.1-0.3,0.1-0.5,0.3-0.6c0.3-0.1,0.5,0.1,0.6,0.3c0.2,0.6,1,1,2,1c1,0,1.8-0.5,2-1.1
		c0.1-0.3,0.3-0.4,0.6-0.3C62.7,25.8,62.9,26.1,62.8,26.3z M63,24.3c-0.7,0-1.3-0.7-1.3-1.7S62.2,21,63,21c0.7,0,1.3,0.7,1.3,1.7
		S63.7,24.3,63,24.3z"/>
	<path class="st0" d="M54.7,9.3c0.4,1.2,1.3,2,2.5,2.3c1.2,0.3,2.5,0,3.2-0.6c1.1-1.1,1-2.2,1-2.4c-0.1-0.5-0.5-0.9-1.1-0.8
		c-0.4,0.1-0.7,0.3-0.8,0.7c-0.1,0.3,0,0.5-0.2,0.8c-0.3,0.6-1.1,0.6-1.6,0.5c-0.6-0.1-1-0.5-1.2-1.1c-0.1-0.3-0.1-0.5-0.1-0.8
		c0-0.5,0.2-1,0.3-1.3c0.4-0.7,1.2-1.2,2.1-1.3c0.9-0.1,1.7,0.1,2.4,0.7C61.6,6.4,62,7,62.1,7.6c0.1,0.3,0.1,0.7,0.1,1.1
		c0,1.7-0.5,2.8-1.7,3.7c-1.5,1.1-3.5,1-3.6,1c-0.5,0-1,0.3-1,0.9c-0.1,0.5,0.3,1,0.9,1c0,0,0.2,0,0.5,0c0.9,0,2.8-0.2,4.4-1.4
		c1.6-1.2,2.4-3,2.4-5.2c0-0.2,0-0.4,0-0.6c-0.2-1.8-1-2.9-1.7-3.5c-1.1-0.9-2.5-1.4-3.9-1.2c-1.4,0.2-2.7,1-3.4,2.2
		c-0.5,0.9-0.7,1.9-0.6,2.9C54.6,8.8,54.6,9,54.7,9.3z"/>
	<path class="st0" d="M19.4,19.8c0,1.4-1.1,2.5-2.5,2.5c-1.4,0-2.5-1.1-2.5-2.5c0-1.4,1.1-2.5,2.5-2.5
		C18.3,17.3,19.4,18.4,19.4,19.8z"/>
	<g>
		<g>
			<path class="st1" d="M43.1,9.9c-1.3-0.9-2.8-1.2-4.3-0.9c-1.5,0.3-2.8,1.2-3.7,2.4l-2.3,3.4l-2.3-3.4c-0.9-1.3-2.2-2.1-3.7-2.4
				c-1.5-0.3-3,0-4.3,0.9c-2.6,1.8-3.3,5.4-1.5,8c0,0,7,10.3,7,10.3c1.1,1.6,2.9,2.5,4.7,2.5c2.6,0,4.2-1.6,4.8-2.5l7-10.3
				C46.4,15.3,45.7,11.7,43.1,9.9z"/>
			<path class="st1" d="M6.8,8.9c-3.2,0-5.7,2.6-5.7,5.7v10.3c0,3.2,2.6,5.7,5.7,5.7c3.2,0,5.7-2.6,5.7-5.7V14.7
				C12.5,11.5,10,8.9,6.8,8.9z"/>
			<path class="st1" d="M122.6,11.1c-1-1.2-2.3-1.9-3.9-2.1c-1.5-0.2-3,0.3-4.2,1.3l-3.4,2.8l-3.4-2.8c-1.2-1-2.7-1.4-4.2-1.3
				c-1.5,0.2-2.9,0.9-3.9,2.1c-2,2.5-1.6,6.1,0.9,8.1l4.9,3.9v1.9c0,3.2,2.6,5.7,5.7,5.7c3.2,0,5.7-2.6,5.7-5.7v-1.9l4.9-3.9
				C124.3,17.2,124.6,13.5,122.6,11.1z"/>
			<path class="st1" d="M90.8,8.9c-2.2,0-4.1,1.2-5.2,3c-1-1.8-2.9-3-5-3c-3.2,0-5.7,2.6-5.7,5.7v10.3c0,3.2,2.6,5.7,5.7,5.7
				c3.2,0,5.7-2.6,5.7-5.7V19c1.1,1.2,2.7,2,4.5,2c3.3,0,6-2.7,6-6C96.9,11.6,94.2,8.9,90.8,8.9z"/>
		</g>
	</g>
</g>
</svg>
