<?xml version="1.0" encoding="utf-8"?>
<!-- Generator: Adobe Illustrator 23.0.3, SVG Export Plug-In . SVG Version: 6.00 Build 0)  -->
<!DOCTYPE svg PUBLIC "-//W3C//DTD SVG 1.1//EN" "http://www.w3.org/Graphics/SVG/1.1/DTD/svg11.dtd" [
	<!ENTITY ns_extend "http://ns.adobe.com/Extensibility/1.0/">
	<!ENTITY ns_ai "http://ns.adobe.com/AdobeIllustrator/10.0/">
	<!ENTITY ns_graphs "http://ns.adobe.com/Graphs/1.0/">
	<!ENTITY ns_vars "http://ns.adobe.com/Variables/1.0/">
	<!ENTITY ns_imrep "http://ns.adobe.com/ImageReplacement/1.0/">
	<!ENTITY ns_sfw "http://ns.adobe.com/SaveForWeb/1.0/">
	<!ENTITY ns_custom "http://ns.adobe.com/GenericCustomNamespace/1.0/">
	<!ENTITY ns_adobe_xpath "http://ns.adobe.com/XPath/1.0/">
]>
<svg version="1.1" id="격리_모드" xmlns:x="&ns_extend;" xmlns:i="&ns_ai;" xmlns:graph="&ns_graphs;"
	 xmlns="http://www.w3.org/2000/svg" xmlns:xlink="http://www.w3.org/1999/xlink" x="0px" y="0px" width="198.4px" height="155.9px"
	 viewBox="0 0 198.4 155.9" style="enable-background:new 0 0 198.4 155.9;" xml:space="preserve">
<style type="text/css">
	.st0{fill:#DD4C3D;}
	.st1{fill:#EFC52E;}
	.st2{fill:#303030;}
	.st3{fill:#FFFFFF;}
	.st4{fill:#69ACB5;stroke:#599DAC;stroke-width:0.6556;stroke-miterlimit:10;}
	.st5{fill:none;stroke:#6CBECC;stroke-width:1.3113;stroke-linecap:round;stroke-linejoin:round;stroke-miterlimit:10;}
	.st6{fill:#599DAC;}
	.st7{fill:#69ACB5;}
	.st8{fill:#C5914D;}
	.st9{fill:#B26919;}
	.st10{fill:#F5F5F7;}
	.st11{fill:none;stroke:#303030;stroke-width:0.5453;stroke-miterlimit:10;}
	.st12{fill:#FF6773;}
	.st13{fill:#D8A226;}
	.st14{fill:#FF4B3A;}
	.st15{fill:none;stroke:#FFFFFF;stroke-width:1.8943;stroke-linecap:round;stroke-linejoin:round;stroke-miterlimit:10;}
	.st16{fill:#B1C032;}
	.st17{fill:#666666;}
	.st18{fill:#C9D26B;}
</style>
<metadata>
	<sfw  xmlns="&ns_sfw;">
		<slices></slices>
		<sliceSourceBounds  bottomLeftOrigin="true" height="150.1" width="187.2" x="114.8" y="-384.7"></sliceSourceBounds>
	</sfw>
</metadata>
<g>
	<path class="st0" d="M139,77.3c0,0,26.6-14.3,32.6,4.2c3.7,11.5-13,20.3-12.8,27.5c0,1.3,4.6,4.5,4.6,4.5s-9.4,4.1-14.2-1.4
		c-4-4.6,9.5-17.5,9.1-23.6C157.6,79.5,139,77.3,139,77.3z"/>
	<path class="st1" d="M134.8,98.3c-27.2,2.4-51.4-4.9-73.4-17.7L69,47.1l60.9,13.8c12.8,2.9,21.3,13.3,17.7,25.6
		C144.1,94.8,140.8,97.8,134.8,98.3z"/>
	<path class="st1" d="M64.8,73.9L52.2,32.5l18.6-9.7c7.3,9.1,13.3,22.7,19.7,37.7L64.8,73.9z"/>
	<polygon class="st1" points="156.6,141 141.5,145.9 141,139.2 132.9,114.1 117.5,93.7 139.2,86.7 	"/>
	<polygon class="st1" points="29.6,112.3 41.2,123.2 44.6,117.4 62.7,98.2 85.6,86.6 68.7,70.8 	"/>
	<path class="st1" d="M72.9,34.1L46.1,45.2c-4,2.4-9.1,1.1-11.5-2.9l0,0c-1.9-3.1-1.4-7.1,1.1-9.7L58.2,9.3
		C70.2,11.3,75.7,18.9,72.9,34.1z"/>
	<g>
		<path class="st0" d="M84.9,34.1c0.8-0.4,1.5-0.9,2.3-1.4c-0.6-2.7-1.6-5.3-2.7-7.7c-0.9,0.1-1.8,0.3-2.6,0.4
			c0.6-0.6,1.3-1.2,1.9-1.9c-1.6-2.9-3.5-5.6-5.7-8c-0.8,0.4-1.6,0.8-2.4,1.2c0.4-0.8,0.9-1.6,1.3-2.4C75,12.6,73,11,70.8,9.5
			c-0.7,0.6-1.4,1.1-2,1.7c0.2-0.9,0.4-1.7,0.6-2.6c-2.4-1.4-4.9-2.5-7.6-3.4c-0.8,1-1.5,2.1-2.2,3.2c0-1.3-0.1-2.6-0.1-3.9
			c-1.7-0.4-3.5-0.8-5.4-1c-0.3,2.4-1.2,8.3-1.4,10.7c14.4,1.6,26.8,15.6,28.5,30c2.4-0.3,7-1.9,9.4-2.2c-0.1-1-2.8-6.8-3-7.8
			C86.7,34.3,85.8,34.2,84.9,34.1z"/>
	</g>
	<path class="st1" d="M55.4,8.9l6.9,12.4l-12.1,1.4l4-13.6C54.4,8.5,55.1,8.4,55.4,8.9z"/>
	<g>
		<path class="st2" d="M54.5,29.1c-0.9,0.6-2.2,0.3-2.8-0.6c-0.6-0.9-0.3-2.2,0.6-2.8s2.2-0.3,2.8,0.6
			C55.7,27.2,55.4,28.5,54.5,29.1z"/>
		<path class="st3" d="M53.3,27.8c-0.2-0.3-0.1-0.7,0.2-0.9c0.3-0.2,0.7-0.1,0.9,0.2c0.2,0.3,0.1,0.7-0.2,0.9
			C53.9,28.2,53.5,28.1,53.3,27.8z"/>
	</g>
	<g>
		<g>
			<g>
				<path class="st4" d="M87.3,149.9c-24.2-5.5-46.6-17.2-64.9-33.9l6.2-6.8c34.7,31.7,84.2,42.9,129.2,29.2l2.7,8.8
					C136.8,154.4,111.5,155.3,87.3,149.9z"/>
			</g>
		</g>
		<path class="st4" d="M29.4,113.5c-0.8,3.4-4.2,5.6-7.7,4.8c-3.4-0.8-5.6-4.2-4.8-7.7c0.8-3.4,4.2-5.6,7.7-4.8
			C28,106.6,30.2,110,29.4,113.5z"/>
		<path class="st4" d="M167.9,144.8c-0.8,3.4-4.2,5.6-7.7,4.8c-3.4-0.8-5.6-4.2-4.8-7.7c0.8-3.4,4.2-5.6,7.7-4.8
			C166.5,137.9,168.7,141.4,167.9,144.8z"/>
	</g>
	<line class="st5" x1="46.3" y1="40.1" x2="70.3" y2="23.1"/>
	<line class="st5" x1="38.3" y1="30" x2="49.6" y2="44.2"/>
	<path class="st0" d="M71.9,41.3c-0.4,1.9-2.4,3.2-4.3,2.7c-1.9-0.4-3.2-2.4-2.7-4.3c0.4-1.9,2.4-3.2,4.3-2.7
		C71.1,37.4,72.4,39.3,71.9,41.3z"/>
	<g>
		<polygon class="st0" points="51.2,89.4 38.6,102.7 49.7,112 62.2,98.7 		"/>
	</g>
	<g>
		<polygon class="st0" points="152.7,128.7 147.1,111.3 133.1,114.9 138.8,132.4 		"/>
	</g>
	
		<rect x="103" y="64.4" transform="matrix(0.9754 0.2206 -0.2206 0.9754 20.4368 -21.4413)" class="st6" width="6.4" height="32.7"/>
	<path class="st7" d="M111.3,55.7c-7.3-1.7-13.8-4.8-18.7-8.8c-0.3,0.7-0.6,1.5-0.8,2.2c-1.7,7.7,5.8,15.9,16.8,18.4
		c11,2.5,21.4-1.7,23.1-9.4c0.2-0.8,0.3-1.6,0.2-2.4C125.8,57.2,118.7,57.3,111.3,55.7z"/>
</g>
<g>
	<path class="st8" d="M23,76.5c0.7,4.9-2.7,9.4-7.5,10.1C10.5,87.3,6,84,5.3,79.1C4.6,74.2,8,69.7,12.9,69S22.2,71.7,23,76.5z"/>
	<ellipse transform="matrix(0.9388 -0.3445 0.3445 0.9388 -22.6462 19.5921)" class="st8" cx="43.8" cy="73.5" rx="8.9" ry="8.9"/>
	<g>
		<path class="st9" d="M26.8,93.3c4,1.7,2.2,15.1-1.7,24.4c-3.9,9.3-8.4,10.9-12.4,9.3c-4-1.7-6-6.1-2.1-15.3
			C14.5,102.3,22.8,91.6,26.8,93.3z"/>
		<path class="st9" d="M35,92.1c-3.4,2.7,2.2,15.1,8.6,22.9s11.2,8.1,14.5,5.4c3.4-2.7,4-7.5-2.4-15.3C49.4,97.3,38.4,89.4,35,92.1z
			"/>
	</g>
	<ellipse transform="matrix(0.9897 -0.1431 0.1431 0.9897 -16.4117 6.135)" class="st9" cx="34.5" cy="117.2" rx="20.1" ry="23.1"/>
	<ellipse transform="matrix(0.9897 -0.143 0.143 0.9897 -16.4704 6.1727)" class="st8" cx="34.7" cy="117.6" rx="16.6" ry="19.4"/>
	<g>
		<path class="st9" d="M58.9,132.2c-1.5,5.3-6.6,10-11.6,8.5s-8.1-8.5-6.6-13.8c1.5-5.3,7.1-6.8,12.1-5.3
			C57.8,123.1,60.4,127,58.9,132.2z"/>
		<path class="st8" d="M49.3,135.6c-0.2,0-0.4,0-0.6,0c-0.8-0.2-1.7-1.2-2.3-2.5c-0.7-1.5-0.9-3.3-0.5-4.5c0.1-0.5,0.4-1.6,2.4-1.8
			c0.9-0.1,1.9,0,3,0.3c3,0.9,2.8,2.3,2.4,3.8C52.9,133.3,50.8,135.4,49.3,135.6z"/>
	</g>
	<g>
		<path class="st9" d="M15.2,138c2.9,4.6,9.2,7.7,13.6,4.9c4.4-2.8,5.4-10.5,2.4-15.1c-2.9-4.6-8.7-4.5-13.1-1.7
			C13.7,128.9,12.3,133.4,15.2,138z"/>
		<path class="st8" d="M25.3,138.5c-1.4,0.2-4-1.2-5.5-3.4c-0.8-1.3-1.4-2.7,1.2-4.3c0.9-0.6,1.9-1,2.8-1.1c1.9-0.3,2.5,0.6,2.8,1.1
			c0.7,1.1,1,2.8,0.8,4.5c-0.2,1.4-0.8,2.6-1.5,3.1C25.7,138.4,25.5,138.5,25.3,138.5L25.3,138.5z"/>
	</g>
	<path class="st9" d="M50.9,86.1c1.4,9.8-6.3,17.3-17.6,18.9c-11.3,1.6-21.9-3.2-23.3-13c-1.4-9.8,6.8-23.2,18.1-24.8
		S49.5,76.3,50.9,86.1z"/>
	<ellipse transform="matrix(0.9897 -0.1431 0.1431 0.9897 -13.2282 5.5233)" class="st8" cx="31.8" cy="94.8" rx="11.7" ry="7.5"/>
	<path class="st2" d="M35.5,91.8c0.3,1.9-1.3,3.7-3.5,4c-2.2,0.3-4.2-0.9-4.5-2.8c-0.3-1.9,1.3-3.7,3.5-4
		C33.2,88.6,35.2,89.9,35.5,91.8z"/>
	<g>
		<path class="st2" d="M24.9,85.6c0.2,1.1-0.6,2.2-1.8,2.4c-1.1,0.2-2.2-0.6-2.4-1.8c-0.2-1.1,0.6-2.2,1.8-2.4
			C23.6,83.6,24.7,84.4,24.9,85.6z"/>
		<path class="st2" d="M40,83.4c0.2,1.1-0.6,2.2-1.8,2.4c-1.1,0.2-2.2-0.6-2.4-1.8c-0.2-1.1,0.6-2.2,1.8-2.4
			C38.7,81.4,39.8,82.2,40,83.4z"/>
	</g>
	<path class="st10" d="M33.2,90.5c0,0.3-0.4,0.7-0.9,0.7c-0.5,0.1-1-0.1-1.1-0.4c0-0.3,0.4-0.7,0.9-0.7C32.6,90,33.1,90.2,33.2,90.5
		z"/>
	<path class="st11" d="M26.3,95.9c3.1,4.1,9.4,3.1,11.2-1.6"/>
</g>
<g>
	<g>
		
			<rect x="66.1" y="96.5" transform="matrix(0.9954 9.563380e-02 -9.563380e-02 0.9954 11.5218 -8.5856)" class="st6" width="58.5" height="38.8"/>
		
			<rect x="65.3" y="93.7" transform="matrix(0.9954 9.563454e-02 -9.563454e-02 0.9954 9.8762 -8.8238)" class="st12" width="63.5" height="9.9"/>
		
			<rect x="61.8" y="130.3" transform="matrix(0.9954 9.563468e-02 -9.563468e-02 0.9954 13.3582 -8.32)" class="st13" width="63.5" height="9.9"/>
		<path class="st0" d="M77.5,101.7l7,27.7l-19-1.8L77.5,101.7z"/>
		<path class="st0" d="M96.5,103.5l7,27.7l-19-1.8L96.5,103.5z"/>
		<path class="st0" d="M116.1,105.4l7,27.7l-19-1.8L116.1,105.4z"/>
		<path class="st1" d="M79,121.3c-0.2,1.7-1.8,3-3.7,2.8c-1.9-0.2-3.2-1.7-3.1-3.5c0.2-1.7,1.8-3,3.7-2.8
			C77.8,118,79.2,119.6,79,121.3z"/>
		<path class="st1" d="M98.3,123.2c-0.2,1.7-1.8,3-3.7,2.8c-1.9-0.2-3.2-1.7-3.1-3.5c0.2-1.7,1.8-3,3.7-2.8
			C97.1,119.9,98.5,121.4,98.3,123.2z"/>
		<path class="st1" d="M117.7,124.4c-0.2,1.7-1.8,3-3.7,2.8c-1.9-0.2-3.2-1.7-3.1-3.5c0.2-1.7,1.8-3,3.7-2.8
			C116.5,121.1,117.8,122.6,117.7,124.4z"/>
		
			<rect x="65" y="98.6" transform="matrix(0.9954 9.563454e-02 -9.563454e-02 0.9954 10.1101 -8.7899)" class="st14" width="63.5" height="4.9"/>
		
			<rect x="61.5" y="135.3" transform="matrix(0.9954 9.563468e-02 -9.563468e-02 0.9954 13.6024 -8.2847)" class="st1" width="63.5" height="4.9"/>
	</g>
	<g>
		<line class="st15" x1="106.6" y1="79.5" x2="132.5" y2="51.8"/>
		<path class="st14" d="M110.7,79.1c-0.4,1.8-2.2,3-4,2.6c-1.8-0.4-3-2.2-2.6-4c0.4-1.8,2.2-3,4-2.6C109.9,75.5,111,77.3,110.7,79.1
			z"/>
	</g>
	<g>
		<line class="st15" x1="96" y1="84.2" x2="72.3" y2="56.1"/>
		<path class="st14" d="M92,83.7c0.3,1.8,2,3.1,3.8,2.8c1.8-0.3,3.1-2,2.8-3.8c-0.3-1.8-2-3.1-3.8-2.8C92.9,80.1,91.7,81.8,92,83.7z
			"/>
	</g>
</g>
<g>
	<g>
		<path class="st16" d="M100,134.7c5.8-5.4,31.4-12.6,33.5-22c3-13.8,7.3-27.8,14.1-41.7c2.1-3.3-1.3-6.5-0.6-11.1
			c0.8-5.3,6.8-15.2,21.8-13c6.2,0.9,10.7,3.7,14.5,7.3c9.8,5,12.9,10.2,4,16c-1.5,1-1.7,2.6-3.5,2.6l-4.6-1
			c-1.5,0.9-4.4,2.7-6.7,2.7c-7.8-0.1-8.7,4.9-7.9,5.7c1.3,1.5,1.7,3.2,1.8,5c0.3,4,2.4,12,2.1,16c-1.5,20.2-13.1,34.8-32.8,37.2
			C110.4,141.7,91.6,141.1,100,134.7z"/>
		<path class="st16" d="M181.5,102.4c2.8-5.3,1-10.2-5.6-14.4c-3.6-1.8-8.3-2.9-13.1-3.9c-1.2-0.3-2.5-0.2-3.6,0.2
			c-4.8,1.8-6.4,6.6-4.3,9.7c1.2,1.8,3.4,2.6,5.7,2.4C167,95.7,174.3,99.2,181.5,102.4z"/>
		<path class="st17" d="M176.7,55.2c0.2,1-0.6,2-1.7,2.2c-1.1,0.2-2.1-0.5-2.3-1.5c-0.2-1,0.6-2,1.7-2.2
			C175.5,53.5,176.5,54.2,176.7,55.2z"/>
		<path class="st16" d="M154,123.7c-4.8-11.4,11.2-12.7,15.1-9.4c1.2,1.2,1.6,2.7,1.5,4.4c0.5,4,1.7,5,3.1,4.7
			c6.5-1.6,9.6-0.1,7.9,5c-0.1,2.9-2.5,4.6-5.9,4.7c-4.8,1.2-9.2,0.5-12.9-2.6l-6.2-4.5C156.4,126,154.1,123.9,154,123.7z"/>
	</g>
	<path class="st3" d="M173.1,63.7c6.1,2.1,12.2,4.1,16.5,4.7l-2.5,1.9C183.4,70,178.5,67.4,173.1,63.7z"/>
	<g>
		<ellipse transform="matrix(0.2039 -0.979 0.979 0.2039 36.8247 214.0385)" class="st18" cx="150" cy="84.4" rx="4.4" ry="1.5"/>
		<path class="st18" d="M147.7,96.5c-0.4,1.9-1.3,3.4-1.9,3.3c-0.7-0.1-0.9-1.8-0.5-3.7c0.4-1.9,1.3-3.4,1.9-3.3
			C147.9,92.9,148.1,94.6,147.7,96.5z"/>
		<path class="st18" d="M145.7,107.1c-0.4,1.8-1.3,3.1-2,3c-0.7-0.1-1-1.7-0.6-3.5c0.4-1.8,1.3-3.1,2-3
			C145.8,103.8,146.1,105.3,145.7,107.1z"/>
		<path class="st18" d="M141.1,117.3c-0.8,1.2-1.9,2-2.4,1.7s-0.3-1.6,0.5-2.8c0.8-1.2,1.9-2,2.4-1.7
			C142.1,114.8,141.9,116.1,141.1,117.3z"/>
		<path class="st18" d="M131.7,124.8c-1.4,0.7-2.7,0.8-2.9,0.2c-0.3-0.5,0.6-1.5,2-2.1c1.4-0.7,2.7-0.8,2.9-0.2
			S133.1,124.1,131.7,124.8z"/>
		<path class="st18" d="M121.8,128.9c-1.2,0.6-2.4,0.6-2.7,0.1c-0.3-0.5,0.5-1.4,1.7-2c1.2-0.6,2.4-0.6,2.7-0.1
			C123.8,127.4,123,128.3,121.8,128.9z"/>
	</g>
</g>
<circle class="st3" cx="38.8" cy="83.8" r="0.5"/>
<path class="st3" d="M24.2,85.9c0,0.3-0.2,0.5-0.5,0.5c-0.3,0-0.5-0.2-0.5-0.5c0-0.3,0.2-0.5,0.5-0.5C24,85.3,24.2,85.6,24.2,85.9z"
	/>
<path class="st3" d="M175.7,56.1c0,0.3-0.2,0.5-0.5,0.5c-0.3,0-0.5-0.2-0.5-0.5c0-0.3,0.2-0.5,0.5-0.5
	C175.4,55.6,175.7,55.8,175.7,56.1z"/>
</svg>
