<?xml version="1.0" encoding="utf-8"?>
<!-- Generator: Adobe Illustrator 23.0.3, SVG Export Plug-In . SVG Version: 6.00 Build 0)  -->
<!DOCTYPE svg PUBLIC "-//W3C//DTD SVG 1.1//EN" "http://www.w3.org/Graphics/SVG/1.1/DTD/svg11.dtd" [
	<!ENTITY ns_extend "http://ns.adobe.com/Extensibility/1.0/">
	<!ENTITY ns_ai "http://ns.adobe.com/AdobeIllustrator/10.0/">
	<!ENTITY ns_graphs "http://ns.adobe.com/Graphs/1.0/">
	<!ENTITY ns_vars "http://ns.adobe.com/Variables/1.0/">
	<!ENTITY ns_imrep "http://ns.adobe.com/ImageReplacement/1.0/">
	<!ENTITY ns_sfw "http://ns.adobe.com/SaveForWeb/1.0/">
	<!ENTITY ns_custom "http://ns.adobe.com/GenericCustomNamespace/1.0/">
	<!ENTITY ns_adobe_xpath "http://ns.adobe.com/XPath/1.0/">
]>
<svg version="1.1" id="격리_모드" xmlns:x="&ns_extend;" xmlns:i="&ns_ai;" xmlns:graph="&ns_graphs;"
	 xmlns="http://www.w3.org/2000/svg" xmlns:xlink="http://www.w3.org/1999/xlink" x="0px" y="0px" width="298.7px" height="155.9px"
	 viewBox="0 0 298.7 155.9" style="enable-background:new 0 0 298.7 155.9;" xml:space="preserve">
<style type="text/css">
	.st0{fill:#FFFFFF;}
	.st1{fill:#728A8E;}
	.st2{fill:#ECC3AB;}
	.st3{fill:#9AA5A7;}
	.st4{fill:#EFC52E;}
	.st5{fill:#DD4C3D;}
	.st6{fill:#6CBECC;}
</style>
<metadata>
	<sfw  xmlns="&ns_sfw;">
		<slices></slices>
		<sliceSourceBounds  bottomLeftOrigin="true" height="148.9" width="241.9" x="56.9" y="-384.4"></sliceSourceBounds>
	</sfw>
</metadata>
<g>
	<path class="st0" d="M148.5,109.9c-32,20.3-72.9,13.5-91.6-15.5c-6.8-10.6-9.8-22.6-9.2-34.7c0-0.5,0.1-1.1,0.1-1.6l0.2-2.5l0-0.3
		c0-0.1,0-0.2,0-0.3c0.2-1.9,0.5-3.7,0.9-5.6v0c0.2-1,0.4-2,0.7-3v0c0.5-2,1.1-4,1.8-6c0.3-0.9,0.7-1.9,1.1-2.8c0.8-2,1.8-4,2.8-6
		c0.5-0.9,1-1.8,1.5-2.7c0.8-1.4,1.6-2.7,2.5-4l1.8-2.5v0c1.3-1.7,2.6-3.4,4-5c0.7-0.8,1.4-1.5,2.1-2.2c1.1-1.2,2.3-2.3,3.5-3.5
		c0.8-0.7,1.6-1.4,2.5-2.1c2.2-1.8,4.5-3.5,6.9-5.1c-1,2-1.9,4.1-2.6,6.2c-0.3,0.7-0.5,1.4-0.8,2.2c-0.4,1.2-0.8,2.5-1.1,3.8
		c-0.2,0.7-0.4,1.5-0.6,2.2v0c-0.3,1.3-0.6,2.6-0.8,3.9c-0.1,0.8-0.3,1.5-0.4,2.3c-0.1,1-0.3,2-0.4,3.1c-0.1,0.8-0.1,1.5-0.2,2.3
		c-0.1,1.3-0.1,2.5-0.2,3.8c0,0.8,0,1.5,0,2.3c0,1,0,2,0.1,2.9c0,0.8,0.1,1.5,0.2,2.3c0.1,1,0.2,1.9,0.3,2.9
		c0.1,0.7,0.2,1.5,0.3,2.2c0.1,0.4,0.1,0.7,0.2,1.1c0.1,0.4,0.1,0.8,0.2,1.2c1.8,9.3,5.3,18.4,10.8,26.9c2.2,3.4,4.6,6.6,7.3,9.5
		c0.3,0.3,0.5,0.6,0.8,0.9C108.2,102.1,128.5,110.4,148.5,109.9z"/>
	<path class="st1" d="M69.7,66.6c-0.6,0-1.1-0.1-1.7-0.1c-0.1-1.4-0.4-2.8-0.6-3.7c-0.2-0.8-1.4-0.3-1.1,0.4c0.3,1,0.6,2.5,0.6,3.9
		c0,0,0,0.1,0,0.1c0,2-0.6,3.9-2.7,4.2c-2.8,0.4-5-3.2-5.1-5.6c0-0.8-1.2-0.7-1.2,0.1c0,1.6,0.7,3.2,1.8,4.5
		c-0.6,0.4-1.1,0.9-1.5,1.5c-0.5,0.6,0.5,1.4,0.9,0.8c0.4-0.6,0.9-1,1.5-1.4c0.6,0.5,1.3,0.9,2,1.1c0.1,0.6,0,1.1-0.1,1.7
		c-0.2,0.8,1,1,1.2,0.2c0.2-0.6,0.2-1.1,0.2-1.7c0.3,0,0.6,0,1,0c0.8-0.1,1.5-0.5,2-1c0.4,0.3,0.8,0.5,1.2,0.8
		c0.6,0.4,1.4-0.5,0.8-0.9c-0.4-0.3-0.8-0.6-1.3-0.8c0.4-0.8,0.6-1.9,0.6-2.9c0.5,0,1,0.1,1.4,0.1C70.3,67.9,70.5,66.7,69.7,66.6z"
		/>
	<path class="st2" d="M72.1,80.2c-0.2-0.2-2.6-1.3-6.6,1.5c-1.1,0.8-3,3.1-1.3,4.5c1.8,1.4,4.5,0.1,6.2-1.1
		C71.8,84.1,73.7,81.8,72.1,80.2z"/>
	<path class="st1" d="M93.6,86.3c-5.5,5.5-13.7,6.8-20.9,3.2c-0.7-0.4-0.1-1.4,0.6-1.1c6.7,3.4,14.4,2.2,19.5-3
		C93,85.7,93.3,86,93.6,86.3z"/>
	<path class="st3" d="M70.8,75.4v0.2c0,0.8,1.2,0.8,1.2,0v-0.2C72,74.6,70.8,74.6,70.8,75.4z"/>
	<path class="st3" d="M73.9,72.2c-0.8,0-0.8,1.2,0,1.2C74.7,73.4,74.7,72.2,73.9,72.2z"/>
	<path class="st3" d="M76,76.1c-0.8,0-0.8,1.2,0,1.2S76.8,76.1,76,76.1z"/>
	<path class="st1" d="M73.6,41.7C65,42.5,56.7,45.1,49,49.4c0.2-1,0.4-2,0.7-3v0c7.4-3.9,15.4-6.3,23.8-7
		C73.5,40.2,73.6,41,73.6,41.7z"/>
	<path class="st1" d="M73.4,34.2c0,0.8,0,1.5,0,2.3c-7.4,0.2-14.7,1.6-21.8,4c0.3-0.9,0.7-1.9,1.1-2.8
		C59.4,35.6,66.3,34.4,73.4,34.2z"/>
	<path class="st1" d="M73.7,28.1c-0.1,0.8-0.1,1.5-0.2,2.3c-6.1-0.5-12.1,0-18.1,1.4c0.5-0.9,1-1.8,1.5-2.7
		C62.5,28,68.1,27.6,73.7,28.1z"/>
	<path class="st1" d="M74.5,22.7c-0.1,0.8-0.3,1.5-0.4,2.3c-4.9-0.7-9.7-0.7-14.6,0l1.8-2.5v0C65.7,22,70.1,22.1,74.5,22.7z"/>
	<path class="st1" d="M75.8,16.6c-2.8-0.8-5.6-1.2-8.4-1.4c-0.7,0.7-1.4,1.5-2.1,2.2c3.4,0,6.7,0.4,10,1.3v0L75.8,16.6z"/>
	<path class="st1" d="M77.7,10.7c-0.3,0.7-0.5,1.4-0.8,2.2c-1.9-0.7-3.9-1.1-6-1.1c0.8-0.7,1.6-1.4,2.5-2.1
		C74.9,9.8,76.3,10.2,77.7,10.7z"/>
	<path class="st1" d="M74.7,49c-9.5,1.2-18.5,4.3-26.9,9.1l0.2-2.5l0-0.3c8.2-4.5,17-7.4,26.2-8.6c0.1,0.4,0.1,0.7,0.2,1.1
		C74.5,48.2,74.6,48.6,74.7,49z"/>
</g>
<g>
	<path class="st4" d="M187.6,92l-0.4-21.8l11-0.2c0.5,6.3,5.5,10.7,11.6,10.6c6.1-0.1,11-4.6,11.3-11l11-0.2l0.4,21.8L187.6,92z"/>
	<path class="st5" d="M186.8,48.4l0.4,21.8l11-0.2c0.3-6.3,5.2-10.9,11.3-11c6.1-0.1,11.1,4.3,11.6,10.6l11-0.2l-0.4-21.8
		L186.8,48.4z"/>
	<g>
		<polygon class="st4" points="208.8,15.9 194,31.5 224.1,31 		"/>
		<polygon class="st6" points="194,31.5 179,47.9 239.6,46.9 224.1,31 		"/>
	</g>
	<g>
		
			<rect x="176.9" y="132.4" transform="matrix(0.9999 -1.648717e-02 1.648717e-02 0.9999 -2.3231 3.0995)" class="st6" width="19.9" height="20.2"/>
		
			<rect x="176.5" y="112.2" transform="matrix(0.9999 -1.648717e-02 1.648717e-02 0.9999 -1.9909 3.0913)" class="st5" width="19.9" height="20.2"/>
		
			<rect x="176.2" y="92.1" transform="matrix(0.9999 -1.649340e-02 1.649340e-02 0.9999 -1.6592 3.0843)" class="st6" width="19.9" height="20.2"/>
		<path class="st4" d="M131.4,113.1l0.3,20.2l11-0.2c0.3-5.9,5.2-10.1,11.3-10.2c6.1-0.1,11.1,3.9,11.6,9.8l11-0.2l-0.3-20.2
			L131.4,113.1z"/>
		
			<rect x="131.9" y="132.9" transform="matrix(0.9999 -1.649223e-02 1.649223e-02 0.9999 -2.3371 2.5657)" class="st5" width="45" height="20.2"/>
		<polygon class="st6" points="154,83.1 171.6,112.5 137.3,113 		"/>
	</g>
	<g>
		
			<rect x="224.5" y="131" transform="matrix(-0.9999 1.649340e-02 -1.649340e-02 -0.9999 471.1363 278.2278)" class="st6" width="19.9" height="20.2"/>
		
			<rect x="224.1" y="110.8" transform="matrix(-0.9999 1.649460e-02 -1.649460e-02 -0.9999 470.1392 237.927)" class="st4" width="19.9" height="20.2"/>
		
			<rect x="223.8" y="90.7" transform="matrix(-0.9999 1.649345e-02 -1.649345e-02 -0.9999 469.1419 197.6268)" class="st5" width="19.9" height="20.2"/>
		<path class="st6" d="M288.8,109.9l0.3,20.2l-11,0.2c-0.5-5.8-5.5-9.9-11.6-9.8c-6.1,0.1-11,4.3-11.3,10.2l-11,0.2l-0.3-20.2
			L288.8,109.9z"/>
		
			<rect x="244.4" y="130.4" transform="matrix(-0.9999 1.649222e-02 -1.649222e-02 -0.9999 535.9833 276.6235)" class="st5" width="45" height="20.2"/>
		<polygon class="st5" points="265.3,80.6 248.7,110.6 282.9,110 		"/>
	</g>
	<path class="st6" d="M254.3,90.9l-21.8,0.4l-0.4-21.8l0,0C244.2,69.3,254.1,78.8,254.3,90.9L254.3,90.9z"/>
	<path class="st5" d="M165.8,92l21.8-0.4l-0.4-21.8l0,0C175.2,70,165.6,80,165.8,92L165.8,92z"/>
</g>
</svg>
