<?xml version="1.0" encoding="utf-8"?>
<!-- Generator: Adobe Illustrator 23.0.3, SVG Export Plug-In . SVG Version: 6.00 Build 0)  -->
<!DOCTYPE svg PUBLIC "-//W3C//DTD SVG 1.1//EN" "http://www.w3.org/Graphics/SVG/1.1/DTD/svg11.dtd" [
	<!ENTITY ns_extend "http://ns.adobe.com/Extensibility/1.0/">
	<!ENTITY ns_ai "http://ns.adobe.com/AdobeIllustrator/10.0/">
	<!ENTITY ns_graphs "http://ns.adobe.com/Graphs/1.0/">
	<!ENTITY ns_vars "http://ns.adobe.com/Variables/1.0/">
	<!ENTITY ns_imrep "http://ns.adobe.com/ImageReplacement/1.0/">
	<!ENTITY ns_sfw "http://ns.adobe.com/SaveForWeb/1.0/">
	<!ENTITY ns_custom "http://ns.adobe.com/GenericCustomNamespace/1.0/">
	<!ENTITY ns_adobe_xpath "http://ns.adobe.com/XPath/1.0/">
]>
<svg version="1.1" id="Layer_1" xmlns:x="&ns_extend;" xmlns:i="&ns_ai;" xmlns:graph="&ns_graphs;"
	 xmlns="http://www.w3.org/2000/svg" xmlns:xlink="http://www.w3.org/1999/xlink" x="0px" y="0px" width="30px" height="25px"
	 viewBox="0 0 30 25" style="enable-background:new 0 0 30 25;" xml:space="preserve">
<style type="text/css">
	.st0{fill:#F1A38C;}
</style>
<metadata>
	<sfw  xmlns="&ns_sfw;">
		<slices></slices>
		<sliceSourceBounds  bottomLeftOrigin="true" height="20.8" width="30" x="9" y="-34.4"></sliceSourceBounds>
	</sfw>
</metadata>
<path class="st0" d="M26.3,1.9c0,0-2.8,2.2-3.3,6.8c3.9,0,7,3.1,7,7c0,3.9-3.1,7-7,7c-3.7,0-6.8-3-7-6.7c0-0.3,0-0.6,0-0.9
	C16.1,9.3,20.5,3.1,26.3,1.9z M0,15.1c0,0.3,0,0.6,0,0.9c0.2,3.7,3.3,6.7,7,6.7c3.9,0,7-3.1,7-7c0-3.9-3.1-7-7-7
	c0.5-4.5,3.3-6.8,3.3-6.8C4.5,3.1,0.1,9.3,0,15.1z"/>
</svg>
