<?xml version="1.0" encoding="utf-8"?>
<!-- Generator: Adobe Illustrator 23.0.3, SVG Export Plug-In . SVG Version: 6.00 Build 0)  -->
<!DOCTYPE svg PUBLIC "-//W3C//DTD SVG 1.1//EN" "http://www.w3.org/Graphics/SVG/1.1/DTD/svg11.dtd" [
	<!ENTITY ns_extend "http://ns.adobe.com/Extensibility/1.0/">
	<!ENTITY ns_ai "http://ns.adobe.com/AdobeIllustrator/10.0/">
	<!ENTITY ns_graphs "http://ns.adobe.com/Graphs/1.0/">
	<!ENTITY ns_vars "http://ns.adobe.com/Variables/1.0/">
	<!ENTITY ns_imrep "http://ns.adobe.com/ImageReplacement/1.0/">
	<!ENTITY ns_sfw "http://ns.adobe.com/SaveForWeb/1.0/">
	<!ENTITY ns_custom "http://ns.adobe.com/GenericCustomNamespace/1.0/">
	<!ENTITY ns_adobe_xpath "http://ns.adobe.com/XPath/1.0/">
]>
<svg version="1.1" id="Layer_1" xmlns:x="&ns_extend;" xmlns:i="&ns_ai;" xmlns:graph="&ns_graphs;"
	 xmlns="http://www.w3.org/2000/svg" xmlns:xlink="http://www.w3.org/1999/xlink" x="0px" y="0px" width="130px" height="170px"
	 viewBox="0 0 130 170" style="enable-background:new 0 0 130 170;" xml:space="preserve">
<style type="text/css">
	.st0{fill:#F8A48E;}
	.st1{clip-path:url(#SVGID_2_);}
	.st2{fill:#4F2C15;}
	.st3{fill:#EAEAEA;}
	.st4{fill:#EA9E64;}
	.st5{fill:#FFFFFF;}
	.st6{fill:#F6BC8B;}
	.st7{fill:url(#SVGID_3_);}
	.st8{fill:url(#SVGID_4_);}
	.st9{fill:#D96357;}
</style>
<metadata>
	<sfw  xmlns="&ns_sfw;">
		<slices></slices>
		<sliceSourceBounds  bottomLeftOrigin="true" height="160.3" width="124.4" x="0.2" y="-140.2"></sliceSourceBounds>
	</sfw>
</metadata>
<path class="st0" d="M117.8,107.5c0,31.8-25.7,57.5-57.5,57.5S2.8,139.3,2.8,107.5C2.8,75.8,28.5,50,60.3,50S117.8,75.8,117.8,107.5
	z"/>
<g>
	<path class="st0" d="M108.3,5H34.2c-10.4,0-18.9,8.5-18.9,18.9c0,8.8,6,16.3,14.4,18.3v8c0,0.9,0.5,1.6,1.3,2
		c0.3,0.1,0.5,0.2,0.8,0.2c0.6,0,1.1-0.2,1.5-0.7l8.5-9h66.4c10.4,0,18.9-8.5,18.9-18.9C127.2,13.4,118.8,5,108.3,5z M108.3,40H40.8
		l-8.3,8.8v-8.8l-1.1-0.2c-7.7-1.4-13.3-8.1-13.3-15.9c0-8.9,7.3-16.2,16.2-16.2h74.1c8.9,0,16.2,7.3,16.2,16.2
		C124.5,32.8,117.3,40,108.3,40z"/>
</g>
<g>
	<defs>
		<path id="SVGID_1_" d="M117.8,107.5c0,31.8-25.7,57.5-57.5,57.5S2.8,139.3,2.8,107.5C2.8,75.8,28.5,50,60.3,50
			S117.8,75.8,117.8,107.5z"/>
	</defs>
	<clipPath id="SVGID_2_">
		<use xlink:href="#SVGID_1_"  style="overflow:visible;"/>
	</clipPath>
	<g class="st1">
		<path class="st2" d="M99.4,116.9c1.9-4.8,3-10.1,3-15.6c0-23.2-18.8-42.1-42.1-42.1c-23.2,0-42.1,18.8-42.1,42.1
			c0,5.5,1.1,10.8,3,15.6H99.4z"/>
		<path class="st3" d="M79.1,149.7c-1-3.6-2.4-6.3-4.4-8.4c-3.9-4-9.2-4.6-14.4-4.6c-5.2,0-10.5,0.6-14.4,4.6c-2,2-3.4,4.8-4.4,8.4
			c-1,3.8-1.5,8.4-1.5,14.2c0,0.7,0.6,1.3,1.3,1.3h38.2c0.7,0,1.3-0.6,1.3-1.3C80.7,158.1,80.2,153.5,79.1,149.7z"/>
		<polygon class="st4" points="45.3,141.6 60.3,160.7 75.2,141.6 		"/>
		<g>
			<g>
				<path class="st5" d="M60.3,160.7l-15.4-19.9l1.3,14c0,0,3.4-0.2,5.2,0.6C53.2,156.2,60.3,160.7,60.3,160.7z"/>
			</g>
			<g>
				<path class="st5" d="M60.3,160.7l15.4-19.9l-1.3,14c0,0-3.4-0.2-5.2,0.6C67.4,156.2,60.3,160.7,60.3,160.7z"/>
			</g>
		</g>
		<g>
			<path class="st4" d="M13.7,114.3c0,6.3,5.3,11.2,12.1,11.2c3.2,0,6.1-1.1,8.2-3.1c2.1-2.1,3.3-4.9,3.3-8c0-3.2-1.2-5.9-3.5-7.8
				c-2.1-1.8-5.1-2.8-8.2-2.8C18.6,103.7,13.7,108.1,13.7,114.3z"/>
		</g>
		<g>
			<path class="st4" d="M83.3,114.3c0,6.5,4.8,11.2,11.5,11.2c6.8,0,12.1-4.9,12.1-11.2c0-6.2-4.8-10.6-11.8-10.6
				C88.1,103.7,83.3,108.1,83.3,114.3z"/>
		</g>
		<path class="st6" d="M98.4,107.5c0,21.1-17.1,38.2-38.2,38.2c-21.1,0-38.2-17.1-38.2-38.2c0-21.1,17.1-38.2,38.2-38.2
			C81.4,69.4,98.4,86.5,98.4,107.5z"/>
		<path class="st2" d="M42.7,109.8c0,2.9-1.5,5.3-3.4,5.3c-1.9,0-3.4-2.4-3.4-5.3c0-2.9,1.5-5.3,3.4-5.3
			C41.2,104.6,42.7,106.9,42.7,109.8z"/>
		<path class="st2" d="M84.6,109.8c0,2.9-1.5,5.3-3.4,5.3c-1.9,0-3.4-2.4-3.4-5.3c0-2.9,1.5-5.3,3.4-5.3
			C83.1,104.6,84.6,106.9,84.6,109.8z"/>
		
			<radialGradient id="SVGID_3_" cx="4605.8169" cy="1964.999" r="31.341" gradientTransform="matrix(0.2832 0 0 0.2302 -1269.5602 -329.5504)" gradientUnits="userSpaceOnUse">
			<stop  offset="0.6" style="stop-color:#F9A783"/>
			<stop  offset="1" style="stop-color:#F6BC8B"/>
		</radialGradient>
		<path class="st7" d="M43.7,122.8c0,4-4,7.2-8.9,7.2c-4.9,0-8.9-3.2-8.9-7.2c0-4,4-7.2,8.9-7.2C39.8,115.6,43.7,118.8,43.7,122.8z"
			/>
		
			<radialGradient id="SVGID_4_" cx="4785.3779" cy="1964.999" r="31.3402" gradientTransform="matrix(0.2832 0 0 0.2302 -1269.5602 -329.5504)" gradientUnits="userSpaceOnUse">
			<stop  offset="0.6" style="stop-color:#F9A783"/>
			<stop  offset="1" style="stop-color:#F6BC8B"/>
		</radialGradient>
		<path class="st8" d="M94.6,122.8c0,4-4,7.2-8.9,7.2c-4.9,0-8.9-3.2-8.9-7.2c0-4,4-7.2,8.9-7.2C90.6,115.6,94.6,118.8,94.6,122.8z"
			/>
		<path class="st2" d="M77.7,74.8c0,0,4.5,6.4,15.1,13.4c1.5,1,3.8,1.2,4.1-0.2c1.1-5.7-2.5-9-2.5-9c-4.6-9.1-18.3-14.9-34.2-14.9
			S30.6,69.9,26,79c0,0-2.5,4.4-1,9.2C25.6,90,68.5,80.4,77.7,74.8z"/>
		<path class="st9" d="M52.7,121.4c-0.7,0.2-1.1,1-0.8,1.6c0.1,0.2,1.7,5.1,8.4,5.1c6.7,0,8.3-4.9,8.4-5.1c0.2-0.7-0.2-1.4-0.8-1.6
			c-0.7-0.2-1.4,0.2-1.6,0.8l0,0c0,0.1-1.2,4-5.9,4c-4.7,0-5.8-3.9-5.9-4l0,0C54.2,121.5,53.4,121.2,52.7,121.4z"/>
	</g>
</g>
<g>
	<path class="st0" d="M48.7,29.6H34.1v-1.8h6.3v-3.1h2.1v3.1h6.2V29.6z M43.2,21.7c0.7,0.4,1.4,0.8,2.2,1.1c0.7,0.3,1.6,0.7,2.6,1
		l-1.3,1.6c-0.9-0.3-1.8-0.7-2.6-1.1c-0.8-0.4-1.6-0.9-2.4-1.4c-0.8,0.6-1.7,1.1-2.6,1.5c-0.9,0.4-1.9,0.9-2.9,1.2L34.9,24
		c1-0.3,2-0.7,2.9-1.1c0.9-0.4,1.7-0.8,2.4-1.3c0.7-0.4,1.3-0.9,1.8-1.3c0.5-0.4,0.8-0.8,1-1.1c-0.3,0-0.8,0-1.4,0s-1.2,0-1.8,0
		h-3.3v-1.8h4.7c0.7,0,1.5,0,2.3,0c0.8,0,1.7,0,2.7,0c-0.2,0.8-0.6,1.6-1.1,2.3C44.5,20.4,43.9,21,43.2,21.7z"/>
	<path class="st0" d="M52.3,26.5h1.6c1,0,2-0.1,3-0.2c1-0.1,1.9-0.3,2.8-0.5v1.7c-0.4,0.1-0.8,0.2-1.3,0.3c-0.5,0.1-1,0.2-1.6,0.2
		c-0.5,0.1-1.1,0.1-1.7,0.2c-0.6,0-1.1,0.1-1.7,0.1h-3.2v-6.5h5v-2.6h-5v-1.8h7.1v6.2h-5V26.5z M60.3,16.1h2.1v15.8h-2.1V16.1z"/>
	<path class="st0" d="M64.8,23.3h2.4c0.6,0,1.2,0,1.9,0s1.4,0,2-0.1s1.4-0.1,2.1-0.1s1.3-0.1,2-0.2v1.6c-0.6,0.1-1.3,0.2-1.9,0.2
		c-0.7,0.1-1.4,0.1-2.1,0.2v2.6h-2V25c-0.3,0-0.6,0-1,0c-0.3,0-0.6,0-0.9,0h-2.5V23.3z M74.2,19.5c0,0.5-0.1,0.9-0.3,1.3
		c-0.2,0.4-0.5,0.7-0.8,1c-0.4,0.3-0.8,0.5-1.3,0.7c-0.5,0.2-1,0.2-1.7,0.2s-1.2-0.1-1.7-0.2s-0.9-0.4-1.3-0.7s-0.6-0.6-0.8-1
		s-0.3-0.8-0.3-1.3c0-0.5,0.1-0.9,0.3-1.3c0.2-0.4,0.5-0.7,0.8-1s0.8-0.5,1.3-0.7c0.5-0.2,1.1-0.2,1.7-0.2s1.2,0.1,1.7,0.2
		c0.5,0.2,0.9,0.4,1.3,0.7c0.4,0.3,0.6,0.6,0.8,1C74.1,18.6,74.2,19,74.2,19.5z M78.2,31.6h-11v-3.8h2v2h8.9V31.6z M72.1,19.5
		c0-0.2,0-0.4-0.1-0.6s-0.2-0.4-0.3-0.5s-0.3-0.3-0.6-0.4c-0.2-0.1-0.6-0.1-0.9-0.1s-0.7,0-0.9,0.1s-0.4,0.2-0.6,0.4
		s-0.2,0.3-0.3,0.5s-0.1,0.4-0.1,0.6c0,0.2,0,0.4,0.1,0.6s0.2,0.4,0.3,0.5c0.1,0.1,0.3,0.3,0.6,0.4c0.2,0.1,0.6,0.1,0.9,0.1
		s0.7,0,0.9-0.1c0.3-0.1,0.4-0.2,0.6-0.4c0.1-0.1,0.2-0.3,0.3-0.5S72.1,19.7,72.1,19.5z M75.8,28.6v-1.4h-3.2v-1.6h3.2v-9.4h2.1
		v12.4H75.8z"/>
	<path class="st0" d="M86.1,21c0.5,0.5,1,1,1.6,1.5c0.6,0.4,1.2,0.8,1.8,1L88.4,25c-0.6-0.3-1.2-0.7-1.8-1.1c-0.6-0.4-1.1-1-1.6-1.5
		c-0.6,0.6-1.3,1.2-2,1.6c-0.7,0.5-1.5,0.9-2.4,1.4l-1.3-1.5c0.9-0.4,1.7-0.8,2.3-1.2c0.7-0.5,1.3-0.9,1.8-1.4
		c0.5-0.5,0.9-0.9,1.1-1.4s0.5-0.9,0.5-1.3c-0.5,0-0.9,0-1.4,0s-0.9,0-1.4,0h-1.9v-1.8H83c0.8,0,1.5,0,2.3,0c0.8,0,1.5,0,2.3,0
		c-0.1,0.8-0.2,1.6-0.5,2.3C86.8,19.8,86.5,20.4,86.1,21z M87,25.7c0.9,0,1.6,0.1,2.3,0.2c0.7,0.2,1.2,0.4,1.6,0.7
		c0.4,0.3,0.8,0.6,1,1c0.2,0.4,0.3,0.8,0.3,1.2s-0.1,0.9-0.3,1.2c-0.2,0.4-0.6,0.7-1,1c-0.4,0.3-1,0.5-1.6,0.7
		C88.6,31.9,87.9,32,87,32s-1.6-0.1-2.3-0.2c-0.7-0.2-1.2-0.4-1.6-0.7c-0.4-0.3-0.8-0.6-1-1c-0.2-0.4-0.3-0.8-0.3-1.2
		s0.1-0.9,0.3-1.2c0.2-0.4,0.6-0.7,1-1c0.4-0.3,1-0.5,1.6-0.7C85.4,25.8,86.2,25.7,87,25.7z M87,27.4c-0.6,0-1,0-1.4,0.1
		s-0.7,0.2-1,0.3c-0.2,0.1-0.4,0.3-0.5,0.5c-0.1,0.2-0.2,0.4-0.2,0.6s0.1,0.4,0.2,0.6c0.1,0.2,0.3,0.3,0.5,0.5
		c0.2,0.1,0.6,0.2,1,0.3s0.9,0.1,1.4,0.1s1,0,1.4-0.1c0.4-0.1,0.7-0.2,1-0.3c0.2-0.1,0.4-0.3,0.5-0.5c0.1-0.2,0.2-0.4,0.2-0.6
		s-0.1-0.4-0.2-0.6c-0.1-0.2-0.3-0.3-0.5-0.5c-0.3-0.1-0.6-0.2-1-0.3C88.1,27.4,87.6,27.4,87,27.4z M94.3,21.5H92v4.2h-2.1v-9.6H92
		v3.6h2.4V21.5z"/>
	<path class="st0" d="M99.4,23.6h-3.7v-7h2.2v5.2h1.9c1,0,2-0.1,2.9-0.2c0.9-0.1,1.8-0.3,2.6-0.5v1.7c-0.4,0.1-0.8,0.2-1.3,0.3
		s-1,0.2-1.5,0.2c-0.5,0.1-1,0.1-1.6,0.2C100.5,23.6,99.9,23.6,99.4,23.6z M107.9,31.7h-10v-6.3h10V31.7z M105.8,27.2h-5.8v2.8h5.8
		V27.2z M105.8,16.1h2.1v8.6h-2.1V16.1z"/>
</g>
</svg>
