<?xml version="1.0" encoding="utf-8"?>
<!-- Generator: Adobe Illustrator 23.0.3, SVG Export Plug-In . SVG Version: 6.00 Build 0)  -->
<!DOCTYPE svg PUBLIC "-//W3C//DTD SVG 1.1//EN" "http://www.w3.org/Graphics/SVG/1.1/DTD/svg11.dtd" [
	<!ENTITY ns_extend "http://ns.adobe.com/Extensibility/1.0/">
	<!ENTITY ns_ai "http://ns.adobe.com/AdobeIllustrator/10.0/">
	<!ENTITY ns_graphs "http://ns.adobe.com/Graphs/1.0/">
	<!ENTITY ns_vars "http://ns.adobe.com/Variables/1.0/">
	<!ENTITY ns_imrep "http://ns.adobe.com/ImageReplacement/1.0/">
	<!ENTITY ns_sfw "http://ns.adobe.com/SaveForWeb/1.0/">
	<!ENTITY ns_custom "http://ns.adobe.com/GenericCustomNamespace/1.0/">
	<!ENTITY ns_adobe_xpath "http://ns.adobe.com/XPath/1.0/">
]>
<svg version="1.1" id="Layer_1" xmlns:x="&ns_extend;" xmlns:i="&ns_ai;" xmlns:graph="&ns_graphs;"
	 xmlns="http://www.w3.org/2000/svg" xmlns:xlink="http://www.w3.org/1999/xlink" x="0px" y="0px" width="130px" height="170px"
	 viewBox="0 0 130 170" style="enable-background:new 0 0 130 170;" xml:space="preserve">
<style type="text/css">
	.st0{fill:#F8A48E;}
	.st1{fill:#EEE7CC;}
	.st2{clip-path:url(#SVGID_2_);}
	.st3{fill:#EAEAEA;}
	.st4{fill:#F9A973;}
	.st5{fill:#F491A4;}
	.st6{fill:#4F2C15;}
	.st7{fill:#FDCDA6;}
	.st8{fill:url(#SVGID_3_);}
	.st9{fill:url(#SVGID_4_);}
	.st10{fill:#D96357;}
	.st11{font-family:'NanumBarunGothicBold';}
	.st12{font-size:17px;}
</style>
<metadata>
	<sfw  xmlns="&ns_sfw;">
		<slices></slices>
		<sliceSourceBounds  bottomLeftOrigin="true" height="160.3" width="124.4" x="0.2" y="-140.2"></sliceSourceBounds>
	</sfw>
</metadata>
<g>
	<path class="st0" d="M108.3,5H34.2c-10.4,0-18.9,8.5-18.9,18.9c0,8.8,6,16.3,14.4,18.3v8c0,0.9,0.5,1.6,1.3,2
		c0.3,0.1,0.5,0.2,0.8,0.2c0.6,0,1.1-0.2,1.5-0.7l8.5-9h66.4c10.4,0,18.9-8.5,18.9-18.9C127.2,13.4,118.8,5,108.3,5z M108.3,40H40.8
		l-8.3,8.8v-8.8l-1.1-0.2c-7.7-1.4-13.3-8.1-13.3-15.9c0-8.9,7.3-16.2,16.2-16.2h74.1c8.9,0,16.2,7.3,16.2,16.2
		C124.5,32.8,117.3,40,108.3,40z"/>
</g>
<path class="st1" d="M117.8,107.5c0,31.8-25.7,57.5-57.5,57.5c-31.8,0-57.5-25.7-57.5-57.5C2.8,75.8,28.5,50,60.3,50
	C92,50,117.8,75.8,117.8,107.5z"/>
<g>
	<defs>
		<path id="SVGID_1_" d="M117.8,107.5c0,31.8-25.7,57.5-57.5,57.5c-31.8,0-57.5-25.7-57.5-57.5C2.8,75.8,28.5,50,60.3,50
			C92,50,117.8,75.8,117.8,107.5z"/>
	</defs>
	<clipPath id="SVGID_2_">
		<use xlink:href="#SVGID_1_"  style="overflow:visible;"/>
	</clipPath>
	<g class="st2">
		<g>
			<path class="st3" d="M45.9,141.3c-4.1,4.2-6,11.3-6,22.6c0,0.7,0.6,1.3,1.3,1.3h38.2c0.7,0,1.3-0.6,1.3-1.3
				c0-11.2-1.9-18.4-6-22.6c-3.9-4-9.2-4.6-14.4-4.6S49.8,137.3,45.9,141.3z"/>
			<polygon class="st4" points="45.2,139.8 60.3,157.1 75.4,139.8 			"/>
			<path class="st5" d="M54,138.6h-4.3c-1.4,0.7-2.6,1.5-3.8,2.7c-4.1,4.2-6,11.3-6,22.6c0,0.7,0.6,1.3,1.3,1.3H54V138.6z"/>
			<path class="st5" d="M66.6,138.6h4.3c1.4,0.7,2.6,1.5,3.8,2.7c4.1,4.2,6,11.3,6,22.6c0,0.7-0.6,1.3-1.3,1.3H66.6V138.6z"/>
		</g>
		<g>
			<path class="st6" d="M23.1,121.7c0,0,1,5.9-1.9,10.6c-1.5,2.5-2,4.4,0,4.9c2,0.5,7-0.1,8.9-1.4c0,0,0.7,3.8,1.1,5.2
				c1,3,7.2-0.1,9.5-1.9c2.3-1.7,5.1-4.2,5.1-4.2l-16.2-16.1L23.1,121.7z"/>
			<path class="st6" d="M97.4,121.7c0,0-1,5.9,1.9,10.6c1.5,2.5,2,4.4,0,4.9c-2,0.5-7-0.1-8.9-1.4c0,0-0.7,3.8-1.1,5.2
				c-1,3-7.2-0.1-9.5-1.9c-2.3-1.7-5.1-4.2-5.1-4.2l16.2-16.1L97.4,121.7z"/>
		</g>
		<g>
			<g>
				
					<ellipse transform="matrix(1 -7.462142e-03 7.462142e-03 1 -0.7542 0.4526)" class="st6" cx="60.3" cy="101.3" rx="42.1" ry="42.1"/>
				<g>
					<path class="st4" d="M13.7,114.3c0,6.3,5.3,11.2,12.1,11.2c6.7,0,11.5-4.7,11.5-11.2c0-6.2-4.8-10.6-11.8-10.6
						C18.6,103.7,13.7,108.1,13.7,114.3z"/>
				</g>
				<g>
					<path class="st4" d="M83.3,114.3c0,6.5,4.8,11.2,11.5,11.2c6.8,0,12.1-4.9,12.1-11.2c0-6.2-4.8-10.6-11.8-10.6
						C88.1,103.7,83.3,108.1,83.3,114.3z"/>
				</g>
				<path class="st7" d="M98.4,107.5c0,21.1-17.1,38.2-38.2,38.2c-21.1,0-38.2-17.1-38.2-38.2c0-21.1,17.1-38.2,38.2-38.2
					C81.4,69.4,98.4,86.5,98.4,107.5z"/>
				<path class="st6" d="M42.7,109.8c0,2.9-1.5,5.3-3.4,5.3c-1.9,0-3.4-2.4-3.4-5.3c0-2.9,1.5-5.3,3.4-5.3
					C41.2,104.6,42.7,106.9,42.7,109.8z"/>
				<path class="st6" d="M84.6,109.8c0,2.9-1.5,5.3-3.4,5.3s-3.4-2.4-3.4-5.3c0-2.9,1.5-5.3,3.4-5.3S84.6,106.9,84.6,109.8z"/>
				
					<radialGradient id="SVGID_3_" cx="4605.8169" cy="1964.999" r="31.341" gradientTransform="matrix(0.2832 0 0 0.2302 -1269.5602 -329.5504)" gradientUnits="userSpaceOnUse">
					<stop  offset="0.6" style="stop-color:#F9B397"/>
					<stop  offset="1" style="stop-color:#FDCDA6"/>
				</radialGradient>
				<path class="st8" d="M43.7,122.8c0,4-4,7.2-8.9,7.2c-4.9,0-8.9-3.2-8.9-7.2c0-4,4-7.2,8.9-7.2C39.8,115.6,43.7,118.8,43.7,122.8
					z"/>
				
					<radialGradient id="SVGID_4_" cx="4785.3779" cy="1964.999" r="31.3402" gradientTransform="matrix(0.2832 0 0 0.2302 -1269.5602 -329.5504)" gradientUnits="userSpaceOnUse">
					<stop  offset="0.6" style="stop-color:#F9B397"/>
					<stop  offset="1" style="stop-color:#FDCDA6"/>
				</radialGradient>
				<path class="st9" d="M94.6,122.8c0,4-4,7.2-8.9,7.2c-4.9,0-8.9-3.2-8.9-7.2c0-4,4-7.2,8.9-7.2C90.6,115.6,94.6,118.8,94.6,122.8
					z"/>
			</g>
		</g>
		<path class="st6" d="M43.2,102.9c-0.3,0-0.5,0.1-0.7,0.3c-0.2,0.3-0.2,0.6-0.3,0.9c-0.1,0.3-0.3,0.6-0.5,0.9
			c-0.3,0.4-0.6,0.7-0.9,1c-0.2,0.2-0.5,0.5-0.5,0.8c0,0.3,0.2,0.6,0.5,0.7c0.2,0.1,0.5,0.1,0.7,0c0.5-0.2,0.9-0.6,1.2-1
			c0.2-0.2,0.3-0.4,0.5-0.5c0.5-0.6,1.4-1.8,0.9-2.6C44,103.1,43.6,102.9,43.2,102.9z"/>
		<path class="st6" d="M85.2,102.9c-0.3,0-0.5,0.1-0.7,0.3c-0.2,0.3-0.2,0.6-0.3,0.9c-0.1,0.3-0.3,0.6-0.5,0.9
			c-0.3,0.4-0.6,0.7-0.9,1c-0.2,0.2-0.5,0.5-0.5,0.8c0,0.3,0.2,0.6,0.5,0.7c0.2,0.1,0.5,0.1,0.7,0c0.5-0.2,0.9-0.6,1.2-1
			c0.2-0.2,0.3-0.4,0.5-0.5c0.5-0.6,1.4-1.8,0.9-2.6C85.9,103.1,85.5,102.9,85.2,102.9z"/>
		<path class="st10" d="M52.7,121.4c-0.7,0.2-1.1,1-0.8,1.6c0.1,0.2,1.7,5.1,8.4,5.1c6.7,0,8.3-4.9,8.4-5.1c0.2-0.7-0.2-1.4-0.8-1.6
			c-0.7-0.2-1.4,0.2-1.6,0.8l0,0c0,0.1-1.2,4-5.9,4c-4.7,0-5.8-3.9-5.9-4l0,0C54.2,121.5,53.4,121.2,52.7,121.4z"/>
		<path class="st6" d="M96.4,88.9c-0.5-1.1-1-2.3-1.6-3.3c-1.6-2.8-3.7-5.4-6-7.7c-2.3-2.3-4.9-4.3-7.6-6.1
			c-2.7-1.8-5.6-3.2-8.8-4.1c-3.7-1-7.5-1.3-11.2-1.6c-2.2-0.2-4.5,0-6.7,0.4c-2.5,0.4-5,1.1-7.3,1.9c-1.4,0.5-2.8,1.1-4.2,1.8
			c-2.9,1.4-5.5,3.3-8,5.4c-2.1,1.8-4,3.8-5.7,6c-1.8,2.4-3.4,5-4.6,7.8c-0.4,0.8-0.7,1.7-1,2.5c-0.9,2.5-1.9,5.1-2.2,7.7
			c-0.1,1.2,0.2,5.4,0.8,4.2c0.4-0.7,0.9-1.8,0.9-1.9c1.5-2.6,2.9-4.6,4.8-6.9c2.4-2.9,5.2-5.6,8.2-8c1.6-1.2,3.3-2.4,5-3.4
			c4.9-2.9,8.5-4.7,10.6-5.7c-0.3,2.6-0.6,4.2-0.8,5.5c-0.1,0.5-0.5,1.2-0.1,1.4c1.6,0.9,6.8-1.9,11-4.9c3.4-2.3,6.5-5.8,8.9-9
			c4.6,10.2,10,14.2,17.9,17.7c0.6,0.3,1.2,0.5,1.7,0.7c1.8,0.7,3.6,1.3,5.3,2.2c0.3,0.2,0.5,0.3,0.7,0.6c0-0.5,0-1.3-0.1-2.3
			C96.5,89.6,96.4,89.3,96.4,88.9z"/>
	</g>
</g>
<text transform="matrix(1 0 0 1 47.7068 29.7114)" class="st0 st11 st12">산모님</text>
</svg>
