<?xml version="1.0" encoding="utf-8"?>
<!-- Generator: Adobe Illustrator 23.0.3, SVG Export Plug-In . SVG Version: 6.00 Build 0)  -->
<!DOCTYPE svg PUBLIC "-//W3C//DTD SVG 1.1//EN" "http://www.w3.org/Graphics/SVG/1.1/DTD/svg11.dtd" [
	<!ENTITY ns_extend "http://ns.adobe.com/Extensibility/1.0/">
	<!ENTITY ns_ai "http://ns.adobe.com/AdobeIllustrator/10.0/">
	<!ENTITY ns_graphs "http://ns.adobe.com/Graphs/1.0/">
	<!ENTITY ns_vars "http://ns.adobe.com/Variables/1.0/">
	<!ENTITY ns_imrep "http://ns.adobe.com/ImageReplacement/1.0/">
	<!ENTITY ns_sfw "http://ns.adobe.com/SaveForWeb/1.0/">
	<!ENTITY ns_custom "http://ns.adobe.com/GenericCustomNamespace/1.0/">
	<!ENTITY ns_adobe_xpath "http://ns.adobe.com/XPath/1.0/">
]>
<svg version="1.1" id="Layer_1" xmlns:x="&ns_extend;" xmlns:i="&ns_ai;" xmlns:graph="&ns_graphs;"
	 xmlns="http://www.w3.org/2000/svg" xmlns:xlink="http://www.w3.org/1999/xlink" x="0px" y="0px" width="575px" height="200px"
	 viewBox="0 0 575 200" style="enable-background:new 0 0 575 200;" xml:space="preserve">
<style type="text/css">
	.st0{opacity:0.3;fill:#FFFFFF;}
	.st1{opacity:0.3;}
	.st2{fill:#FFFFFF;}
</style>
<metadata>
	<sfw  xmlns="&ns_sfw;">
		<slices></slices>
		<sliceSourceBounds  bottomLeftOrigin="true" height="192.7" width="573.1" x="1.2" y="-196.3"></sliceSourceBounds>
		<optimizationSettings>
			<targetSettings  fileFormat="PNG24Format" targetSettingsID="0">
				<PNG24Format  filtered="false" interlaced="false" matteColor="#FFFFFF" noMatteColor="false" transparency="true">
					</PNG24Format>
			</targetSettings>
		</optimizationSettings>
	</sfw>
</metadata>
<path class="st0" d="M21.2,43.7c1.9-0.4,3.7-1.5,4.9-3c0.1-0.1,0.2-0.2,0.3-0.4l2.2-3.3L36.9,25c2.5-3.7,1.5-8.6-2.1-11.1
	c-1.8-1.2-3.9-1.6-6-1.2c-2.1,0.4-3.9,1.6-5.1,3.4l-3.9,5.7L15.8,16c-1.2-1.8-3-3-5.1-3.4c-2.1-0.4-4.2,0-6,1.2
	C1.1,16.4,0.1,21.3,2.6,25l10.5,15.3c1.2,1.7,2.9,2.9,4.9,3.3C19.1,43.9,20.1,43.9,21.2,43.7z"/>
<path class="st0" d="M152.3,43.7c-1.9-0.4-3.7-1.5-4.9-3c-0.1-0.1-0.2-0.2-0.3-0.4l-2.2-3.3L136.6,25c-2.5-3.7-1.5-8.6,2.1-11.1
	c1.8-1.2,3.9-1.6,6-1.2c2.1,0.4,3.9,1.6,5.1,3.4l3.9,5.7l3.9-5.7c1.2-1.8,3-3,5.1-3.4c2.1-0.4,4.2,0,6,1.2c3.7,2.5,4.6,7.5,2.1,11.1
	l-10.5,15.3c-1.2,1.7-2.9,2.9-4.9,3.3C154.4,43.9,153.3,43.9,152.3,43.7z"/>
<path class="st0" d="M286.3,43.7c-1.9-0.4-3.7-1.5-4.9-3c-0.1-0.1-0.2-0.2-0.3-0.4l-2.2-3.3L270.6,25c-2.5-3.7-1.5-8.6,2.1-11.1
	c1.8-1.2,3.9-1.6,6-1.2c2.1,0.4,3.9,1.6,5.1,3.4l3.9,5.7l3.9-5.7c1.2-1.8,3-3,5.1-3.4c2.1-0.4,4.2,0,6,1.2c3.7,2.5,4.6,7.5,2.1,11.1
	l-10.5,15.3c-1.2,1.7-2.9,2.9-4.9,3.3C288.4,43.9,287.3,43.9,286.3,43.7z"/>
<path class="st0" d="M420.3,43.7c-1.9-0.4-3.7-1.5-4.9-3c-0.1-0.1-0.2-0.2-0.3-0.4l-2.2-3.3L404.6,25c-2.5-3.7-1.5-8.6,2.1-11.1
	c1.8-1.2,3.9-1.6,6-1.2c2.1,0.4,3.9,1.6,5.1,3.4l3.9,5.7l3.9-5.7c1.2-1.8,3-3,5.1-3.4c2.1-0.4,4.2,0,6,1.2c3.7,2.5,4.6,7.5,2.1,11.1
	l-10.5,15.3c-1.2,1.7-2.9,2.9-4.9,3.3C422.4,43.9,421.3,43.9,420.3,43.7z"/>
<path class="st0" d="M554.3,43.7c-1.9-0.4-3.7-1.5-4.9-3c-0.1-0.1-0.2-0.2-0.3-0.4l-2.2-3.3L538.6,25c-2.5-3.7-1.5-8.6,2.1-11.1
	c1.8-1.2,3.9-1.6,6-1.2c2.1,0.4,3.9,1.6,5.1,3.4l3.9,5.7l3.9-5.7c1.2-1.8,3-3,5.1-3.4c2.1-0.4,4.2,0,6,1.2c3.7,2.5,4.6,7.5,2.1,11.1
	l-10.5,15.3c-1.2,1.7-2.9,2.9-4.9,3.3C556.4,43.9,555.4,43.9,554.3,43.7z"/>
<g class="st1">
	<g>
		<g>
			<g>
				<path class="st2" d="M94.9,11.4c0,0.1,0,0.2,0,0.2c0,3.9-1.5,7-4.3,9.2c-2.8,2.1-6,2.4-7.6,2.4c-0.5,0-0.9,0-1,0
					c-1.8-0.2-3.1-1.8-2.9-3.6c0.1-1.1,0.8-2.1,1.7-2.5c-1.7-0.8-2.9-2.3-3.6-4.1c-0.1-0.3-0.1-0.6-0.2-0.9
					c-5.8,3.1-9.8,8.8-9.8,15.3c0,7.2,4.8,13.4,11.6,16.2c2.4,1,5.1,1.5,7.9,1.5c2.8,0,5.5-0.5,7.9-1.5c6.8-2.7,11.6-9,11.6-16.2
					C106.2,20.3,101.6,14.2,94.9,11.4z M80.2,32.4c0-1.4,0.9-2.5,2-2.5c1.1,0,2,1.1,2,2.5c0,1.4-0.9,2.5-2,2.5
					C81.1,34.8,80.2,33.7,80.2,32.4z M86.7,40.5c-2.1,0-3.8-1-4.3-2.5c-0.1-0.4,0.1-0.8,0.5-0.9c0.4-0.1,0.8,0.1,0.9,0.5
					c0.3,0.9,1.5,1.5,2.9,1.5c1.4,0,2.7-0.7,3-1.6c0.1-0.4,0.5-0.6,0.9-0.5c0.4,0.1,0.6,0.5,0.5,0.9C90.6,39.4,88.9,40.5,86.7,40.5z
					 M91.3,34.8c-1.1,0-2-1.1-2-2.5c0-1.4,0.9-2.5,2-2.5c1.1,0,2,1.1,2,2.5C93.3,33.7,92.4,34.8,91.3,34.8z"/>
			</g>
		</g>
		<g>
			<path class="st2" d="M79,12.4c0.6,1.8,1.9,3,3.7,3.5c0.7,0.2,1.4,0.2,2.1,0.1c1-0.1,2-0.4,2.6-1c1.7-1.6,1.5-3.3,1.5-3.5
				c-0.1-0.8-0.8-1.4-1.6-1.3c-0.6,0.1-1.1,0.5-1.2,1.1c-0.1,0.4,0,0.8-0.3,1.2c-0.5,0.8-1.6,0.9-2.4,0.7c-0.9-0.2-1.4-0.8-1.7-1.6
				c-0.1-0.4-0.2-0.8-0.2-1.1c0-0.8,0.2-1.5,0.5-1.9c0.6-1,1.8-1.8,3.1-2c1.3-0.2,2.6,0.2,3.6,1.1C89.3,8.2,89.8,9,90,10
				c0.1,0.5,0.2,1,0.2,1.6c0,2.5-0.8,4.2-2.5,5.5c-1.6,1.2-3.5,1.4-4.6,1.5c-0.4,0-0.7,0-0.7,0c-0.8-0.1-1.5,0.5-1.6,1.3
				c-0.1,0.8,0.5,1.5,1.3,1.6c0,0,0.3,0,0.8,0c1.4,0,4.2-0.2,6.5-2c2.4-1.8,3.6-4.4,3.6-7.8c0-0.3-0.1-0.6-0.1-0.9
				c-0.3-2.6-1.4-4.3-2.5-5.2c-1.6-1.4-3.8-2-5.8-1.7c-2.1,0.3-4,1.5-5.1,3.3c-0.8,1.3-1.1,2.8-0.8,4.3C78.8,11.7,78.9,12,79,12.4z"
				/>
		</g>
	</g>
</g>
<g class="st1">
	<g>
		<path class="st2" d="M228.9,11.4c0,0.1,0,0.2,0,0.2c0,3.9-1.5,7-4.3,9.2c-2.8,2.1-6,2.4-7.6,2.4c-0.5,0-0.9,0-1,0
			c-1.8-0.2-3.1-1.8-2.9-3.6c0.1-1.1,0.8-2.1,1.7-2.5c-1.7-0.8-2.9-2.3-3.6-4.1c-0.1-0.3-0.1-0.6-0.2-0.9c-5.8,3.1-9.8,8.8-9.8,15.3
			c0,7.2,4.8,13.4,11.6,16.2c2.4,1,5.1,1.5,7.9,1.5c2.8,0,5.5-0.5,7.9-1.5c6.8-2.7,11.6-9,11.6-16.2
			C240.2,20.3,235.6,14.2,228.9,11.4z M210.3,34.6c-0.8,0-1.5-0.7-1.5-1.5c0-0.8,0.7-1.5,1.5-1.5c0.8,0,1.5,0.7,1.5,1.5
			C211.8,33.9,211.2,34.6,210.3,34.6z M227.7,38c-1.9,1.6-4.4,2.5-6.9,2.5c-2.5,0-5-0.9-6.9-2.5c-0.5-0.4-0.6-1.1-0.2-1.6
			c0.4-0.5,1.1-0.6,1.6-0.2c1.5,1.3,3.5,1.9,5.5,1.9c2,0,3.9-0.7,5.5-1.9c0.5-0.4,1.2-0.3,1.6,0.2C228.2,36.9,228.2,37.6,227.7,38z
			 M231.8,34.6c-0.8,0-1.5-0.7-1.5-1.5s0.7-1.5,1.5-1.5c0.8,0,1.5,0.7,1.5,1.5S232.6,34.6,231.8,34.6z"/>
		<path class="st2" d="M213,12.4c0.6,1.8,1.9,3,3.7,3.5c0.7,0.2,1.4,0.2,2.1,0.1c1-0.1,2-0.4,2.6-1c1.7-1.6,1.5-3.3,1.5-3.5
			c-0.1-0.8-0.8-1.4-1.6-1.3c-0.6,0.1-1.1,0.5-1.2,1.1c-0.1,0.4,0,0.8-0.3,1.2c-0.5,0.8-1.6,0.9-2.4,0.7c-0.9-0.2-1.4-0.8-1.7-1.6
			c-0.1-0.4-0.2-0.8-0.2-1.1c0-0.8,0.2-1.5,0.5-1.9c0.6-1,1.8-1.8,3.1-2c1.3-0.2,2.6,0.2,3.6,1.1c0.7,0.6,1.1,1.4,1.4,2.4
			c0.1,0.5,0.2,1,0.2,1.6c0,2.5-0.8,4.2-2.5,5.5c-1.6,1.2-3.5,1.4-4.6,1.5c-0.4,0-0.7,0-0.7,0c-0.8-0.1-1.5,0.5-1.6,1.3
			c-0.1,0.8,0.5,1.5,1.3,1.6c0,0,0.3,0,0.8,0c1.4,0,4.2-0.2,6.5-2c2.4-1.8,3.6-4.4,3.6-7.8c0-0.3-0.1-0.6-0.1-0.9
			c-0.3-2.6-1.4-4.3-2.5-5.2c-1.6-1.4-3.8-2-5.8-1.7c-2.1,0.3-4,1.5-5.1,3.3c-0.8,1.3-1.1,2.8-0.8,4.3C212.8,11.7,212.9,12,213,12.4
			z"/>
	</g>
</g>
<g class="st1">
	<g>
		<path class="st2" d="M496.9,11.4c0,0.1,0,0.2,0,0.2c0,3.9-1.5,7-4.3,9.2c-2.8,2.1-6,2.4-7.6,2.4c-0.5,0-0.9,0-1,0
			c-1.8-0.2-3.1-1.8-2.9-3.6c0.1-1.1,0.8-2.1,1.7-2.5c-1.7-0.8-2.9-2.3-3.6-4.1c-0.1-0.3-0.1-0.6-0.2-0.9c-5.8,3.1-9.8,8.8-9.8,15.3
			c0,7.2,4.8,13.4,11.6,16.2c2.4,1,5.1,1.5,7.9,1.5c2.8,0,5.5-0.5,7.9-1.5c6.8-2.7,11.6-9,11.6-16.2
			C508.2,20.3,503.6,14.2,496.9,11.4z M482,34.3c-2.1,0-3.8-1-4.3-2.5c-0.1-0.4,0.1-0.8,0.5-0.9c0.4-0.1,0.8,0.1,0.9,0.5
			c0.3,0.9,1.5,1.5,2.9,1.5c1.4,0,2.7-0.7,3-1.6c0.1-0.4,0.5-0.6,0.9-0.5c0.4,0.1,0.6,0.5,0.5,0.9C485.9,33.2,484.1,34.3,482,34.3z
			 M488.7,40.7c-1.4,0-2.6-0.7-2.9-1.7c0-0.1,0-0.3,0-0.4c0.1-0.1,0.2-0.2,0.3-0.3c0.1,0,0.3,0,0.4,0c0.1,0.1,0.2,0.2,0.3,0.3
			c0.2,0.5,1,0.9,1.8,0.9c0.9,0,1.7-0.4,1.8-0.9c0-0.2,0.1-0.3,0.3-0.4c0.1-0.1,0.3-0.1,0.4,0c0.1,0,0.3,0.1,0.3,0.3
			c0.1,0.1,0.1,0.3,0.1,0.4C491.4,39.9,490.2,40.7,488.7,40.7z M495.5,34.3c-2.1,0-3.8-1-4.3-2.5c-0.1-0.4,0.1-0.8,0.5-0.9
			c0.4-0.1,0.8,0.1,0.9,0.5c0.3,0.9,1.5,1.5,2.9,1.5c1.4,0,2.7-0.7,3-1.6c0.1-0.4,0.5-0.6,0.9-0.5c0.4,0.1,0.6,0.5,0.5,0.9
			C499.4,33.2,497.6,34.3,495.5,34.3z"/>
		<path class="st2" d="M481,12.4c0.6,1.8,1.9,3,3.7,3.5c0.7,0.2,1.4,0.2,2.1,0.1c1-0.1,2-0.4,2.6-1c1.7-1.6,1.5-3.3,1.5-3.5
			c-0.1-0.8-0.8-1.4-1.6-1.3c-0.6,0.1-1.1,0.5-1.2,1.1c-0.1,0.4,0,0.8-0.3,1.2c-0.5,0.8-1.6,0.9-2.4,0.7c-0.9-0.2-1.4-0.8-1.7-1.6
			c-0.1-0.4-0.2-0.8-0.2-1.1c0-0.8,0.2-1.5,0.5-1.9c0.6-1,1.8-1.8,3.1-2c1.3-0.2,2.6,0.2,3.6,1.1c0.7,0.6,1.1,1.4,1.4,2.4
			c0.1,0.5,0.2,1,0.2,1.6c0,2.5-0.8,4.2-2.5,5.5c-1.6,1.2-3.5,1.4-4.6,1.5c-0.4,0-0.7,0-0.7,0c-0.8-0.1-1.5,0.5-1.6,1.3
			c-0.1,0.8,0.5,1.5,1.3,1.6c0,0,0.3,0,0.8,0c1.4,0,4.2-0.2,6.5-2c2.4-1.8,3.6-4.4,3.6-7.8c0-0.3-0.1-0.6-0.1-0.9
			c-0.3-2.6-1.4-4.3-2.5-5.2c-1.6-1.4-3.8-2-5.8-1.7c-2.1,0.3-4,1.5-5.1,3.3c-0.8,1.3-1.1,2.8-0.8,4.3C480.8,11.7,480.9,12,481,12.4
			z"/>
	</g>
</g>
<g class="st1">
	<g>
		<path class="st2" d="M362.9,11.4c0,0.1,0,0.2,0,0.2c0,3.9-1.5,7-4.3,9.2c-2.8,2.1-6,2.4-7.6,2.4c-0.5,0-0.9,0-1,0
			c-1.8-0.2-3.1-1.8-2.9-3.6c0.1-1.1,0.8-2.1,1.7-2.5c-1.7-0.8-2.9-2.3-3.6-4.1c-0.1-0.3-0.1-0.6-0.2-0.9c-5.8,3.1-9.8,8.8-9.8,15.3
			c0,7.2,4.8,13.4,11.6,16.2c1,0.4,2,0.7,3.1,0.9c0-0.7,0.2-1.3,0.5-1.9c-0.7-0.5-1.2-1.1-1.2-1.8c0-1.6,2.5-2.9,5.6-2.9
			c3.1,0,5.6,1.3,5.6,2.9c0,0.7-0.5,1.3-1.2,1.8c0.3,0.6,0.4,1.2,0.5,1.9c1-0.2,2-0.5,3-0.9c6.8-2.7,11.6-9,11.6-16.2
			C374.2,20.3,369.6,14.2,362.9,11.4z M350.2,36.9c-1.1,0-2-1.1-2-2.5s0.9-2.5,2-2.5c1.1,0,2,1.1,2,2.5S351.3,36.9,350.2,36.9z
			 M359.4,36.9c-1.1,0-2-1.1-2-2.5s0.9-2.5,2-2.5c1.1,0,2,1.1,2,2.5S360.5,36.9,359.4,36.9z"/>
		<path class="st2" d="M347,12.4c0.6,1.8,1.9,3,3.7,3.5c0.7,0.2,1.4,0.2,2.1,0.1c1-0.1,2-0.4,2.6-1c1.7-1.6,1.5-3.3,1.5-3.5
			c-0.1-0.8-0.8-1.4-1.6-1.3c-0.6,0.1-1.1,0.5-1.2,1.1c-0.1,0.4,0,0.8-0.3,1.2c-0.5,0.8-1.6,0.9-2.4,0.7c-0.9-0.2-1.4-0.8-1.7-1.6
			c-0.1-0.4-0.2-0.8-0.2-1.1c0-0.8,0.2-1.5,0.5-1.9c0.6-1,1.8-1.8,3.1-2c1.3-0.2,2.6,0.2,3.6,1.1c0.7,0.6,1.1,1.4,1.4,2.4
			c0.1,0.5,0.2,1,0.2,1.6c0,2.5-0.8,4.2-2.5,5.5c-1.6,1.2-3.5,1.4-4.6,1.5c-0.4,0-0.7,0-0.7,0c-0.8-0.1-1.5,0.5-1.6,1.3
			c-0.1,0.8,0.5,1.5,1.3,1.6c0,0,0.3,0,0.8,0c1.4,0,4.2-0.2,6.5-2c2.4-1.8,3.6-4.4,3.6-7.8c0-0.3-0.1-0.6-0.1-0.9
			c-0.3-2.6-1.4-4.3-2.5-5.2c-1.6-1.4-3.8-2-5.8-1.7c-2.1,0.3-4,1.5-5.1,3.3c-0.8,1.3-1.1,2.8-0.8,4.3C346.8,11.7,346.9,12,347,12.4
			z"/>
		<path class="st2" d="M354.8,41.8c-1.1,0-2.1,0.7-2.6,1.6c-0.2,0.4-0.3,0.8-0.3,1.3c0,0.1,0,0.1,0,0.2c0.1,1.5,1.3,2.7,2.9,2.7
			c1.5,0,2.8-1.2,2.9-2.7c0-0.1,0-0.1,0-0.2c0-0.5-0.1-0.9-0.3-1.3C356.9,42.4,355.9,41.8,354.8,41.8z"/>
	</g>
</g>
<path class="st0" d="M21.2,192.5c1.9-0.4,3.7-1.5,4.9-3c0.1-0.1,0.2-0.2,0.3-0.4l2.2-3.3l8.3-12.1c2.5-3.7,1.5-8.6-2.1-11.1
	c-1.8-1.2-3.9-1.6-6-1.2c-2.1,0.4-3.9,1.6-5.1,3.4l-3.9,5.7l-3.9-5.7c-1.2-1.8-3-3-5.1-3.4c-2.1-0.4-4.2,0-6,1.2
	c-3.7,2.5-4.6,7.5-2.1,11.1l10.5,15.3c1.2,1.7,2.9,2.9,4.9,3.3C19.1,192.6,20.1,192.6,21.2,192.5z"/>
<path class="st0" d="M152.3,192.5c-1.9-0.4-3.7-1.5-4.9-3c-0.1-0.1-0.2-0.2-0.3-0.4l-2.2-3.3l-8.3-12.1c-2.5-3.7-1.5-8.6,2.1-11.1
	c1.8-1.2,3.9-1.6,6-1.2c2.1,0.4,3.9,1.6,5.1,3.4l3.9,5.7l3.9-5.7c1.2-1.8,3-3,5.1-3.4c2.1-0.4,4.2,0,6,1.2c3.7,2.5,4.6,7.5,2.1,11.1
	l-10.5,15.3c-1.2,1.7-2.9,2.9-4.9,3.3C154.4,192.6,153.3,192.6,152.3,192.5z"/>
<path class="st0" d="M286.3,192.5c-1.9-0.4-3.7-1.5-4.9-3c-0.1-0.1-0.2-0.2-0.3-0.4l-2.2-3.3l-8.3-12.1c-2.5-3.7-1.5-8.6,2.1-11.1
	c1.8-1.2,3.9-1.6,6-1.2c2.1,0.4,3.9,1.6,5.1,3.4l3.9,5.7l3.9-5.7c1.2-1.8,3-3,5.1-3.4c2.1-0.4,4.2,0,6,1.2c3.7,2.5,4.6,7.5,2.1,11.1
	l-10.5,15.3c-1.2,1.7-2.9,2.9-4.9,3.3C288.4,192.6,287.3,192.6,286.3,192.5z"/>
<path class="st0" d="M420.3,192.5c-1.9-0.4-3.7-1.5-4.9-3c-0.1-0.1-0.2-0.2-0.3-0.4l-2.2-3.3l-8.3-12.1c-2.5-3.7-1.5-8.6,2.1-11.1
	c1.8-1.2,3.9-1.6,6-1.2c2.1,0.4,3.9,1.6,5.1,3.4l3.9,5.7l3.9-5.7c1.2-1.8,3-3,5.1-3.4c2.1-0.4,4.2,0,6,1.2c3.7,2.5,4.6,7.5,2.1,11.1
	l-10.5,15.3c-1.2,1.7-2.9,2.9-4.9,3.3C422.4,192.6,421.3,192.6,420.3,192.5z"/>
<path class="st0" d="M554.3,192.5c-1.9-0.4-3.7-1.5-4.9-3c-0.1-0.1-0.2-0.2-0.3-0.4l-2.2-3.3l-8.3-12.1c-2.5-3.7-1.5-8.6,2.1-11.1
	c1.8-1.2,3.9-1.6,6-1.2c2.1,0.4,3.9,1.6,5.1,3.4l3.9,5.7l3.9-5.7c1.2-1.8,3-3,5.1-3.4c2.1-0.4,4.2,0,6,1.2c3.7,2.5,4.6,7.5,2.1,11.1
	l-10.5,15.3c-1.2,1.7-2.9,2.9-4.9,3.3C556.4,192.6,555.4,192.6,554.3,192.5z"/>
<g class="st1">
	<path class="st2" d="M94.9,160.1c0,0.1,0,0.2,0,0.2c0,3.9-1.5,7-4.3,9.2c-2.8,2.1-6,2.4-7.6,2.4c-0.5,0-0.9,0-1,0
		c-1.8-0.2-3.1-1.8-2.9-3.6c0.1-1.1,0.8-2.1,1.7-2.5c-1.7-0.8-2.9-2.3-3.6-4.1c-0.1-0.3-0.1-0.6-0.2-0.9c-5.8,3.1-9.8,8.8-9.8,15.3
		c0,7.2,4.8,13.4,11.6,16.2c2.4,1,5.1,1.5,7.9,1.5c2.8,0,5.5-0.5,7.9-1.5c6.8-2.7,11.6-9,11.6-16.2
		C106.2,169,101.6,162.9,94.9,160.1z M80.2,181.1c0-1.4,0.9-2.5,2-2.5c1.1,0,2,1.1,2,2.5s-0.9,2.5-2,2.5
		C81.1,183.6,80.2,182.5,80.2,181.1z M86.7,189.3c-2.1,0-3.8-1-4.3-2.5c-0.1-0.4,0.1-0.8,0.5-0.9c0.4-0.1,0.8,0.1,0.9,0.5
		c0.3,0.9,1.5,1.5,2.9,1.5c1.4,0,2.7-0.7,3-1.6c0.1-0.4,0.5-0.6,0.9-0.5c0.4,0.1,0.6,0.5,0.5,0.9C90.6,188.2,88.9,189.3,86.7,189.3z
		 M91.3,183.6c-1.1,0-2-1.1-2-2.5s0.9-2.5,2-2.5c1.1,0,2,1.1,2,2.5S92.4,183.6,91.3,183.6z"/>
	<path class="st2" d="M79,161.2c0.6,1.8,1.9,3,3.7,3.5c0.7,0.2,1.4,0.2,2.1,0.1c1-0.1,2-0.4,2.6-1c1.7-1.6,1.5-3.3,1.5-3.5
		c-0.1-0.8-0.8-1.4-1.6-1.3c-0.6,0.1-1.1,0.5-1.2,1.1c-0.1,0.4,0,0.8-0.3,1.2c-0.5,0.8-1.6,0.9-2.4,0.7c-0.9-0.2-1.4-0.8-1.7-1.6
		c-0.1-0.4-0.2-0.8-0.2-1.1c0-0.8,0.2-1.5,0.5-1.9c0.6-1,1.8-1.8,3.1-2c1.3-0.2,2.6,0.2,3.6,1.1c0.7,0.6,1.1,1.4,1.4,2.4
		c0.1,0.5,0.2,1,0.2,1.6c0,2.5-0.8,4.2-2.5,5.5c-1.6,1.2-3.5,1.4-4.6,1.5c-0.4,0-0.7,0-0.7,0c-0.8-0.1-1.5,0.5-1.6,1.3
		c-0.1,0.8,0.5,1.5,1.3,1.6c0,0,0.3,0,0.8,0c1.4,0,4.2-0.2,6.5-2c2.4-1.8,3.6-4.4,3.6-7.8c0-0.3-0.1-0.6-0.1-0.9
		c-0.3-2.6-1.4-4.3-2.5-5.2c-1.6-1.4-3.8-2-5.8-1.7c-2.1,0.3-4,1.5-5.1,3.3c-0.8,1.3-1.1,2.8-0.8,4.3
		C78.8,160.4,78.9,160.8,79,161.2z"/>
</g>
<g class="st1">
	<path class="st2" d="M228.9,160.1c0,0.1,0,0.2,0,0.2c0,3.9-1.5,7-4.3,9.2c-2.8,2.1-6,2.4-7.6,2.4c-0.5,0-0.9,0-1,0
		c-1.8-0.2-3.1-1.8-2.9-3.6c0.1-1.1,0.8-2.1,1.7-2.5c-1.7-0.8-2.9-2.3-3.6-4.1c-0.1-0.3-0.1-0.6-0.2-0.9c-5.8,3.1-9.8,8.8-9.8,15.3
		c0,7.2,4.8,13.4,11.6,16.2c2.4,1,5.1,1.5,7.9,1.5c2.8,0,5.5-0.5,7.9-1.5c6.8-2.7,11.6-9,11.6-16.2
		C240.2,169,235.6,162.9,228.9,160.1z M210.3,183.3c-0.8,0-1.5-0.7-1.5-1.5c0-0.8,0.7-1.5,1.5-1.5c0.8,0,1.5,0.7,1.5,1.5
		C211.8,182.7,211.2,183.3,210.3,183.3z M227.7,186.8c-1.9,1.6-4.4,2.5-6.9,2.5c-2.5,0-5-0.9-6.9-2.5c-0.5-0.4-0.6-1.1-0.2-1.6
		c0.4-0.5,1.1-0.6,1.6-0.2c1.5,1.3,3.5,1.9,5.5,1.9c2,0,3.9-0.7,5.5-1.9c0.5-0.4,1.2-0.3,1.6,0.2
		C228.2,185.7,228.2,186.4,227.7,186.8z M231.8,183.3c-0.8,0-1.5-0.7-1.5-1.5c0-0.8,0.7-1.5,1.5-1.5c0.8,0,1.5,0.7,1.5,1.5
		C233.3,182.7,232.6,183.3,231.8,183.3z"/>
	<path class="st2" d="M213,161.2c0.6,1.8,1.9,3,3.7,3.5c0.7,0.2,1.4,0.2,2.1,0.1c1-0.1,2-0.4,2.6-1c1.7-1.6,1.5-3.3,1.5-3.5
		c-0.1-0.8-0.8-1.4-1.6-1.3c-0.6,0.1-1.1,0.5-1.2,1.1c-0.1,0.4,0,0.8-0.3,1.2c-0.5,0.8-1.6,0.9-2.4,0.7c-0.9-0.2-1.4-0.8-1.7-1.6
		c-0.1-0.4-0.2-0.8-0.2-1.1c0-0.8,0.2-1.5,0.5-1.9c0.6-1,1.8-1.8,3.1-2c1.3-0.2,2.6,0.2,3.6,1.1c0.7,0.6,1.1,1.4,1.4,2.4
		c0.1,0.5,0.2,1,0.2,1.6c0,2.5-0.8,4.2-2.5,5.5c-1.6,1.2-3.5,1.4-4.6,1.5c-0.4,0-0.7,0-0.7,0c-0.8-0.1-1.5,0.5-1.6,1.3
		c-0.1,0.8,0.5,1.5,1.3,1.6c0,0,0.3,0,0.8,0c1.4,0,4.2-0.2,6.5-2c2.4-1.8,3.6-4.4,3.6-7.8c0-0.3-0.1-0.6-0.1-0.9
		c-0.3-2.6-1.4-4.3-2.5-5.2c-1.6-1.4-3.8-2-5.8-1.7c-2.1,0.3-4,1.5-5.1,3.3c-0.8,1.3-1.1,2.8-0.8,4.3
		C212.8,160.4,212.9,160.8,213,161.2z"/>
</g>
<g class="st1">
	<path class="st2" d="M496.9,160.1c0,0.1,0,0.2,0,0.2c0,3.9-1.5,7-4.3,9.2c-2.8,2.1-6,2.4-7.6,2.4c-0.5,0-0.9,0-1,0
		c-1.8-0.2-3.1-1.8-2.9-3.6c0.1-1.1,0.8-2.1,1.7-2.5c-1.7-0.8-2.9-2.3-3.6-4.1c-0.1-0.3-0.1-0.6-0.2-0.9c-5.8,3.1-9.8,8.8-9.8,15.3
		c0,7.2,4.8,13.4,11.6,16.2c2.4,1,5.1,1.5,7.9,1.5c2.8,0,5.5-0.5,7.9-1.5c6.8-2.7,11.6-9,11.6-16.2
		C508.2,169,503.6,162.9,496.9,160.1z M482,183c-2.1,0-3.8-1-4.3-2.5c-0.1-0.4,0.1-0.8,0.5-0.9c0.4-0.1,0.8,0.1,0.9,0.5
		c0.3,0.9,1.5,1.5,2.9,1.5c1.4,0,2.7-0.7,3-1.6c0.1-0.4,0.5-0.6,0.9-0.5c0.4,0.1,0.6,0.5,0.5,0.9C485.9,182,484.1,183,482,183z
		 M488.7,189.4c-1.4,0-2.6-0.7-2.9-1.7c0-0.1,0-0.3,0-0.4c0.1-0.1,0.2-0.2,0.3-0.3c0.1,0,0.3,0,0.4,0c0.1,0.1,0.2,0.2,0.3,0.3
		c0.2,0.5,1,0.9,1.8,0.9c0.9,0,1.7-0.4,1.8-0.9c0-0.2,0.1-0.3,0.3-0.4c0.1-0.1,0.3-0.1,0.4,0c0.1,0,0.3,0.1,0.3,0.3
		c0.1,0.1,0.1,0.3,0.1,0.4C491.4,188.7,490.2,189.4,488.7,189.4z M495.5,183c-2.1,0-3.8-1-4.3-2.5c-0.1-0.4,0.1-0.8,0.5-0.9
		c0.4-0.1,0.8,0.1,0.9,0.5c0.3,0.9,1.5,1.5,2.9,1.5c1.4,0,2.7-0.7,3-1.6c0.1-0.4,0.5-0.6,0.9-0.5c0.4,0.1,0.6,0.5,0.5,0.9
		C499.4,182,497.6,183,495.5,183z"/>
	<path class="st2" d="M481,161.2c0.6,1.8,1.9,3,3.7,3.5c0.7,0.2,1.4,0.2,2.1,0.1c1-0.1,2-0.4,2.6-1c1.7-1.6,1.5-3.3,1.5-3.5
		c-0.1-0.8-0.8-1.4-1.6-1.3c-0.6,0.1-1.1,0.5-1.2,1.1c-0.1,0.4,0,0.8-0.3,1.2c-0.5,0.8-1.6,0.9-2.4,0.7c-0.9-0.2-1.4-0.8-1.7-1.6
		c-0.1-0.4-0.2-0.8-0.2-1.1c0-0.8,0.2-1.5,0.5-1.9c0.6-1,1.8-1.8,3.1-2c1.3-0.2,2.6,0.2,3.6,1.1c0.7,0.6,1.1,1.4,1.4,2.4
		c0.1,0.5,0.2,1,0.2,1.6c0,2.5-0.8,4.2-2.5,5.5c-1.6,1.2-3.5,1.4-4.6,1.5c-0.4,0-0.7,0-0.7,0c-0.8-0.1-1.5,0.5-1.6,1.3
		c-0.1,0.8,0.5,1.5,1.3,1.6c0,0,0.3,0,0.8,0c1.4,0,4.2-0.2,6.5-2c2.4-1.8,3.6-4.4,3.6-7.8c0-0.3-0.1-0.6-0.1-0.9
		c-0.3-2.6-1.4-4.3-2.5-5.2c-1.6-1.4-3.8-2-5.8-1.7c-2.1,0.3-4,1.5-5.1,3.3c-0.8,1.3-1.1,2.8-0.8,4.3
		C480.8,160.4,480.9,160.8,481,161.2z"/>
</g>
<g class="st1">
	<path class="st2" d="M362.9,160.1c0,0.1,0,0.2,0,0.2c0,3.9-1.5,7-4.3,9.2c-2.8,2.1-6,2.4-7.6,2.4c-0.5,0-0.9,0-1,0
		c-1.8-0.2-3.1-1.8-2.9-3.6c0.1-1.1,0.8-2.1,1.7-2.5c-1.7-0.8-2.9-2.3-3.6-4.1c-0.1-0.3-0.1-0.6-0.2-0.9c-5.8,3.1-9.8,8.8-9.8,15.3
		c0,7.2,4.8,13.4,11.6,16.2c1,0.4,2,0.7,3.1,0.9c0-0.7,0.2-1.3,0.5-1.9c-0.7-0.5-1.2-1.1-1.2-1.8c0-1.6,2.5-2.9,5.6-2.9
		c3.1,0,5.6,1.3,5.6,2.9c0,0.7-0.5,1.3-1.2,1.8c0.3,0.6,0.4,1.2,0.5,1.9c1-0.2,2-0.5,3-0.9c6.8-2.7,11.6-9,11.6-16.2
		C374.2,169,369.6,162.9,362.9,160.1z M350.2,185.6c-1.1,0-2-1.1-2-2.5s0.9-2.5,2-2.5c1.1,0,2,1.1,2,2.5S351.3,185.6,350.2,185.6z
		 M359.4,185.6c-1.1,0-2-1.1-2-2.5s0.9-2.5,2-2.5c1.1,0,2,1.1,2,2.5S360.5,185.6,359.4,185.6z"/>
	<path class="st2" d="M347,161.2c0.6,1.8,1.9,3,3.7,3.5c0.7,0.2,1.4,0.2,2.1,0.1c1-0.1,2-0.4,2.6-1c1.7-1.6,1.5-3.3,1.5-3.5
		c-0.1-0.8-0.8-1.4-1.6-1.3c-0.6,0.1-1.1,0.5-1.2,1.1c-0.1,0.4,0,0.8-0.3,1.2c-0.5,0.8-1.6,0.9-2.4,0.7c-0.9-0.2-1.4-0.8-1.7-1.6
		c-0.1-0.4-0.2-0.8-0.2-1.1c0-0.8,0.2-1.5,0.5-1.9c0.6-1,1.8-1.8,3.1-2c1.3-0.2,2.6,0.2,3.6,1.1c0.7,0.6,1.1,1.4,1.4,2.4
		c0.1,0.5,0.2,1,0.2,1.6c0,2.5-0.8,4.2-2.5,5.5c-1.6,1.2-3.5,1.4-4.6,1.5c-0.4,0-0.7,0-0.7,0c-0.8-0.1-1.5,0.5-1.6,1.3
		c-0.1,0.8,0.5,1.5,1.3,1.6c0,0,0.3,0,0.8,0c1.4,0,4.2-0.2,6.5-2c2.4-1.8,3.6-4.4,3.6-7.8c0-0.3-0.1-0.6-0.1-0.9
		c-0.3-2.6-1.4-4.3-2.5-5.2c-1.6-1.4-3.8-2-5.8-1.7c-2.1,0.3-4,1.5-5.1,3.3c-0.8,1.3-1.1,2.8-0.8,4.3
		C346.8,160.4,346.9,160.8,347,161.2z"/>
	<path class="st2" d="M354.8,190.5c-1.1,0-2.1,0.7-2.6,1.6c-0.2,0.4-0.3,0.8-0.3,1.3c0,0.1,0,0.1,0,0.2c0.1,1.5,1.3,2.7,2.9,2.7
		c1.5,0,2.8-1.2,2.9-2.7c0-0.1,0-0.1,0-0.2c0-0.5-0.1-0.9-0.3-1.3C356.9,191.2,355.9,190.5,354.8,190.5z"/>
</g>
<path class="st0" d="M57.1,119.8c1.9-0.4,3.7-1.5,4.9-3c0.1-0.1,0.2-0.2,0.3-0.4l2.2-3.3l8.3-12.1c2.5-3.7,1.5-8.6-2.1-11.1
	c-1.8-1.2-3.9-1.6-6-1.2c-2.1,0.4-3.9,1.6-5.1,3.4l-3.9,5.7l-3.9-5.7c-1.2-1.8-3-3-5.1-3.4c-2.1-0.4-4.2,0-6,1.2
	c-3.7,2.5-4.6,7.5-2.1,11.1L49,116.5c1.2,1.7,2.9,2.9,4.9,3.3C55,120,56.1,120,57.1,119.8z"/>
<path class="st0" d="M187.9,119.8c-1.9-0.4-3.7-1.5-4.9-3c-0.1-0.1-0.2-0.2-0.3-0.4l-2.2-3.3l-8.3-12.1c-2.5-3.7-1.5-8.6,2.1-11.1
	c1.8-1.2,3.9-1.6,6-1.2c2.1,0.4,3.9,1.6,5.1,3.4l3.9,5.7l3.9-5.7c1.2-1.8,3-3,5.1-3.4c2.1-0.4,4.2,0,6,1.2c3.7,2.5,4.6,7.5,2.1,11.1
	L196,116.5c-1.2,1.7-2.9,2.9-4.9,3.3C190.1,120,189,120,187.9,119.8z"/>
<path class="st0" d="M321.7,119.8c-1.9-0.4-3.7-1.5-4.9-3c-0.1-0.1-0.2-0.2-0.3-0.4l-2.2-3.3l-8.3-12.1c-2.5-3.7-1.5-8.6,2.1-11.1
	c1.8-1.2,3.9-1.6,6-1.2c2.1,0.4,3.9,1.6,5.1,3.4l3.9,5.7l3.9-5.7c1.2-1.8,3-3,5.1-3.4c2.1-0.4,4.2,0,6,1.2c3.7,2.5,4.6,7.5,2.1,11.1
	l-10.5,15.3c-1.2,1.7-2.9,2.9-4.9,3.3C323.8,120,322.7,120,321.7,119.8z"/>
<g class="st1">
	<path class="st2" d="M398.2,87.5c0,0.1,0,0.2,0,0.2c0,3.9-1.5,7-4.3,9.2c-2.8,2.1-6,2.4-7.6,2.4c-0.5,0-0.9,0-1,0
		c-1.8-0.2-3.1-1.8-2.9-3.6c0.1-1.1,0.8-2.1,1.7-2.5c-1.7-0.8-2.9-2.3-3.6-4.1c-0.1-0.3-0.1-0.6-0.2-0.9c-5.8,3.1-9.8,8.8-9.8,15.3
		c0,7.2,4.8,13.4,11.6,16.2c2.4,1,5.1,1.5,7.9,1.5c2.8,0,5.5-0.5,7.9-1.5c6.8-2.7,11.6-9,11.6-16.2
		C409.5,96.4,404.8,90.3,398.2,87.5z M379.4,109.7c-0.8,0-1.5-0.7-1.5-1.5c0-0.8,0.7-1.5,1.5-1.5c0.8,0,1.5,0.7,1.5,1.5
		C380.9,109,380.2,109.7,379.4,109.7z M391.9,113.1c-0.6,0.3-1.2,0.5-1.9,0.5c-0.7,0-1.3-0.2-1.9-0.5c-0.3-0.2-0.4-0.6-0.2-0.9
		c0.2-0.3,0.6-0.4,0.9-0.2c0.8,0.5,1.7,0.5,2.6,0c0.3-0.2,0.7-0.1,0.9,0.2C392.3,112.5,392.2,112.9,391.9,113.1z M400.6,109.7
		c-0.8,0-1.5-0.7-1.5-1.5c0-0.8,0.7-1.5,1.5-1.5s1.5,0.7,1.5,1.5C402.1,109,401.5,109.7,400.6,109.7z"/>
	<path class="st2" d="M382.3,88.5c0.6,1.8,1.9,3,3.7,3.5c0.7,0.2,1.4,0.2,2.1,0.1c1-0.1,2-0.4,2.6-1c1.7-1.6,1.5-3.3,1.5-3.5
		c-0.1-0.8-0.8-1.4-1.6-1.3c-0.6,0.1-1.1,0.5-1.2,1.1c-0.1,0.4,0,0.8-0.3,1.2c-0.5,0.8-1.6,0.9-2.4,0.7c-0.9-0.2-1.4-0.8-1.7-1.6
		c-0.1-0.4-0.2-0.8-0.2-1.1c0-0.8,0.2-1.5,0.5-1.9c0.6-1,1.8-1.8,3.1-2c1.3-0.2,2.6,0.2,3.6,1.1c0.7,0.6,1.1,1.4,1.4,2.4
		c0.1,0.5,0.2,1,0.2,1.6c0,2.5-0.8,4.2-2.5,5.5c-1.6,1.2-3.5,1.4-4.6,1.5c-0.4,0-0.7,0-0.7,0c-0.8-0.1-1.5,0.5-1.6,1.3
		c-0.1,0.8,0.5,1.5,1.3,1.6c0,0,0.3,0,0.8,0c1.4,0,4.2-0.2,6.5-2c2.4-1.8,3.6-4.4,3.6-7.8c0-0.3-0.1-0.6-0.1-0.9
		c-0.3-2.6-1.4-4.3-2.5-5.2c-1.6-1.4-3.8-2-5.8-1.7c-2.1,0.3-4,1.5-5.1,3.3c-0.8,1.3-1.1,2.8-0.8,4.3
		C382.1,87.8,382.1,88.2,382.3,88.5z"/>
</g>
<g class="st1">
	<path class="st2" d="M531.9,87.5c0,0.1,0,0.2,0,0.2c0,3.9-1.5,7-4.3,9.2c-2.8,2.1-6,2.4-7.6,2.4c-0.5,0-0.9,0-1,0
		c-1.8-0.2-3.1-1.8-2.9-3.6c0.1-1.1,0.8-2.1,1.7-2.5c-1.7-0.8-2.9-2.3-3.6-4.1c-0.1-0.3-0.1-0.6-0.2-0.9c-5.8,3.1-9.8,8.8-9.8,15.3
		c0,7.2,4.8,13.4,11.6,16.2c2.4,1,5.1,1.5,7.9,1.5c2.8,0,5.5-0.5,7.9-1.5c6.8-2.7,11.6-9,11.6-16.2
		C543.2,96.4,538.6,90.3,531.9,87.5z M517,110.4c-2.1,0-3.8-1-4.3-2.5c-0.1-0.4,0.1-0.8,0.5-0.9c0.4-0.1,0.8,0.1,0.9,0.5
		c0.3,0.9,1.5,1.5,2.9,1.5c1.4,0,2.7-0.7,3-1.6c0.1-0.4,0.5-0.6,0.9-0.5c0.4,0.1,0.6,0.5,0.5,0.9C520.9,109.3,519.1,110.4,517,110.4
		z M523.7,116.8c-1.4,0-2.6-0.7-2.9-1.7c0-0.1,0-0.3,0-0.4c0.1-0.1,0.2-0.2,0.3-0.3c0.1,0,0.3,0,0.4,0c0.1,0.1,0.2,0.2,0.3,0.3
		c0.2,0.5,1,0.9,1.8,0.9c0.9,0,1.7-0.4,1.8-0.9c0-0.2,0.1-0.3,0.3-0.4c0.1-0.1,0.3-0.1,0.4,0c0.1,0,0.3,0.1,0.3,0.3
		c0.1,0.1,0.1,0.3,0.1,0.4C526.4,116.1,525.2,116.8,523.7,116.8z M530.5,110.4c-2.1,0-3.8-1-4.3-2.5c-0.1-0.4,0.1-0.8,0.5-0.9
		c0.4-0.1,0.8,0.1,0.9,0.5c0.3,0.9,1.5,1.5,2.9,1.5c1.4,0,2.7-0.7,3-1.6c0.1-0.4,0.5-0.6,0.9-0.5c0.4,0.1,0.6,0.5,0.5,0.9
		C534.4,109.3,532.6,110.4,530.5,110.4z"/>
	<path class="st2" d="M516,88.5c0.6,1.8,1.9,3,3.7,3.5c0.7,0.2,1.4,0.2,2.1,0.1c1-0.1,2-0.4,2.6-1c1.7-1.6,1.5-3.3,1.5-3.5
		c-0.1-0.8-0.8-1.4-1.6-1.3c-0.6,0.1-1.1,0.5-1.2,1.1c-0.1,0.4,0,0.8-0.3,1.2c-0.5,0.8-1.6,0.9-2.4,0.7c-0.9-0.2-1.4-0.8-1.7-1.6
		c-0.1-0.4-0.2-0.8-0.2-1.1c0-0.8,0.2-1.5,0.5-1.9c0.6-1,1.8-1.8,3.1-2c1.3-0.2,2.6,0.2,3.6,1.1c0.7,0.6,1.1,1.4,1.4,2.4
		c0.1,0.5,0.2,1,0.2,1.6c0,2.5-0.8,4.2-2.5,5.5c-1.6,1.2-3.5,1.4-4.6,1.5c-0.4,0-0.7,0-0.7,0c-0.8-0.1-1.5,0.5-1.6,1.3
		c-0.1,0.8,0.5,1.5,1.3,1.6c0,0,0.3,0,0.8,0c1.4,0,4.2-0.2,6.5-2c2.4-1.8,3.6-4.4,3.6-7.8c0-0.3-0.1-0.6-0.1-0.9
		c-0.3-2.6-1.4-4.3-2.5-5.2c-1.6-1.4-3.8-2-5.8-1.7c-2.1,0.3-4,1.5-5.1,3.3c-0.8,1.3-1.1,2.8-0.8,4.3
		C515.8,87.8,515.9,88.2,516,88.5z"/>
</g>
<path class="st0" d="M455.4,119.8c-1.9-0.4-3.7-1.5-4.9-3c-0.1-0.1-0.2-0.2-0.3-0.4l-2.2-3.3l-8.3-12.1c-2.5-3.7-1.5-8.6,2.1-11.1
	c1.8-1.2,3.9-1.6,6-1.2c2.1,0.4,3.9,1.6,5.1,3.4l3.9,5.7l3.9-5.7c1.2-1.8,3-3,5.1-3.4c2.1-0.4,4.2,0,6,1.2c3.7,2.5,4.6,7.5,2.1,11.1
	l-10.5,15.3c-1.2,1.7-2.9,2.9-4.9,3.3C457.6,120,456.5,120,455.4,119.8z"/>
<g class="st1">
	<path class="st2" d="M264.4,87.5c0,0.1,0,0.2,0,0.2c0,3.9-1.5,7-4.3,9.2c-2.8,2.1-6,2.4-7.6,2.4c-0.5,0-0.9,0-1,0
		c-1.8-0.2-3.1-1.8-2.9-3.6c0.1-1.1,0.8-2.1,1.7-2.5c-1.7-0.8-2.9-2.3-3.6-4.1c-0.1-0.3-0.1-0.6-0.2-0.9c-5.8,3.1-9.8,8.8-9.8,15.3
		c0,7.2,4.8,13.4,11.6,16.2c2.4,1,5.1,1.5,7.9,1.5c2.8,0,5.5-0.5,7.9-1.5c6.8-2.7,11.6-9,11.6-16.2
		C275.7,96.4,271.1,90.3,264.4,87.5z M250.7,108.8c-0.3,0.3-0.8,0.3-1.1,0c-0.6-0.6-1.5-1-2.3-1c-0.9,0-1.7,0.3-2.4,1
		c-0.2,0.2-0.4,0.2-0.6,0.2c-0.2,0-0.4-0.1-0.5-0.2c-0.3-0.3-0.3-0.8,0-1.1c0.9-0.9,2.2-1.5,3.5-1.5c1.3,0,2.5,0.5,3.5,1.5
		C251,108,251,108.5,250.7,108.8z M258.2,114c-0.6,0.3-1.2,0.5-1.9,0.5c-0.7,0-1.3-0.2-1.9-0.5c-0.3-0.2-0.4-0.6-0.2-0.9
		c0.2-0.3,0.6-0.4,0.9-0.2c0.8,0.5,1.7,0.5,2.6,0c0.3-0.2,0.7-0.1,0.9,0.2C258.6,113.4,258.5,113.8,258.2,114z M268.7,108.8
		c-0.2,0.1-0.4,0.2-0.5,0.2c-0.2,0-0.4-0.1-0.6-0.2c-0.6-0.6-1.5-1-2.3-1c-0.9,0-1.7,0.3-2.3,1c-0.3,0.3-0.8,0.3-1.1,0
		c-0.3-0.3-0.3-0.8,0-1.1c0.9-0.9,2.2-1.5,3.5-1.5c1.3,0,2.5,0.5,3.5,1.5C269.1,108,269.1,108.5,268.7,108.8z"/>
	<path class="st2" d="M248.5,88.5c0.6,1.8,1.9,3,3.7,3.5c0.7,0.2,1.4,0.2,2.1,0.1c1-0.1,2-0.4,2.6-1c1.7-1.6,1.5-3.3,1.5-3.5
		c-0.1-0.8-0.8-1.4-1.6-1.3c-0.6,0.1-1.1,0.5-1.2,1.1c-0.1,0.4,0,0.8-0.3,1.2c-0.5,0.8-1.6,0.9-2.4,0.7c-0.9-0.2-1.4-0.8-1.7-1.6
		c-0.1-0.4-0.2-0.8-0.2-1.1c0-0.8,0.2-1.5,0.5-1.9c0.6-1,1.8-1.8,3.1-2c1.3-0.2,2.6,0.2,3.6,1.1c0.7,0.6,1.1,1.4,1.4,2.4
		c0.1,0.5,0.2,1,0.2,1.6c0,2.5-0.8,4.2-2.5,5.5c-1.6,1.2-3.5,1.4-4.6,1.5c-0.4,0-0.7,0-0.7,0c-0.8-0.1-1.5,0.5-1.6,1.3
		c-0.1,0.8,0.5,1.5,1.3,1.6c0,0,0.3,0,0.8,0c1.4,0,4.2-0.2,6.5-2c2.4-1.8,3.6-4.4,3.6-7.8c0-0.3-0.1-0.6-0.1-0.9
		c-0.3-2.6-1.4-4.3-2.5-5.2c-1.6-1.4-3.8-2-5.8-1.7c-2.1,0.3-4,1.5-5.1,3.3c-0.8,1.3-1.1,2.8-0.8,4.3
		C248.3,87.8,248.4,88.2,248.5,88.5z"/>
</g>
<g class="st1">
	<path class="st2" d="M130.7,87.5c0,0.1,0,0.2,0,0.2c0,3.9-1.5,7-4.3,9.2c-2.8,2.1-6,2.4-7.6,2.4c-0.5,0-0.9,0-1,0
		c-1.8-0.2-3.1-1.8-2.9-3.6c0.1-1.1,0.8-2.1,1.7-2.5c-1.7-0.8-2.9-2.3-3.6-4.1c-0.1-0.3-0.1-0.6-0.2-0.9c-5.8,3.1-9.8,8.8-9.8,15.3
		c0,7.2,4.8,13.4,11.6,16.2c1,0.4,2,0.7,3.1,0.9c0-0.7,0.2-1.3,0.5-1.9c-0.7-0.5-1.2-1.1-1.2-1.8c0-1.6,2.5-2.9,5.6-2.9
		c3.1,0,5.6,1.3,5.6,2.9c0,0.7-0.5,1.3-1.2,1.8c0.3,0.6,0.4,1.2,0.5,1.9c1-0.2,2-0.5,3-0.9c6.8-2.7,11.6-9,11.6-16.2
		C142,96.4,137.3,90.3,130.7,87.5z M117.9,113c-1.1,0-2-1.1-2-2.5s0.9-2.5,2-2.5c1.1,0,2,1.1,2,2.5S119.1,113,117.9,113z M127.2,113
		c-1.1,0-2-1.1-2-2.5s0.9-2.5,2-2.5c1.1,0,2,1.1,2,2.5S128.3,113,127.2,113z"/>
	<path class="st2" d="M114.8,88.5c0.6,1.8,1.9,3,3.7,3.5c0.7,0.2,1.4,0.2,2.1,0.1c1-0.1,2-0.4,2.6-1c1.7-1.6,1.5-3.3,1.5-3.5
		c-0.1-0.8-0.8-1.4-1.6-1.3c-0.6,0.1-1.1,0.5-1.2,1.1c-0.1,0.4,0,0.8-0.3,1.2c-0.5,0.8-1.6,0.9-2.4,0.7c-0.9-0.2-1.4-0.8-1.7-1.6
		c-0.1-0.4-0.2-0.8-0.2-1.1c0-0.8,0.2-1.5,0.5-1.9c0.6-1,1.8-1.8,3.1-2c1.3-0.2,2.6,0.2,3.6,1.1c0.7,0.6,1.1,1.4,1.4,2.4
		c0.1,0.5,0.2,1,0.2,1.6c0,2.5-0.8,4.2-2.5,5.5c-1.6,1.2-3.5,1.4-4.6,1.5c-0.4,0-0.7,0-0.7,0c-0.8-0.1-1.5,0.5-1.6,1.3
		c-0.1,0.8,0.5,1.5,1.3,1.6c0,0,0.3,0,0.8,0c1.4,0,4.2-0.2,6.5-2c2.4-1.8,3.6-4.4,3.6-7.8c0-0.3-0.1-0.6-0.1-0.9
		c-0.3-2.6-1.4-4.3-2.5-5.2c-1.6-1.4-3.8-2-5.8-1.7c-2.1,0.3-4,1.5-5.1,3.3c-0.8,1.3-1.1,2.8-0.8,4.3
		C114.6,87.8,114.6,88.2,114.8,88.5z"/>
	<path class="st2" d="M122.6,117.9c-1.1,0-2.1,0.7-2.6,1.6c-0.2,0.4-0.3,0.8-0.3,1.3c0,0.1,0,0.1,0,0.2c0.1,1.5,1.3,2.7,2.9,2.7
		c1.5,0,2.8-1.2,2.9-2.7c0-0.1,0-0.1,0-0.2c0-0.5-0.1-0.9-0.3-1.3C124.7,118.6,123.7,117.9,122.6,117.9z"/>
</g>
</svg>
