<?xml version="1.0" encoding="utf-8"?>
<!-- Generator: Adobe Illustrator 23.0.3, SVG Export Plug-In . SVG Version: 6.00 Build 0)  -->
<!DOCTYPE svg PUBLIC "-//W3C//DTD SVG 1.1//EN" "http://www.w3.org/Graphics/SVG/1.1/DTD/svg11.dtd" [
	<!ENTITY ns_extend "http://ns.adobe.com/Extensibility/1.0/">
	<!ENTITY ns_ai "http://ns.adobe.com/AdobeIllustrator/10.0/">
	<!ENTITY ns_graphs "http://ns.adobe.com/Graphs/1.0/">
	<!ENTITY ns_vars "http://ns.adobe.com/Variables/1.0/">
	<!ENTITY ns_imrep "http://ns.adobe.com/ImageReplacement/1.0/">
	<!ENTITY ns_sfw "http://ns.adobe.com/SaveForWeb/1.0/">
	<!ENTITY ns_custom "http://ns.adobe.com/GenericCustomNamespace/1.0/">
	<!ENTITY ns_adobe_xpath "http://ns.adobe.com/XPath/1.0/">
]>
<svg version="1.1" id="Layer_1" xmlns:x="&ns_extend;" xmlns:i="&ns_ai;" xmlns:graph="&ns_graphs;"
	 xmlns="http://www.w3.org/2000/svg" xmlns:xlink="http://www.w3.org/1999/xlink" x="0px" y="0px" width="36px" height="36px"
	 viewBox="0 0 36 36" style="enable-background:new 0 0 36 36;" xml:space="preserve">
<style type="text/css">
	.st0{opacity:0.7;}
	.st1{fill:#FFFFFF;}
</style>
<metadata>
	<sfw  xmlns="&ns_sfw;">
		<slices></slices>
		<sliceSourceBounds  bottomLeftOrigin="true" height="32" width="34.5" x="0.6" y="-35.4"></sliceSourceBounds>
	</sfw>
</metadata>
<g class="st0">
	<path class="st1" d="M8.2,15.2c-0.7,0-1.2,0.5-1.2,1.2c0,0.7,0.5,1.2,1.2,1.2c0.7,0,1.2-0.5,1.2-1.2C9.3,15.7,8.8,15.2,8.2,15.2z"
		/>
	<circle class="st1" cx="19.9" cy="16.3" r="1.3"/>
	<path class="st1" d="M30.5,3.4H5.2C2.7,3.4,0.6,5.4,0.6,8v15c0,2.5,2.1,4.6,4.6,4.6h8.9l3,7.2c0,0,0.2,0.6,0.7,0.6c0,0,0,0,0,0
		c0.5,0,0.7-0.6,0.7-0.6l3-7.2h8.8c2.5,0,4.6-2.1,4.6-4.6V8C35.1,5.4,33.1,3.4,30.5,3.4z M11.5,16.6c0,2.7-2.8,2.8-2.8,2.8
		c-1.1,0-1.7-0.7-1.7-0.7v0.5H4.8v-8.5c0,0,0,0,0,0v0c0.1,0,2.1,0,2.1,0v3.3c0.5-0.8,1.9-0.8,1.9-0.8C11.8,13.4,11.5,16.6,11.5,16.6
		z M15.1,13.4v5.8h-2v-5.8c0-0.8-1-1-1-1v-2C15.3,10.5,15.1,13.4,15.1,13.4z M19.9,19.4c-1.9,0-3.4-1.4-3.4-3.1
		c0-1.7,1.5-3.1,3.4-3.1c1.9,0,3.4,1.4,3.4,3.1C23.3,18,21.8,19.4,19.9,19.4z M31,19.4c0,0,0,3-3,3h-0.9v-1.9h0.6
		c0,0,1.3,0.1,1.3-1.8c0,0-0.2,0.8-2,0.8c0,0-2.5-0.2-2.5-2.6v-0.9c0,0,0.1-2.5,2.8-2.7c0,0,1.1-0.1,1.8,0.8v-0.6h2V19.4z"/>
	<circle class="st1" cx="27.7" cy="16.3" r="1.3"/>
</g>
</svg>
